<svg width="97" height="130" viewBox="0 0 97 130" fill="none" xmlns="http://www.w3.org/2000/svg">
<g clip-path="url(#clip0_855_2608)">
<path d="M62.1308 39.2667C62.1308 39.2038 62.128 39.1436 62.1252 39.0807C62.1252 39.0287 62.1225 38.9768 62.1197 38.9248H59.0469C58.9751 38.9986 58.9034 39.067 58.8288 39.1272C58.7957 39.1573 58.7598 39.1846 58.7267 39.2092C58.7018 39.2311 58.677 39.2475 58.6521 39.2639C58.5831 39.3104 58.5168 39.3515 58.4478 39.3843C58.423 39.398 58.3981 39.4089 58.3733 39.4171C58.3125 39.4445 58.2518 39.4609 58.1911 39.4718H62.1335C62.1335 39.4034 62.1335 39.3351 62.1308 39.2667ZM56.01 39.3351C55.9134 39.3296 55.8195 39.3214 55.7229 39.3159C55.4164 39.294 55.1045 39.2749 54.7925 39.253C54.6351 39.2421 54.4805 39.2339 54.3259 39.2229C54.3093 39.2229 54.2955 39.2175 54.279 39.212C54.2707 39.2065 54.2624 39.2038 54.2541 39.1956C54.2376 39.1874 54.2182 39.1709 54.2017 39.1518C54.1851 39.1354 54.1685 39.1135 54.152 39.0916C54.1382 39.0725 54.1216 39.0479 54.1078 39.026C54.0885 38.9932 54.0719 38.9604 54.0526 38.9248H52.9289C52.9124 38.9549 52.8958 38.9795 52.882 39.0014L52.8765 39.0069C52.8627 39.026 52.8489 39.0451 52.8351 39.0588C52.8019 39.0944 52.7716 39.1135 52.7412 39.1108C52.6832 39.1053 52.6253 39.0999 52.57 39.0862C52.5479 39.0834 52.5286 39.078 52.5065 39.0725C52.4872 39.067 52.4651 39.0616 52.4458 39.0561C52.4016 39.0424 52.3575 39.026 52.316 39.0096C52.305 39.0041 52.294 39.0014 52.2829 38.9959C52.236 38.974 52.189 38.9521 52.1421 38.9248H48.658C48.5227 39.1026 48.3984 39.2858 48.2797 39.4718H57.8681C57.3076 39.4226 56.6726 39.3788 56.01 39.3351ZM62.1308 39.2667C62.1308 39.2038 62.128 39.1436 62.1252 39.0807C62.1252 39.0287 62.1225 38.9768 62.1197 38.9248H59.0469C58.9751 38.9986 58.9034 39.067 58.8288 39.1272C58.7957 39.1573 58.7598 39.1846 58.7267 39.2092C58.7018 39.2311 58.677 39.2475 58.6521 39.2639C58.5831 39.3104 58.5168 39.3515 58.4478 39.3843C58.423 39.398 58.3981 39.4089 58.3733 39.4171C58.3125 39.4445 58.2518 39.4609 58.1911 39.4718H62.1335C62.1335 39.4034 62.1335 39.3351 62.1308 39.2667ZM56.01 39.3351C55.9134 39.3296 55.8195 39.3214 55.7229 39.3159C55.4164 39.294 55.1045 39.2749 54.7925 39.253C54.6351 39.2421 54.4805 39.2339 54.3259 39.2229C54.3093 39.2229 54.2955 39.2175 54.279 39.212C54.2707 39.2065 54.2624 39.2038 54.2541 39.1956C54.2376 39.1874 54.2182 39.1709 54.2017 39.1518C54.1851 39.1354 54.1685 39.1135 54.152 39.0916C54.1382 39.0725 54.1216 39.0479 54.1078 39.026C54.0885 38.9932 54.0719 38.9604 54.0526 38.9248H52.9289C52.9124 38.9549 52.8958 38.9795 52.882 39.0014L52.8765 39.0069C52.8627 39.026 52.8489 39.0451 52.8351 39.0588C52.8019 39.0944 52.7716 39.1135 52.7412 39.1108C52.6832 39.1053 52.6253 39.0999 52.57 39.0862C52.5479 39.0834 52.5286 39.078 52.5065 39.0725C52.4872 39.067 52.4651 39.0616 52.4458 39.0561C52.4016 39.0424 52.3575 39.026 52.316 39.0096C52.305 39.0041 52.294 39.0014 52.2829 38.9959C52.236 38.974 52.189 38.9521 52.1421 38.9248H48.658C48.5227 39.1026 48.3984 39.2858 48.2797 39.4718H57.8681C57.3076 39.4226 56.6726 39.3788 56.01 39.3351ZM91.7488 38.9248H12.8004C9.90431 38.9248 7.54932 41.2578 7.54932 44.1268V124.798C7.54932 127.667 9.90431 130 12.8004 130H91.7488C94.6449 130 96.9999 127.667 96.9999 124.798V44.1268C96.9999 41.2578 94.6449 38.9248 91.7488 38.9248ZM96.4478 124.798C96.4478 127.366 94.3413 129.453 91.7488 129.453H12.8004C10.208 129.453 8.10148 127.366 8.10148 124.798V44.1268C8.10148 41.5586 10.208 39.4718 12.8004 39.4718H91.7488C94.3413 39.4718 96.4478 41.5586 96.4478 44.1268V124.798ZM56.01 39.3351C55.9134 39.3296 55.8195 39.3214 55.7229 39.3159C55.4164 39.294 55.1045 39.2749 54.7925 39.253C54.6351 39.2421 54.4805 39.2339 54.3259 39.2229C54.3093 39.2229 54.2955 39.2175 54.279 39.212C54.2707 39.2065 54.2624 39.2038 54.2541 39.1956C54.2376 39.1874 54.2182 39.1709 54.2017 39.1518C54.1851 39.1354 54.1685 39.1135 54.152 39.0916C54.1382 39.0725 54.1216 39.0479 54.1078 39.026C54.0885 38.9932 54.0719 38.9604 54.0526 38.9248H52.9289C52.9124 38.9549 52.8958 38.9795 52.882 39.0014L52.8765 39.0069C52.8627 39.026 52.8489 39.0451 52.8351 39.0588C52.8019 39.0944 52.7716 39.1135 52.7412 39.1108C52.6832 39.1053 52.6253 39.0999 52.57 39.0862C52.5479 39.0834 52.5286 39.078 52.5065 39.0725C52.4872 39.067 52.4651 39.0616 52.4458 39.0561C52.4016 39.0424 52.3575 39.026 52.316 39.0096C52.305 39.0041 52.294 39.0014 52.2829 38.9959C52.236 38.974 52.189 38.9521 52.1421 38.9248H48.658C48.5227 39.1026 48.3984 39.2858 48.2797 39.4718H57.8681C57.3076 39.4226 56.6726 39.3788 56.01 39.3351ZM62.1308 39.2667C62.1308 39.2038 62.128 39.1436 62.1252 39.0807C62.1252 39.0287 62.1225 38.9768 62.1197 38.9248H59.0469C58.9751 38.9986 58.9034 39.067 58.8288 39.1272C58.7957 39.1573 58.7598 39.1846 58.7267 39.2092C58.7018 39.2311 58.677 39.2475 58.6521 39.2639C58.5831 39.3104 58.5168 39.3515 58.4478 39.3843C58.423 39.398 58.3981 39.4089 58.3733 39.4171C58.3125 39.4445 58.2518 39.4609 58.1911 39.4718H62.1335C62.1335 39.4034 62.1335 39.3351 62.1308 39.2667ZM56.01 39.3351C55.9134 39.3296 55.8195 39.3214 55.7229 39.3159C55.4164 39.294 55.1045 39.2749 54.7925 39.253C54.6351 39.2421 54.4805 39.2339 54.3259 39.2229C54.3093 39.2229 54.2955 39.2175 54.279 39.212C54.2707 39.2065 54.2624 39.2038 54.2541 39.1956C54.2376 39.1874 54.2182 39.1709 54.2017 39.1518C54.1851 39.1354 54.1685 39.1135 54.152 39.0916C54.1382 39.0725 54.1216 39.0479 54.1078 39.026C54.0885 38.9932 54.0719 38.9604 54.0526 38.9248H52.9289C52.9124 38.9549 52.8958 38.9795 52.882 39.0014L52.8765 39.0069C52.8627 39.026 52.8489 39.0451 52.8351 39.0588C52.8019 39.0944 52.7716 39.1135 52.7412 39.1108C52.6832 39.1053 52.6253 39.0999 52.57 39.0862C52.5479 39.0834 52.5286 39.078 52.5065 39.0725C52.4872 39.067 52.4651 39.0616 52.4458 39.0561C52.4016 39.0424 52.3575 39.026 52.316 39.0096C52.305 39.0041 52.294 39.0014 52.2829 38.9959C52.236 38.974 52.189 38.9521 52.1421 38.9248H48.658C48.5227 39.1026 48.3984 39.2858 48.2797 39.4718H57.8681C57.3076 39.4226 56.6726 39.3788 56.01 39.3351ZM62.1308 39.2667C62.1308 39.2038 62.128 39.1436 62.1252 39.0807C62.1252 39.0287 62.1225 38.9768 62.1197 38.9248H59.0469C58.9751 38.9986 58.9034 39.067 58.8288 39.1272C58.7957 39.1573 58.7598 39.1846 58.7267 39.2092C58.7018 39.2311 58.677 39.2475 58.6521 39.2639C58.5831 39.3104 58.5168 39.3515 58.4478 39.3843C58.423 39.398 58.3981 39.4089 58.3733 39.4171C58.3125 39.4445 58.2518 39.4609 58.1911 39.4718H62.1335C62.1335 39.4034 62.1335 39.3351 62.1308 39.2667Z" fill="#3F3D56"/>
<path d="M73.7096 39.5166C71.5066 40.3171 70.4042 32.0958 69.8543 31.9121C69.3432 31.7414 68.7116 40.0813 68.2021 39.9169C55.8706 35.9363 50.7414 26.2683 40.1066 28.9969C37.1349 19.6786 37.9882 9.56361 41.2081 6.58367C46.2279 -0.0281743 55.9453 0.19974 62.6381 1.33911C67.8719 2.23009 71.3963 7.28778 70.1526 12.4022C70.0688 12.7468 69.7345 13.0717 69.843 13.3877C70.307 14.738 74.1125 33.2366 73.7096 39.5166Z" fill="#2F2E41"/>
<path d="M56.6293 25.435C63.0169 25.435 68.1951 20.3052 68.1951 13.9774C68.1951 7.64952 63.0169 2.51978 56.6293 2.51978C50.2417 2.51978 45.0635 7.64952 45.0635 13.9774C45.0635 20.3052 50.2417 25.435 56.6293 25.435Z" fill="#FFB6B6"/>
<path d="M67.1543 79.9949H34.7769C37.4907 73.9959 39.1591 68.2825 36.5509 63.738L67.1543 61.9805C65.625 68.1154 65.4381 74.1362 67.1543 79.9949Z" fill="#FFB6B6"/>
<path d="M78.8725 130H54.2211L53.9534 129.453L50.0219 121.459L49.6327 129.453L49.6051 130H25.3209C25.3098 129.817 25.296 129.634 25.285 129.453C23.7886 106.575 29.1695 91.0674 32.3251 84.1288L32.3278 84.126C33.5674 81.3965 34.4675 79.9935 34.4675 79.9935L34.7794 79.9907H34.7822L41.0852 79.8814H41.0879L46.6703 79.7884L50.8888 79.72L52.5812 79.6899H52.584L53.6441 79.6735L58.9145 79.5832L63.6217 79.5039L67.001 79.4492H67.0949L67.5973 81.5962V81.5989L67.6167 81.6947V81.6974L67.7022 82.0502L67.705 82.0611L67.8762 82.8023V82.8078L67.8872 82.8488V82.8515L67.9286 83.0293L67.9314 83.0375L68.329 84.7414L68.9722 87.512L69.8198 91.1358L70.8882 95.7361L71.4294 98.0526L72.172 101.244L78.7428 129.453L78.8725 130Z" fill="#2F2E41"/>
<path d="M62.48 26.5708L49.595 26.1254L44.5017 32.8913L41.8217 33.4678C37.8044 34.332 35.0486 38.0025 35.3687 42.0626L35.1499 72.3566L34.4199 77.0339L68.0298 66.8299L74.3359 35.8268L65.3505 32.6289L62.48 26.5708Z" fill="#566B92"/>
<path d="M65.0833 100.43C65.4527 99.1414 66.0854 98.0421 66.8386 97.2579L69.5752 84.76L75.5403 86.224L72.122 98.7442C72.3468 99.8035 72.3018 101.068 71.9324 102.357C71.0884 105.301 68.871 107.257 66.9796 106.725C65.0883 106.193 64.2393 103.374 65.0833 100.43Z" fill="#FFB6B6"/>
<path d="M65.9084 32.9417C65.9084 32.9417 76.9219 32.386 77.7239 39.6211C78.526 46.8561 81.0915 64.0556 81.0915 64.0556L75.1444 91.8687L66.664 90.7012L70.4116 55.2983L65.9084 32.9417Z" fill="#566B92"/>
<path d="M61.6083 33.4217C60.748 34.4554 59.7234 35.211 58.7159 35.63L51.1484 45.9908L46.2771 42.2794L54.478 32.169C54.7011 31.1093 55.2543 29.9688 56.1146 28.935C58.08 26.5733 60.903 25.6633 62.42 26.9022C63.9371 28.1412 63.5737 31.06 61.6083 33.4217Z" fill="#FFB6B6"/>
<path d="M50.0316 40.7173C51.2836 34.5946 47.2092 25.7324 47.1197 21.1474C47.0401 17.068 48.0258 17.3822 51.2609 14.857L52.9174 10.7545C54.1619 10.2869 55.3632 11.7646 55.9731 12.7172C56.2845 13.2035 56.9881 13.2104 57.3138 12.7333C57.4718 12.5017 57.6246 12.3331 57.7308 12.3405C58.175 12.3715 58.4957 14.1085 58.9498 14.1387C60.8589 14.2655 65.1845 14.1744 66.7215 14.31C68.3966 14.4577 68.0163 10.3848 68.1951 10.7037C69.5917 13.194 68.8397 9.93398 67.0351 8.56763L69.7204 8.83998C71.3237 13.9069 72.8729 18.9379 71.4149 21.9679L68.7417 14.5229C68.7417 6.98976 64.8906 -1.84508 53.8756 0.337324C46.3789 -0.405357 39.578 4.69213 38.2387 12.0368C37.5874 15.609 36.5749 19.2098 35.8882 22.3468C35.2763 25.1422 36.1355 28.9383 39.0052 29.2541L40.9554 33.7284C40.9554 36.3529 44.527 38.5438 47.0718 38.1775C48.3793 37.9893 49.8986 40.2781 50.0661 40.8394L50.0316 40.7173Z" fill="#2F2E41"/>
<path d="M41.208 34.7102C41.208 34.7102 33.1939 30.3454 30.5919 34.7102C28.3718 38.4343 26.4422 57.2512 25.9236 62.6952C25.8326 63.6508 26.0654 64.6062 26.5856 65.4159C28.1261 67.814 31.5454 68.1075 33.4792 66.0076L58.2814 39.075L50.5708 35.2558L37.3527 48.8958L41.208 34.7102Z" fill="#566B92"/>
<path d="M44.3705 66.189C43.704 66.189 43.1514 65.65 43.1514 65V61.0365C43.1514 56.439 46.9874 52.7134 51.685 52.7134H55.7486C56.4151 52.7134 56.9677 53.2524 56.9677 53.9024C56.9677 54.5524 56.4151 55.0914 55.7486 55.0914H51.685C48.3203 55.0914 45.5895 57.7548 45.5895 61.0365V65C45.5895 65.65 45.0369 66.189 44.3705 66.189Z" fill="#82A6C5"/>
<path d="M76.8795 66.189C76.213 66.189 75.6604 65.65 75.6604 65V61.0365C75.6604 57.7548 72.9296 55.0914 69.5649 55.0914H65.5013C64.8349 55.0914 64.2822 54.5524 64.2822 53.9024C64.2822 53.2524 64.8349 52.7134 65.5013 52.7134H69.5649C74.2625 52.7134 78.0986 56.439 78.0986 61.0365V65C78.0986 65.65 77.5459 66.189 76.8795 66.189Z" fill="#82A6C5"/>
<path d="M69.565 86.7988H67.1268C66.4604 86.7988 65.9077 86.2598 65.9077 85.6098C65.9077 84.9598 66.4604 84.4208 67.1268 84.4208H69.565C72.9297 84.4208 75.6604 81.7573 75.6604 78.4756V76.0976C75.6604 75.4476 76.2131 74.9086 76.8795 74.9086C77.546 74.9086 78.0986 75.4476 78.0986 76.0976V78.4756C78.0986 83.0732 74.2625 86.7988 69.565 86.7988Z" fill="#82A6C5"/>
<path d="M55.7486 86.7987H51.685C46.9874 86.7987 43.1514 83.0731 43.1514 78.4756V74.5121C43.1514 73.8621 43.704 73.3231 44.3705 73.3231C45.0369 73.3231 45.5895 73.8621 45.5895 74.5121V78.4756C45.5895 81.7573 48.3203 84.4207 51.685 84.4207H55.7486C56.4151 84.4207 56.9677 84.9597 56.9677 85.6097C56.9677 86.2597 56.4151 86.7987 55.7486 86.7987Z" fill="#82A6C5"/>
</g>
<defs>
<clipPath id="clip0_855_2608">
<rect width="97" height="130" fill="white"/>
</clipPath>
</defs>
</svg>
