<svg width="176" height="152" viewBox="0 0 176 152" fill="none" xmlns="http://www.w3.org/2000/svg">
<g clip-path="url(#clip0_855_2626)">
<path d="M57.1632 16.1538L59.0684 24.8664L55.0159 36.9936L48.4868 23.964L49.3927 16.4049L57.1632 16.1538Z" fill="#FDB4B4"/>
<path d="M59.4222 24.4152H48.1489V38.0653H59.4222V24.4152Z" fill="#6C63FF"/>
<path d="M54.7865 20.5425C59.0385 20.5425 62.4854 17.0883 62.4854 12.8272C62.4854 8.56619 59.0385 5.11194 54.7865 5.11194C50.5345 5.11194 47.0876 8.56619 47.0876 12.8272C47.0876 17.0883 50.5345 20.5425 54.7865 20.5425Z" fill="#FDB4B4"/>
<path d="M48.0851 18.5643C48.0851 18.5643 42.3463 7.94315 47.5205 2.83199C52.6947 -2.27918 56.8482 1.08876 56.8482 1.08876L59.2201 0.9927C59.2201 0.9927 59.7148 2.86328 60.5124 1.85066C61.3101 0.838031 62.7514 4.52588 62.7514 4.52588C65.4267 9.35415 56.1526 10.4358 56.1526 10.4358C56.1526 10.4358 56.8223 12.5736 56.1416 13.0213C55.4609 13.469 53.6422 15.1532 53.6422 15.1532L52.0144 16.3852L51.047 14.9082C51.047 14.9082 50.0366 14.1088 49.526 14.4446C49.0155 14.7804 49.7178 19.1984 49.7178 19.1984L48.0851 18.5643Z" fill="#2E2E41"/>
<path d="M38.8492 96.7021L35.9058 140.703L43.1418 140.948L52.7081 97.0709L38.8492 96.7021Z" fill="#2E2E41"/>
<path d="M56.3873 96.4564L53.4438 140.457L60.6799 140.703L70.2462 96.8251L56.3873 96.4564Z" fill="#2E2E41"/>
<path d="M37.0768 106.755L40.9289 58.8323L35.0215 33.8778C34.5123 30.1683 36.8446 26.6583 40.4442 25.7012L46.2246 24.1644L48.7831 21.6003L54.6025 34.4789L58.237 21.6102L61.0715 23.676L69.4783 27.3929L69.4744 27.4799L68.126 57.6248L71.136 106.328L71.0025 106.33L37.0768 106.755Z" fill="#E8E9EA"/>
<path d="M60.2153 140.203L62.3105 146.471C62.3105 146.471 70.5075 147.588 70.6351 150.131C70.7626 152.674 59.4949 151.202 52.897 151.534C46.2991 151.866 51.7913 144.706 51.7913 144.706L52.4944 140.592L60.2153 140.203Z" fill="#2E2E41"/>
<path d="M43.1047 139.751L45.1999 146.02C45.1999 146.02 53.3969 147.136 53.5245 149.68C53.652 152.223 42.3843 150.751 35.7864 151.083C29.1885 151.415 34.6808 144.255 34.6808 144.255L35.3838 140.14L43.1047 139.751Z" fill="#2E2E41"/>
<path d="M32.8824 81.3038C32.7935 80.0679 33.0014 78.8287 33.4885 77.6898L31.9248 64.8347L38.0504 64.2679L38.9769 77.369C39.5925 78.4431 39.9424 79.6494 39.9975 80.8868C40.1776 83.9822 38.7309 86.5835 36.7659 86.6984C34.8008 86.8134 33.062 84.3981 32.8824 81.3038Z" fill="#FDB4B4"/>
<path d="M71.6802 83.1906C71.6048 81.9539 71.8261 80.717 72.3256 79.5835L70.9019 66.7121L77.0332 66.2123L77.8172 79.3226C78.421 80.4034 78.7578 81.6135 78.7994 82.8515C78.9459 85.9486 77.4709 88.534 75.5048 88.6274C73.5386 88.7209 71.8262 86.2867 71.6802 83.1906Z" fill="#FDB4B4"/>
<path d="M31.8997 76.1483L31.879 76.0374L28.6865 58.8718L32.4587 30.9195C32.7953 28.424 35.0189 26.6263 37.5264 26.8272C38.8359 26.9323 40.0108 27.5547 40.835 28.58C41.659 29.6054 42.0156 30.8884 41.8389 32.193L38.9998 53.1569L40.7873 75.5798L31.8997 76.1483Z" fill="#E8E9EA"/>
<path d="M69.7881 75.7456L63.3696 32.81C63.036 31.5511 63.2312 30.2335 63.9223 29.1139C64.6133 27.9944 65.7024 27.231 66.9889 26.9643C69.4503 26.4542 71.8807 27.9619 72.5231 30.3963L78.6893 75.2064L69.7881 75.7456Z" fill="#E8E9EA"/>
<path d="M54.7907 38.4037C55.2259 38.4037 55.5787 38.0501 55.5787 37.614C55.5787 37.1779 55.2259 36.8243 54.7907 36.8243C54.3555 36.8243 54.0027 37.1779 54.0027 37.614C54.0027 38.0501 54.3555 38.4037 54.7907 38.4037Z" fill="#D6D7D8"/>
<path d="M54.7907 44.3827C55.2259 44.3827 55.5787 44.0291 55.5787 43.593C55.5787 43.1569 55.2259 42.8033 54.7907 42.8033C54.3555 42.8033 54.0027 43.1569 54.0027 43.593C54.0027 44.0291 54.3555 44.3827 54.7907 44.3827Z" fill="#D6D7D8"/>
<path d="M54.7907 50.3616C55.2259 50.3616 55.5787 50.008 55.5787 49.5719C55.5787 49.1358 55.2259 48.7822 54.7907 48.7822C54.3555 48.7822 54.0027 49.1358 54.0027 49.5719C54.0027 50.008 54.3555 50.3616 54.7907 50.3616Z" fill="#D6D7D8"/>
<path d="M54.7907 56.3406C55.2259 56.3406 55.5787 55.987 55.5787 55.5509C55.5787 55.1148 55.2259 54.7612 54.7907 54.7612C54.3555 54.7612 54.0027 55.1148 54.0027 55.5509C54.0027 55.987 54.3555 56.3406 54.7907 56.3406Z" fill="#D6D7D8"/>
<path d="M54.7907 62.3196C55.2259 62.3196 55.5787 61.966 55.5787 61.5299C55.5787 61.0938 55.2259 60.7402 54.7907 60.7402C54.3555 60.7402 54.0027 61.0938 54.0027 61.5299C54.0027 61.966 54.3555 62.3196 54.7907 62.3196Z" fill="#D6D7D8"/>
<path d="M54.7907 68.2985C55.2259 68.2985 55.5787 67.9449 55.5787 67.5088C55.5787 67.0727 55.2259 66.7191 54.7907 66.7191C54.3555 66.7191 54.0027 67.0727 54.0027 67.5088C54.0027 67.9449 54.3555 68.2985 54.7907 68.2985Z" fill="#D6D7D8"/>
<path d="M54.7907 74.2775C55.2259 74.2775 55.5787 73.9239 55.5787 73.4878C55.5787 73.0517 55.2259 72.6981 54.7907 72.6981C54.3555 72.6981 54.0027 73.0517 54.0027 73.4878C54.0027 73.9239 54.3555 74.2775 54.7907 74.2775Z" fill="#D6D7D8"/>
<path d="M54.7907 80.2565C55.2259 80.2565 55.5787 79.9029 55.5787 79.4668C55.5787 79.0307 55.2259 78.6771 54.7907 78.6771C54.3555 78.6771 54.0027 79.0307 54.0027 79.4668C54.0027 79.9029 54.3555 80.2565 54.7907 80.2565Z" fill="#D6D7D8"/>
<path d="M54.7916 84.8815L39.8819 82.8903L39.5948 82.8521L31.9747 65.2446L27.4368 54.7616H39.2568L54.7916 84.8815Z" fill="#6C63FF"/>
<path d="M114.572 18.0694L124.051 12.8654V27.7341H113.088L114.572 18.0694Z" fill="#2E2E41"/>
<path d="M126.083 21.3843L126.958 28.684L120.653 41.2665L116.74 29.5555L118.579 21.1418L126.083 21.3843Z" fill="#FDB4B4"/>
<path d="M127.284 29.1198H116.398V42.3015H127.284V29.1198Z" fill="#6C63FF"/>
<path d="M136.265 98.9264L139.107 141.417L132.12 141.654L122.882 99.2825L136.265 98.9264Z" fill="#2E2E41"/>
<path d="M119.329 98.689L122.171 141.18L115.183 141.417L105.945 99.045L119.329 98.689Z" fill="#2E2E41"/>
<path d="M143.648 107.938L143.481 107.938L98.9658 107.792L99.0058 107.634L110.451 62.1932L107.584 39.2607C107.04 34.9152 109.362 30.8079 113.36 29.0403L114.803 28.4022L117.545 26.4039L121.053 38.8255L126.671 26.3942L129.145 28.8737L134.726 30.3576C138.204 31.2823 140.458 34.6739 139.968 38.2466L139.962 38.2715L131.439 62.6418L143.648 107.938Z" fill="#E8E9EA"/>
<path d="M115.632 140.934L123.088 141.31L123.767 145.283C123.767 145.283 129.071 152.198 122.699 151.877C116.328 151.556 105.447 152.977 105.57 150.522C105.693 148.066 113.609 146.987 113.609 146.987L115.632 140.934Z" fill="#2E2E41"/>
<path d="M132.156 140.499L139.611 140.874L140.29 144.847C140.29 144.847 145.594 151.762 139.223 151.441C132.851 151.12 121.97 152.542 122.093 150.086C122.216 147.63 130.132 146.552 130.132 146.552L132.156 140.499Z" fill="#2E2E41"/>
<path d="M138.983 83.6206C138.81 86.6087 137.131 88.9411 135.233 88.8301C133.335 88.7192 131.938 86.2071 132.112 83.2179C132.165 82.0229 132.503 80.8581 133.098 79.8208L133.993 67.1693L139.908 67.7166L138.398 80.1306C138.868 81.2304 139.069 82.4271 138.983 83.6206Z" fill="#FDB4B4"/>
<path d="M108.585 82.4843C108.348 85.468 106.62 87.7641 104.725 87.6127C102.83 87.4612 101.487 84.9199 101.724 81.9352C101.802 80.7416 102.165 79.5842 102.781 78.5598L103.945 65.9303L109.847 66.6037L108.074 78.9826C108.521 80.0922 108.696 81.2929 108.585 82.4843Z" fill="#FDB4B4"/>
<path d="M139.936 78.6466L131.345 78.0971L131.355 77.9681L133.071 56.4396L130.33 36.1956C130.159 34.9346 130.504 33.6943 131.3 32.7033C132.097 31.7121 133.232 31.1105 134.498 31.0089C136.922 30.8175 139.071 32.5525 139.397 34.9646L143.039 61.9585L143.036 61.9786L139.936 78.6466Z" fill="#E8E9EA"/>
<path d="M110.015 77.822L101.41 77.3007L101.429 77.1646L107.363 34.0383C107.987 31.6697 110.337 30.2128 112.715 30.7056C113.959 30.9634 115.011 31.7013 115.679 32.7836C116.347 33.8658 116.536 35.1392 116.211 36.3693L110.015 77.822Z" fill="#E8E9EA"/>
<path d="M120.871 42.6283C121.291 42.6283 121.632 42.2869 121.632 41.8657C121.632 41.4446 121.291 41.1031 120.871 41.1031C120.45 41.1031 120.11 41.4446 120.11 41.8657C120.11 42.2869 120.45 42.6283 120.871 42.6283Z" fill="#D6D7D8"/>
<path d="M120.871 48.4021C121.291 48.4021 121.632 48.0607 121.632 47.6395C121.632 47.2184 121.291 46.877 120.871 46.877C120.45 46.877 120.11 47.2184 120.11 47.6395C120.11 48.0607 120.45 48.4021 120.871 48.4021Z" fill="#D6D7D8"/>
<path d="M120.871 54.1759C121.291 54.1759 121.632 53.8345 121.632 53.4133C121.632 52.9922 121.291 52.6508 120.871 52.6508C120.45 52.6508 120.11 52.9922 120.11 53.4133C120.11 53.8345 120.45 54.1759 120.871 54.1759Z" fill="#D6D7D8"/>
<path d="M120.871 59.9497C121.291 59.9497 121.632 59.6083 121.632 59.1871C121.632 58.766 121.291 58.4246 120.871 58.4246C120.45 58.4246 120.11 58.766 120.11 59.1871C120.11 59.6083 120.45 59.9497 120.871 59.9497Z" fill="#D6D7D8"/>
<path d="M120.871 65.7235C121.291 65.7235 121.632 65.3821 121.632 64.9609C121.632 64.5398 121.291 64.1984 120.871 64.1984C120.45 64.1984 120.11 64.5398 120.11 64.9609C120.11 65.3821 120.45 65.7235 120.871 65.7235Z" fill="#D6D7D8"/>
<path d="M120.871 71.4973C121.291 71.4973 121.632 71.1559 121.632 70.7347C121.632 70.3136 121.291 69.9722 120.871 69.9722C120.45 69.9722 120.11 70.3136 120.11 70.7347C120.11 71.1559 120.45 71.4973 120.871 71.4973Z" fill="#D6D7D8"/>
<path d="M120.871 77.2711C121.291 77.2711 121.632 76.9297 121.632 76.5085C121.632 76.0874 121.291 75.746 120.871 75.746C120.45 75.746 120.11 76.0874 120.11 76.5085C120.11 76.9297 120.45 77.2711 120.871 77.2711Z" fill="#D6D7D8"/>
<path d="M120.871 83.0449C121.291 83.0449 121.632 82.7035 121.632 82.2824C121.632 81.8612 121.291 81.5198 120.871 81.5198C120.45 81.5198 120.11 81.8612 120.11 82.2824C120.11 82.7035 120.45 83.0449 120.871 83.0449Z" fill="#D6D7D8"/>
<path d="M122.026 25.1098C125.956 25.1098 129.143 21.9163 129.143 17.977C129.143 14.0377 125.956 10.8442 122.026 10.8442C118.095 10.8442 114.908 14.0377 114.908 17.977C114.908 21.9163 118.095 25.1098 122.026 25.1098Z" fill="#FDB4B4"/>
<path d="M125.756 9.65039C126.097 10.3455 125.556 11.2138 124.84 11.5061C124.124 11.7984 123.316 11.6799 122.552 11.5583C121.789 11.4366 120.979 11.3213 120.265 11.6187C119.342 12.0036 118.821 12.9689 118.373 13.8648C117.535 15.5371 116.698 17.2095 115.86 18.8819C115.451 19.699 115.033 20.5528 115.025 21.467C115.01 23.145 116.339 24.486 117.053 26.0036C117.924 27.8513 117.852 30.1156 116.866 31.9043C115.881 33.693 114.007 34.9603 111.983 35.2068C111.451 35.2716 110.887 35.2646 110.408 35.0222C109.93 34.7797 109.564 34.2503 109.653 33.7201C109.826 32.6832 111.407 32.4409 111.698 31.4305C111.849 30.9031 111.581 30.3398 111.219 29.9279C110.857 29.5159 110.399 29.1946 110.054 28.7685C109.258 27.7859 109.205 26.2691 109.931 25.2332C110.357 24.6243 111.016 24.172 111.292 23.4813C111.527 22.8927 111.441 22.2309 111.352 21.6033C111.238 20.7967 111.124 19.9902 111.01 19.1836C110.876 18.2426 110.745 17.2678 111.008 16.3548C111.612 14.2625 113.97 13.2799 115.352 11.5993C115.995 10.8183 116.427 9.87905 117.086 9.11213C118.192 7.82514 119.933 7.11518 121.622 7.26276C123.31 7.41035 124.903 8.4117 125.77 9.87115" fill="#2E2E41"/>
<path d="M124.632 9.78235C124.284 9.90697 124.155 10.3609 124.255 10.7171C124.356 11.0733 124.618 11.3564 124.858 11.6377C127.571 14.82 128.202 19.6334 126.4 23.4097C125.921 24.4142 125.282 25.3595 125.024 26.4423C124.836 27.2302 124.846 28.0945 124.41 28.7765C123.966 29.471 123.086 29.9362 122.999 30.7564C122.943 31.2827 123.263 31.7939 123.692 32.1025C124.121 32.4111 124.645 32.5523 125.161 32.6674C126.501 32.9666 127.871 33.1299 129.243 33.1541C129.691 33.162 130.153 33.1523 130.563 32.9736C130.974 32.795 131.324 32.4074 131.329 31.959C131.332 31.6065 131.13 31.2813 131.104 30.9298C131.026 29.8764 132.441 29.3161 132.716 28.2966C132.897 27.6263 132.54 26.9366 132.16 26.3561C131.78 25.7756 131.346 25.1661 131.355 24.4717C131.364 23.807 131.78 23.2216 131.942 22.5769C132.166 21.6852 131.891 20.7524 131.618 19.8745C131.387 19.128 131.155 18.3816 130.923 17.6352C130.677 16.8417 130.43 16.0482 130.184 15.2547C129.754 13.8695 129.302 12.4441 128.371 11.333C127.44 10.222 125.897 9.49378 124.522 9.9474" fill="#2E2E41"/>
<path d="M129.482 37.4219L128.994 37.2795C130.011 33.7872 127.819 27.27 127.797 27.2046L128.278 27.0403C128.371 27.3137 130.543 33.7767 129.482 37.4219Z" fill="#3F3C57"/>
<path d="M129.238 41.4332C130.411 41.4332 131.361 40.4808 131.361 39.306C131.361 38.1312 130.411 37.1788 129.238 37.1788C128.066 37.1788 127.116 38.1312 127.116 39.306C127.116 40.4808 128.066 41.4332 129.238 41.4332Z" fill="#3F3C57"/>
<path d="M115.291 46.8369H114.004C113.863 46.8369 113.75 46.7229 113.75 46.5823C113.75 46.4416 113.863 46.3276 114.004 46.3276H115.291C115.646 46.3276 115.979 46.1891 116.23 45.9375C116.48 45.686 116.618 45.3516 116.617 44.9963L116.602 37.0503C116.602 35.3241 115.201 33.9201 113.479 33.9201C111.757 33.9201 110.355 35.3241 110.355 37.0498L110.371 44.4873C110.372 45.2129 110.963 45.8077 111.687 45.8133L112.57 45.82C112.711 45.8211 112.823 45.9359 112.822 46.0766C112.822 46.2165 112.708 46.3293 112.568 46.3293H112.566L111.683 46.3225C110.681 46.3148 109.865 45.4919 109.863 44.4883L109.847 37.0503C109.847 35.0433 111.476 33.4109 113.479 33.4109C115.481 33.4109 117.11 35.0433 117.11 37.0498L117.125 44.9953C117.126 45.4869 116.936 45.9493 116.589 46.2972C116.243 46.6452 115.782 46.8369 115.291 46.8369Z" fill="#3F3C57"/>
<path d="M112.569 46.9772C113.066 46.9772 113.469 46.5732 113.469 46.0747C113.469 45.5763 113.066 45.1722 112.569 45.1722C112.071 45.1722 111.668 45.5763 111.668 46.0747C111.668 46.5732 112.071 46.9772 112.569 46.9772Z" fill="#3F3C57"/>
<path d="M114.004 47.4848C114.501 47.4848 114.904 47.0807 114.904 46.5823C114.904 46.0839 114.501 45.6798 114.004 45.6798C113.506 45.6798 113.103 46.0839 113.103 46.5823C113.103 47.0807 113.506 47.4848 114.004 47.4848Z" fill="#3F3C57"/>
<path d="M62.0149 33.6051L61.5271 33.4626C62.5434 29.9703 60.3766 23.3523 60.3545 23.2869L60.9642 23.7475C61.0573 24.0209 63.0759 29.9599 62.0149 33.6051Z" fill="#3F3C57"/>
<path d="M44.8667 34.2256L45.3545 34.0831C44.3382 30.5908 46.5297 24.0737 46.5517 24.0083L46.0299 24.3586C45.9369 24.632 43.8057 30.5804 44.8667 34.2256Z" fill="#3F3C57"/>
<path d="M61.7711 37.6164C62.9434 37.6164 63.8937 36.664 63.8937 35.4892C63.8937 34.3144 62.9434 33.3621 61.7711 33.3621C60.5988 33.3621 59.6484 34.3144 59.6484 35.4892C59.6484 36.664 60.5988 37.6164 61.7711 37.6164Z" fill="#3F3C57"/>
<path d="M47.1298 47.307H45.8425C45.702 47.307 45.5884 47.193 45.5884 47.0524C45.5884 46.9117 45.702 46.7977 45.8425 46.7977H47.1298C47.4846 46.7977 47.8178 46.6592 48.0685 46.4076C48.3188 46.1561 48.4565 45.8217 48.4558 45.4664L48.4401 37.5204C48.4401 35.7942 47.0392 34.3902 45.3172 34.3902C43.5952 34.3902 42.194 35.7942 42.194 37.5199L42.2096 44.9574C42.2111 45.683 42.8014 46.2778 43.5254 46.2834L44.409 46.2901C44.5492 46.2912 44.6621 46.406 44.6611 46.5467C44.6601 46.6866 44.5465 46.7993 44.407 46.7993H44.4051L43.5215 46.7926C42.52 46.7849 41.7034 45.962 41.7014 44.9584L41.6858 37.5204C41.6858 35.5134 43.3148 33.881 45.3172 33.881C47.3193 33.881 48.9483 35.5134 48.9483 37.5199L48.9639 45.4654C48.9649 45.957 48.7746 46.4194 48.428 46.7673C48.0816 47.1153 47.6203 47.307 47.1298 47.307Z" fill="#3F3C57"/>
<path d="M44.4072 47.4472C44.9045 47.4472 45.3077 47.0431 45.3077 46.5447C45.3077 46.0463 44.9045 45.6422 44.4072 45.6422C43.9098 45.6422 43.5066 46.0463 43.5066 46.5447C43.5066 47.0431 43.9098 47.4472 44.4072 47.4472Z" fill="#3F3C57"/>
<path d="M45.8425 47.9549C46.3398 47.9549 46.743 47.5508 46.743 47.0524C46.743 46.554 46.3398 46.1499 45.8425 46.1499C45.3451 46.1499 44.9419 46.554 44.9419 47.0524C44.9419 47.5508 45.3451 47.9549 45.8425 47.9549Z" fill="#3F3C57"/>
</g>
<defs>
<clipPath id="clip0_855_2626">
<rect width="176" height="152" fill="white"/>
</clipPath>
</defs>
</svg>
