<svg width="195" height="144" viewBox="0 0 195 144" fill="none" xmlns="http://www.w3.org/2000/svg">
<path d="M34.0736 4.9372C34.7538 4.9372 35.3052 4.38459 35.3052 3.70291C35.3052 3.02124 34.7538 2.46863 34.0736 2.46863C33.3934 2.46863 32.842 3.02124 32.842 3.70291C32.842 4.38459 33.3934 4.9372 34.0736 4.9372Z" fill="white"/>
<path d="M38.5895 4.9372C39.2697 4.9372 39.8211 4.38459 39.8211 3.70291C39.8211 3.02124 39.2697 2.46863 38.5895 2.46863C37.9093 2.46863 37.3579 3.02124 37.3579 3.70291C37.3579 4.38459 37.9093 4.9372 38.5895 4.9372Z" fill="white"/>
<path d="M43.5158 4.9372C44.1959 4.9372 44.7473 4.38459 44.7473 3.70291C44.7473 3.02124 44.1959 2.46863 43.5158 2.46863C42.8356 2.46863 42.2842 3.02124 42.2842 3.70291C42.2842 4.38459 42.8356 4.9372 43.5158 4.9372Z" fill="white"/>
<path d="M160.502 2.87999H154.781C154.669 2.87975 154.561 2.83629 154.482 2.75916C154.402 2.68203 154.358 2.57752 154.358 2.46856C154.358 2.3596 154.402 2.25509 154.482 2.17796C154.561 2.10082 154.669 2.05737 154.781 2.05713H160.502C160.615 2.05705 160.722 2.10026 160.802 2.17726C160.881 2.25426 160.926 2.35875 160.926 2.46779C160.927 2.57682 160.882 2.68148 160.803 2.75877C160.724 2.83605 160.616 2.87965 160.504 2.87999H160.502Z" fill="white"/>
<path d="M160.502 4.93717H154.781C154.669 4.93681 154.561 4.87162 154.482 4.75593C154.402 4.64023 154.358 4.48347 154.358 4.32003C154.358 4.15659 154.402 3.99982 154.482 3.88412C154.561 3.76842 154.669 3.70324 154.781 3.70288H160.502C160.615 3.70276 160.722 3.76757 160.802 3.88307C160.881 3.99857 160.926 4.15531 160.926 4.31887C160.927 4.48242 160.882 4.6394 160.803 4.75534C160.724 4.87127 160.616 4.93667 160.504 4.93717H160.502Z" fill="white"/>
<path d="M160.502 6.58287H154.782C154.669 6.58287 154.561 6.53952 154.482 6.46236C154.403 6.3852 154.358 6.28056 154.358 6.17144C154.358 6.06232 154.403 5.95767 154.482 5.88051C154.561 5.80336 154.669 5.76001 154.782 5.76001H160.502C160.614 5.75981 160.722 5.80296 160.802 5.87997C160.881 5.95698 160.926 6.06155 160.926 6.17067C160.927 6.27978 160.882 6.38451 160.803 6.46182C160.723 6.53912 160.616 6.58266 160.503 6.58287H160.502Z" fill="white"/>
<path d="M76.2139 125.276C76.3613 125.559 76.5765 125.801 76.8402 125.98C77.1039 126.159 77.4078 126.27 77.7246 126.302C77.8872 126.318 77.8409 126.568 77.6794 126.552C77.3295 126.515 76.994 126.392 76.7022 126.195C76.4104 125.998 76.1713 125.732 76.0056 125.42C75.9875 125.392 75.9808 125.358 75.9867 125.326C75.9927 125.293 76.0109 125.263 76.0376 125.244C76.0653 125.225 76.0993 125.217 76.1323 125.223C76.1654 125.229 76.1947 125.248 76.2139 125.276Z" fill="white"/>
<path d="M63.2052 44.4252H32.1904C31.232 44.4241 30.3131 44.0419 29.6354 43.3622C28.9577 42.6826 28.5765 41.7612 28.5754 40.8001V23.8609C28.5765 22.8998 28.9577 21.9784 29.6354 21.2988C30.3131 20.6193 31.232 20.237 32.1904 20.236H63.2052C64.1636 20.237 65.0824 20.6192 65.7601 21.2988C66.4379 21.9784 66.8191 22.8998 66.8201 23.8609V40.8001C66.8191 41.7612 66.4379 42.6826 65.7602 43.3622C65.0825 44.0419 64.1636 44.4241 63.2052 44.4252Z" fill="#E1E1E1"/>
<path d="M110.556 44.4252H79.541C78.5826 44.4241 77.6637 44.0419 76.986 43.3622C76.3083 42.6826 75.9271 41.7612 75.926 40.8001V23.8609C75.9271 22.8998 76.3083 21.9784 76.986 21.2988C77.6637 20.6193 78.5826 20.237 79.541 20.236H110.556C111.514 20.237 112.433 20.6192 113.111 21.2988C113.788 21.9784 114.17 22.8998 114.171 23.8609V40.8001C114.17 41.7612 113.788 42.6826 113.111 43.3622C112.433 44.0419 111.514 44.4241 110.556 44.4252Z" fill="#566B92"/>
<path d="M157.906 44.4252H126.892C125.933 44.4241 125.014 44.0419 124.337 43.3622C123.659 42.6826 123.278 41.7612 123.277 40.8001V23.8609C123.278 22.8998 123.659 21.9784 124.337 21.2988C125.014 20.6193 125.933 20.237 126.892 20.236H157.906C158.865 20.237 159.784 20.6192 160.461 21.2988C161.139 21.9784 161.52 22.8998 161.521 23.8609V40.8001C161.52 41.7612 161.139 42.6826 160.461 43.3622C159.784 44.0419 158.865 44.4241 157.906 44.4252Z" fill="#E1E1E1"/>
<path d="M63.2052 82.1678H32.1904C31.232 82.1667 30.3131 81.7844 29.6354 81.1048C28.9577 80.4252 28.5765 79.5038 28.5754 78.5427V61.6035C28.5765 60.6424 28.9577 59.721 29.6354 59.0414C30.3131 58.3618 31.232 57.9796 32.1904 57.9785H63.2052C64.1636 57.9796 65.0824 58.3618 65.7601 59.0414C66.4379 59.721 66.8191 60.6424 66.8201 61.6034V78.5426C66.8191 79.5037 66.4379 80.4252 65.7602 81.1048C65.0825 81.7844 64.1636 82.1667 63.2052 82.1678Z" fill="#F2F2F2"/>
<path d="M110.556 82.1678H79.541C78.5826 82.1667 77.6637 81.7844 76.986 81.1048C76.3083 80.4252 75.9271 79.5038 75.926 78.5427V61.6035C75.9271 60.6424 76.3083 59.721 76.986 59.0414C77.6637 58.3618 78.5826 57.9796 79.541 57.9785H110.556C111.514 57.9796 112.433 58.3618 113.111 59.0414C113.788 59.721 114.17 60.6424 114.171 61.6034V78.5426C114.17 79.5037 113.788 80.4252 113.111 81.1048C112.433 81.7844 111.514 82.1667 110.556 82.1678Z" fill="#E1E1E1"/>
<path d="M112.746 85.2849C115.805 85.2849 118.285 82.7979 118.285 79.7301C118.285 76.6623 115.805 74.1753 112.746 74.1753C109.686 74.1753 107.206 76.6623 107.206 79.7301C107.206 82.7979 109.686 85.2849 112.746 85.2849Z" fill="#566B92"/>
<path d="M115.046 79.2636H113.163V77.375C113.163 77.3166 113.151 77.2588 113.129 77.2049C113.107 77.151 113.074 77.102 113.033 77.0607C112.992 77.0194 112.943 76.9867 112.889 76.9644C112.835 76.942 112.778 76.9305 112.719 76.9305C112.661 76.9305 112.604 76.942 112.55 76.9644C112.496 76.9867 112.447 77.0194 112.406 77.0607C112.365 77.102 112.332 77.151 112.31 77.2049C112.288 77.2588 112.276 77.3166 112.276 77.375V79.2636H110.393C110.335 79.2636 110.277 79.2751 110.223 79.2974C110.17 79.3197 110.121 79.3525 110.08 79.3937C110.038 79.435 110.006 79.484 109.983 79.5379C109.961 79.5918 109.95 79.6496 109.95 79.708C109.95 79.7664 109.961 79.8241 109.983 79.8781C110.006 79.932 110.038 79.981 110.08 80.0222C110.121 80.0635 110.17 80.0962 110.223 80.1186C110.277 80.1409 110.335 80.1524 110.393 80.1524H112.276V82.041C112.276 82.0994 112.288 82.1572 112.31 82.2111C112.332 82.265 112.365 82.314 112.406 82.3553C112.447 82.3965 112.496 82.4293 112.55 82.4516C112.604 82.4739 112.661 82.4854 112.719 82.4854C112.837 82.4854 112.95 82.4386 113.033 82.3553C113.116 82.2719 113.163 82.1589 113.163 82.041V80.1524H115.046C115.104 80.1524 115.162 80.1409 115.216 80.1186C115.269 80.0962 115.318 80.0635 115.359 80.0222C115.4 79.981 115.433 79.932 115.455 79.878C115.478 79.8241 115.489 79.7663 115.489 79.708C115.489 79.6496 115.478 79.5918 115.455 79.5379C115.433 79.484 115.4 79.435 115.359 79.3937C115.318 79.3525 115.269 79.3197 115.216 79.2974C115.162 79.2751 115.104 79.2636 115.046 79.2636Z" fill="white"/>
<path d="M160.825 48.5163C163.884 48.5163 166.364 46.0293 166.364 42.9615C166.364 39.8937 163.884 37.4067 160.825 37.4067C157.765 37.4067 155.285 39.8937 155.285 42.9615C155.285 46.0293 157.765 48.5163 160.825 48.5163Z" fill="#566B92"/>
<path d="M163.125 42.495H161.242V40.6064C161.242 40.548 161.23 40.4903 161.208 40.4363C161.186 40.3824 161.153 40.3334 161.112 40.2922C161.071 40.2509 161.022 40.2182 160.968 40.1958C160.914 40.1735 160.857 40.162 160.799 40.162C160.74 40.162 160.683 40.1735 160.629 40.1958C160.575 40.2182 160.526 40.2509 160.485 40.2922C160.444 40.3334 160.411 40.3824 160.389 40.4363C160.367 40.4903 160.355 40.548 160.355 40.6064V42.495H158.472C158.414 42.495 158.356 42.5065 158.302 42.5289C158.249 42.5512 158.2 42.5839 158.159 42.6252C158.117 42.6665 158.085 42.7154 158.063 42.7694C158.04 42.8233 158.029 42.8811 158.029 42.9394C158.029 42.9978 158.04 43.0556 158.063 43.1095C158.085 43.1634 158.117 43.2124 158.159 43.2537C158.2 43.295 158.249 43.3277 158.302 43.35C158.356 43.3724 158.414 43.3839 158.472 43.3839H160.355V45.2725C160.355 45.3308 160.367 45.3886 160.389 45.4425C160.411 45.4965 160.444 45.5455 160.485 45.5867C160.526 45.628 160.575 45.6607 160.629 45.6831C160.683 45.7054 160.74 45.7169 160.799 45.7169C160.916 45.7169 161.029 45.6701 161.112 45.5867C161.195 45.5034 161.242 45.3903 161.242 45.2725V43.3838H163.125C163.183 43.3838 163.241 43.3723 163.295 43.35C163.348 43.3277 163.397 43.2949 163.438 43.2537C163.48 43.2124 163.512 43.1634 163.534 43.1095C163.557 43.0556 163.568 42.9978 163.568 42.9394C163.568 42.8811 163.557 42.8233 163.534 42.7694C163.512 42.7154 163.48 42.6664 163.438 42.6252C163.397 42.5839 163.348 42.5512 163.295 42.5288C163.241 42.5065 163.183 42.495 163.125 42.495Z" fill="white"/>
<path d="M65.3951 48.0292C68.4544 48.0292 70.9344 45.5423 70.9344 42.4745C70.9344 39.4066 68.4544 36.9197 65.3951 36.9197C62.3358 36.9197 59.8557 39.4066 59.8557 42.4745C59.8557 45.5423 62.3358 48.0292 65.3951 48.0292Z" fill="#566B92"/>
<path d="M67.6954 42.008H65.812V40.1193C65.812 40.061 65.8006 40.0032 65.7783 39.9493C65.756 39.8954 65.7234 39.8464 65.6822 39.8051C65.6411 39.7638 65.5922 39.7311 65.5384 39.7088C65.4847 39.6864 65.427 39.6749 65.3688 39.6749C65.3107 39.6749 65.253 39.6864 65.1993 39.7088C65.1455 39.7311 65.0966 39.7638 65.0555 39.8051C65.0143 39.8464 64.9817 39.8954 64.9594 39.9493C64.9371 40.0032 64.9257 40.061 64.9257 40.1193V42.008H63.0423C62.9841 42.008 62.9265 42.0195 62.8727 42.0418C62.8189 42.0641 62.7701 42.0969 62.7289 42.1381C62.6878 42.1794 62.6551 42.2284 62.6329 42.2823C62.6106 42.3362 62.5991 42.394 62.5991 42.4524C62.5991 42.5702 62.6458 42.6833 62.7289 42.7666C62.812 42.85 62.9248 42.8968 63.0423 42.8968H64.9257V44.7854C64.9257 44.8438 64.9371 44.9016 64.9594 44.9555C64.9817 45.0094 65.0143 45.0584 65.0555 45.0997C65.0966 45.1409 65.1455 45.1737 65.1992 45.196C65.253 45.2183 65.3106 45.2298 65.3688 45.2298C65.427 45.2298 65.4847 45.2183 65.5384 45.196C65.5922 45.1737 65.6411 45.1409 65.6822 45.0997C65.7234 45.0584 65.756 45.0094 65.7783 44.9555C65.8006 44.9016 65.812 44.8438 65.812 44.7854V42.8968H67.6954C67.7536 42.8968 67.8112 42.8853 67.865 42.8629C67.9188 42.8406 67.9676 42.8079 68.0088 42.7666C68.0499 42.7253 68.0826 42.6764 68.1048 42.6224C68.1271 42.5685 68.1386 42.5107 68.1386 42.4524C68.1386 42.3345 68.0919 42.2215 68.0088 42.1381C67.9257 42.0548 67.8129 42.008 67.6954 42.008Z" fill="white"/>
<path d="M106.867 34.801C106.968 35.1075 107.001 35.4326 106.963 35.7532C106.925 36.0738 106.818 36.3823 106.649 36.6568C106.479 36.9313 106.252 37.1652 105.982 37.342C105.713 37.5189 105.408 37.6343 105.089 37.6803L102.528 55.2125L98.3264 53.1546L102.552 35.6542C102.511 35.1122 102.669 34.5738 102.997 34.141C103.325 33.7082 103.8 33.411 104.332 33.3059C104.864 33.2007 105.415 33.2948 105.883 33.5704C106.35 33.8459 106.7 34.2838 106.867 34.801Z" fill="#FFB6B6"/>
<path d="M76.2746 90.9521C76.4617 90.6893 76.589 90.3886 76.6476 90.0711C76.7062 89.7537 76.6947 89.4272 76.6138 89.1146C76.533 88.8021 76.3848 88.5112 76.1797 88.2623C75.9746 88.0134 75.7175 87.8127 75.4267 87.6742L77.1547 69.0254L73.5355 70.8857L72.4054 88.8562C72.2057 89.3616 72.1979 89.9229 72.3834 90.4336C72.5689 90.9444 72.9347 91.3692 73.4117 91.6276C73.8886 91.8859 74.4435 91.9598 74.9711 91.8354C75.4988 91.7109 75.9626 91.3966 76.2746 90.9521Z" fill="#FFB6B6"/>
<path d="M78.7473 81.52L94.2785 80.921L95.1745 64.7474H77.2539L78.7473 81.52Z" fill="#FFB6B6"/>
<path d="M75.8647 138.638L78.5188 138.638L79.7812 128.373H75.8643L75.8647 138.638Z" fill="#FFB6B6"/>
<path d="M75.2063 137.325L79.4017 137.074V138.877L83.3904 141.639C83.5875 141.775 83.7358 141.971 83.8139 142.198C83.892 142.425 83.8957 142.671 83.8244 142.901C83.7532 143.13 83.6107 143.33 83.4179 143.473C83.225 143.615 82.9918 143.692 82.7524 143.691H77.7576L76.8966 141.909L76.5605 143.691H74.6772L75.2063 137.325Z" fill="#2F2E41"/>
<path d="M87.6692 138.638L90.3232 138.638L91.5857 128.373H87.6687L87.6692 138.638Z" fill="#FFB6B6"/>
<path d="M78.5316 77.7232C78.5316 77.7232 73.8845 81.4854 76.4037 94.9213C76.0201 94.9671 76.4545 95.7254 76.4545 95.7254L76.818 106.673L77.0989 107.928L76.165 109.952L76.55 112.152L75.363 132.117L79.7477 132.686L83.9438 111.953L84.7429 109.622L85.5444 107.579L85.1121 105.4L85.4667 102.019L87.8856 90.6159L88.4778 110.392L87.6515 112.281L88.1113 114.353L87.0869 115.453L86.682 133.957L91.3574 134.176L95.2258 115.523L94.9259 113.143L95.4405 111.383V107.272L96.322 105.332L98.2437 94.7522C98.2437 94.7522 98.8235 86.4834 94.5937 76.7529L78.5316 77.7232Z" fill="#2F2E41"/>
<path d="M80.4256 51.3057C80.4256 51.3057 74.5562 52.4697 73.5448 57.4893C72.5335 62.5088 71.8828 73.8678 71.8828 73.8678L72.1043 75.4496L77.7819 76.7698L81.4057 60.854L80.4256 51.3057Z" fill="#3F3D56"/>
<path d="M93.8206 53.0001C93.8206 53.0001 94.4155 52.164 97.7473 52.0351C97.8845 52.0298 97.7146 51.7569 97.7146 51.7569L99.317 43.9033L104.657 46.868L103.755 55.1015L94.9808 65.1095L93.8206 53.0001Z" fill="#3F3D56"/>
<path d="M90.4921 76.4129C87.9782 76.413 84.1942 76.1348 78.4977 75.2868C78.1307 75.2313 77.7911 75.0596 77.5284 74.7968C77.2657 74.534 77.0936 74.1939 77.0374 73.826C76.8513 73.6291 76.7303 73.3794 76.6907 73.1111C76.6511 72.8427 76.6949 72.5686 76.8161 72.3261L76.8214 72.3156L76.6923 72.1631C76.4927 71.9279 76.3754 71.6337 76.3585 71.3253C76.3415 71.017 76.4258 70.7115 76.5984 70.4558L74.8342 57.7999C74.6552 56.5431 74.9292 55.2636 75.607 54.1913C76.2849 53.1191 77.322 52.3246 78.5319 51.9507L79.1831 51.7474L81.6459 48.517L81.6945 48.5175L89.601 48.6231L92.1668 51.8904L96.3145 52.8711L96.3252 52.9345L97.2883 58.514C97.7891 61.416 96.6405 62.5576 95.1743 65.1095L95.6047 72.2768L95.7999 72.6325C95.9082 72.8294 95.9445 73.0581 95.9025 73.279C95.8605 73.4999 95.7427 73.6991 95.5697 73.8422C95.7006 74.2171 95.7095 74.6239 95.5952 75.0043L95.4937 75.3404C95.4939 75.3501 95.4669 75.4867 95.2479 75.6535C94.853 75.9542 93.7193 76.4129 90.4921 76.4129Z" fill="#3F3D56"/>
<path d="M87.0109 137.325L91.2064 137.074V138.877L95.1951 141.639C95.3921 141.775 95.5405 141.971 95.6186 142.198C95.6967 142.425 95.7004 142.671 95.6291 142.901C95.5579 143.13 95.4154 143.33 95.2225 143.473C95.0297 143.615 94.7965 143.692 94.5571 143.691H89.5623L88.7013 141.909L88.3652 143.691H86.4819L87.0109 137.325Z" fill="#2F2E41"/>
<path d="M91.4172 41.4773C91.9656 38.0887 89.6708 34.896 86.2917 34.3461C82.9125 33.7963 79.7287 36.0975 79.1804 39.486C78.632 42.8745 80.9268 46.0672 84.3059 46.6171C87.685 47.167 90.8689 44.8658 91.4172 41.4773Z" fill="#FFB6B6"/>
<path d="M88.9234 34.408C86.6516 32.8412 84.651 32.6025 83.0076 33.0469C82.7946 32.7165 82.4958 32.4505 82.1434 32.2774C80.8617 29.0389 76.9612 27.0939 73.6138 28.0394C70.2447 28.991 67.9202 32.7333 68.5541 36.1851C68.9469 38.3248 70.2898 40.1775 70.8299 42.2847C71.8754 46.3636 69.3249 51.0361 65.335 52.351C69.1127 53.1116 73.2711 50.7976 74.6264 47.1806C75.2846 45.4237 75.3243 43.5056 75.408 41.6307C75.43 40.3366 75.5881 39.0484 75.8797 37.7875C76.0244 37.2219 76.2289 36.6733 76.4896 36.1511C77.0576 35.0034 78.0009 34.0856 79.1621 33.5511C79.0581 33.8736 79.0321 34.2163 79.0862 34.5509C79.1404 34.8855 79.2731 35.2023 79.4734 35.4753C78.5874 36.5883 78.1052 37.7918 78.1052 38.5126C76.2647 41.8857 78.8966 44.7831 82.2604 46.6286C83.6021 47.3686 85.1513 47.6394 86.6635 47.3984L86.8042 46.796L86.9949 47.3386L87.6314 49.1579C88.3656 49.5141 89.0935 49.9045 89.8151 50.3292C89.5409 49.0383 89.3192 47.7498 89.1666 46.49C88.9553 44.7752 89.6918 42.2225 90.2231 40.6701C90.5525 39.7133 90.7215 38.7084 90.7234 37.6962V37.652L91.2407 39.3182L93.1239 38.5126C92.7736 36.4974 93.124 34.2096 88.9234 34.408Z" fill="#2F2E41"/>
<path d="M148.107 77.2676H128.678C128.078 77.2669 127.502 77.0274 127.078 76.6017C126.653 76.1759 126.414 75.5987 126.414 74.9966V64.3852C126.414 63.7831 126.653 63.2059 127.078 62.7802C127.502 62.3545 128.078 62.115 128.678 62.1144H148.107C148.708 62.115 149.283 62.3545 149.708 62.7802C150.132 63.2059 150.371 63.7831 150.372 64.3852V74.9966C150.371 75.5987 150.132 76.1759 149.708 76.6017C149.283 77.0274 148.708 77.2669 148.107 77.2676Z" fill="#F2F2F2"/>
<path d="M132.438 129.795C136.087 129.795 139.044 126.829 139.044 123.17C139.044 119.512 136.087 116.546 132.438 116.546C128.79 116.546 125.833 119.512 125.833 123.17C125.833 126.829 128.79 129.795 132.438 129.795Z" fill="#566B92"/>
<path d="M135.182 122.614H132.936V120.362C132.936 120.292 132.922 120.223 132.895 120.159C132.869 120.095 132.83 120.036 132.781 119.987C132.732 119.938 132.674 119.899 132.609 119.872C132.545 119.846 132.477 119.832 132.407 119.832C132.267 119.832 132.133 119.888 132.033 119.987C131.934 120.087 131.879 120.221 131.879 120.362V122.614H129.633C129.493 122.614 129.358 122.67 129.259 122.769C129.16 122.869 129.104 123.004 129.104 123.144C129.104 123.214 129.118 123.283 129.144 123.347C129.171 123.411 129.21 123.47 129.259 123.519C129.308 123.568 129.366 123.607 129.431 123.634C129.495 123.66 129.563 123.674 129.633 123.674H131.879V125.926C131.879 125.996 131.892 126.065 131.919 126.129C131.945 126.194 131.984 126.252 132.034 126.301C132.083 126.35 132.141 126.389 132.205 126.416C132.269 126.443 132.338 126.456 132.407 126.456C132.547 126.456 132.682 126.401 132.781 126.301C132.88 126.202 132.936 126.067 132.936 125.926V123.674H135.182C135.322 123.674 135.456 123.618 135.555 123.519C135.655 123.42 135.71 123.285 135.71 123.144C135.71 123.075 135.697 123.006 135.67 122.941C135.643 122.877 135.605 122.819 135.555 122.769C135.506 122.72 135.448 122.681 135.384 122.655C135.32 122.628 135.251 122.614 135.182 122.614Z" fill="white"/>
<path d="M149.699 133H113.754C112.229 132.998 110.766 132.397 109.687 131.329C108.609 130.26 108.002 128.812 108 127.3V106.048C108.001 105.77 108.113 105.503 108.311 105.307C108.51 105.11 108.779 105 109.06 105C109.341 105 109.61 105.11 109.809 105.307C110.008 105.503 110.12 105.77 110.12 106.048V111.739L151.872 115.499C152.706 115.514 153.501 115.852 154.086 116.441C154.671 117.03 154.999 117.823 155 118.649C155 118.714 154.994 118.778 154.982 118.842L152.878 129.957C152.849 130.773 152.501 131.546 151.909 132.114C151.316 132.681 150.524 132.999 149.699 133ZM110.12 113.848V127.3C110.122 128.255 110.505 129.17 111.186 129.844C111.867 130.519 112.791 130.899 113.754 130.9H149.699C149.98 130.9 150.25 130.789 150.449 130.592C150.647 130.395 150.759 130.128 150.76 129.85C150.76 129.785 150.766 129.72 150.778 129.656L152.877 118.568C152.856 118.304 152.735 118.058 152.54 117.878C152.344 117.699 152.087 117.599 151.82 117.599C151.788 117.599 151.756 117.597 151.724 117.594L110.12 113.848Z" fill="#566B92"/>
<path d="M104 143C105.105 143 106 142.105 106 141C106 139.895 105.105 139 104 139C102.895 139 102 139.895 102 141C102 142.105 102.895 143 104 143Z" fill="#566B92"/>
<path d="M148 143C149.105 143 150 142.105 150 141C150 139.895 149.105 139 148 139C146.895 139 146 139.895 146 141C146 142.105 146.895 143 148 143Z" fill="#566B92"/>
<path d="M149.948 139H103.052C102.773 139 102.505 138.895 102.308 138.707C102.111 138.52 102 138.265 102 138C102 137.735 102.111 137.48 102.308 137.293C102.505 137.105 102.773 137 103.052 137H149.948C150.227 137 150.495 137.105 150.692 137.293C150.889 137.48 151 137.735 151 138C151 138.265 150.889 138.52 150.692 138.707C150.495 138.895 150.227 139 149.948 139Z" fill="#566B92"/>
<path d="M111.971 107H103.029C102.756 106.999 102.494 106.841 102.301 106.559C102.108 106.278 102 105.897 102 105.5C102 105.103 102.108 104.722 102.301 104.441C102.494 104.159 102.756 104.001 103.029 104H111.971C112.244 104.001 112.506 104.159 112.699 104.441C112.892 104.722 113 105.103 113 105.5C113 105.897 112.892 106.278 112.699 106.559C112.506 106.841 112.244 106.999 111.971 107Z" fill="#566B92"/>
<path d="M117.95 139C117.699 139 117.456 138.899 117.266 138.716L110.367 132.07C110.262 131.97 110.176 131.847 110.114 131.709C110.051 131.571 110.014 131.421 110.003 131.267C109.993 131.112 110.009 130.957 110.052 130.81C110.095 130.663 110.164 130.527 110.254 130.41C110.343 130.292 110.453 130.196 110.576 130.126C110.7 130.057 110.834 130.015 110.971 130.003C111.109 129.992 111.247 130.011 111.379 130.059C111.51 130.108 111.631 130.185 111.735 130.286L118.634 136.931C118.797 137.088 118.913 137.296 118.967 137.529C119.02 137.762 119.009 138.007 118.935 138.233C118.86 138.458 118.726 138.652 118.55 138.789C118.374 138.927 118.164 139 117.95 139Z" fill="#566B92"/>
<path d="M121.5 132C121.303 132 121.108 131.973 120.926 131.92C120.744 131.867 120.579 131.79 120.439 131.692C120.3 131.594 120.19 131.478 120.114 131.35C120.039 131.223 120 131.086 120 130.948V114.052C120 113.773 120.158 113.506 120.439 113.308C120.721 113.111 121.102 113 121.5 113C121.898 113 122.279 113.111 122.561 113.308C122.842 113.506 123 113.773 123 114.052V130.948C123 131.086 122.961 131.223 122.886 131.35C122.811 131.478 122.7 131.594 122.561 131.692C122.422 131.789 122.256 131.867 122.074 131.92C121.892 131.973 121.697 132 121.5 132Z" fill="#566B92"/>
<path d="M143.5 132C143.303 132 143.108 131.975 142.926 131.927C142.744 131.879 142.579 131.809 142.439 131.72C142.3 131.631 142.19 131.525 142.114 131.409C142.039 131.293 142 131.169 142 131.043V116.955C142.001 116.701 142.159 116.459 142.441 116.28C142.722 116.101 143.103 116 143.5 116C143.897 116 144.278 116.101 144.559 116.28C144.841 116.459 144.999 116.701 145 116.955V131.043C145 131.169 144.961 131.293 144.886 131.409C144.81 131.525 144.7 131.631 144.561 131.72C144.421 131.809 144.256 131.879 144.074 131.927C143.892 131.975 143.697 132 143.5 132Z" fill="#566B92"/>
</svg>
