<svg width="201" height="133" viewBox="0 0 201 133" fill="none" xmlns="http://www.w3.org/2000/svg">
<g clip-path="url(#clip0_855_2862)">
<path d="M158.117 8.1535V25.9487H157.648V25.7591H0.748841V25.9487H0.279785V8.1535C0.281799 6.10483 1.09785 4.14064 2.54883 2.692C3.99982 1.24337 5.96721 0.428647 8.01921 0.426636H150.378C152.43 0.428647 154.397 1.24337 155.848 2.692C157.299 4.14064 158.115 6.10483 158.117 8.1535Z" fill="#566B92"/>
<path d="M150.378 0.426636H8.01921C5.96721 0.428647 3.99982 1.24337 2.54883 2.692C1.09785 4.14064 0.281799 6.10483 0.279785 8.1535V109.774C0.281799 111.822 1.09785 113.786 2.54883 115.235C3.99982 116.684 5.96721 117.498 8.01921 117.5H150.378C152.43 117.498 154.397 116.684 155.848 115.235C157.299 113.786 158.115 111.822 158.117 109.774V8.1535C158.115 6.10483 157.299 4.14064 155.848 2.692C154.397 1.24337 152.43 0.428647 150.378 0.426636ZM157.648 109.774C157.646 111.698 156.879 113.543 155.516 114.903C154.153 116.264 152.305 117.03 150.378 117.032H8.01921C6.09174 117.03 4.24392 116.264 2.881 114.903C1.51807 113.543 0.751301 111.698 0.748841 109.774V8.1535C0.751301 6.22916 1.51807 4.38435 2.881 3.02363C4.24392 1.66292 6.09174 0.897386 8.01921 0.894931H150.378C152.305 0.897387 154.153 1.66292 155.516 3.02363C156.879 4.38435 157.646 6.22916 157.648 8.1535V109.774Z" fill="#3F3D56"/>
<path d="M32.1757 17.8706C34.7662 17.8706 36.8662 15.774 36.8662 13.1876C36.8662 10.6013 34.7662 8.5047 32.1757 8.5047C29.5851 8.5047 27.4851 10.6013 27.4851 13.1876C27.4851 15.774 29.5851 17.8706 32.1757 17.8706Z" fill="white"/>
<path d="M126.221 17.8706C128.812 17.8706 130.912 15.774 130.912 13.1876C130.912 10.6013 128.812 8.5047 126.221 8.5047C123.631 8.5047 121.531 10.6013 121.531 13.1876C121.531 15.774 123.631 17.8706 126.221 17.8706Z" fill="white"/>
<path d="M45.7277 65.403H17.8244C16.6423 65.4017 15.509 64.9322 14.6731 64.0977C13.8372 63.2632 13.3671 62.1317 13.3657 60.9515V47.7848C13.3671 46.6046 13.8372 45.4731 14.6731 44.6386C15.509 43.8041 16.6423 43.3346 17.8244 43.3333H45.7277C46.9098 43.3346 48.0431 43.8041 48.879 44.6386C49.7149 45.4731 50.1851 46.6046 50.1864 47.7848V60.9515C50.1851 62.1317 49.7149 63.2632 48.879 64.0977C48.0431 64.9322 46.9098 65.4017 45.7277 65.403Z" fill="#566B92"/>
<path d="M93.196 65.403H65.2927C64.1106 65.4017 62.9773 64.9322 62.1414 64.0977C61.3055 63.2632 60.8353 62.1317 60.834 60.9515V47.7848C60.8353 46.6046 61.3055 45.4731 62.1414 44.6386C62.9773 43.8041 64.1106 43.3346 65.2927 43.3333H93.196C94.3781 43.3346 95.5114 43.8041 96.3473 44.6386C97.1832 45.4731 97.6533 46.6046 97.6547 47.7848V60.9515C97.6533 62.1317 97.1832 63.2632 96.3473 64.0977C95.5114 64.9322 94.3781 65.4017 93.196 65.403Z" fill="#566B92"/>
<path d="M93.1958 99.4226H65.2926C64.0746 99.4212 62.907 98.9376 62.0457 98.0778C61.1845 97.218 60.7001 96.0522 60.6987 94.8362V81.6694C60.7001 80.4534 61.1845 79.2876 62.0457 78.4278C62.907 77.568 64.0746 77.0844 65.2926 77.083H93.1958C94.4138 77.0844 95.5814 77.568 96.4426 78.4278C97.3039 79.2876 97.7883 80.4534 97.7896 81.6694V94.8362C97.7883 96.0522 97.3039 97.218 96.4426 98.0778C95.5814 98.9376 94.4138 99.4212 93.1958 99.4226Z" fill="#F2F2F2"/>
<path d="M45.6363 99.4226H17.733C16.515 99.4212 15.3474 98.9376 14.4862 98.0778C13.625 97.218 13.1405 96.0522 13.1392 94.8362V81.6694C13.1405 80.4534 13.625 79.2877 14.4862 78.4278C15.3474 77.568 16.515 77.0844 17.733 77.083H45.6363C46.8542 77.0844 48.0219 77.568 48.8831 78.4278C49.7443 79.2876 50.2287 80.4534 50.2301 81.6694V94.8362C50.2287 96.0522 49.7443 97.218 48.8831 98.0778C48.0219 98.9376 46.8542 99.4212 45.6363 99.4226Z" fill="#F2F2F2"/>
<path d="M140.664 99.4226H112.761C111.543 99.4212 110.375 98.9376 109.514 98.0778C108.653 97.218 108.168 96.0522 108.167 94.8362V81.6694C108.168 80.4534 108.653 79.2876 109.514 78.4278C110.375 77.568 111.543 77.0844 112.761 77.083H140.664C141.882 77.0844 143.05 77.568 143.911 78.4278C144.772 79.2876 145.257 80.4534 145.258 81.6694V94.8362C145.257 96.0522 144.772 97.218 143.911 98.0778C143.05 98.9376 141.882 99.4212 140.664 99.4226Z" fill="#F2F2F2"/>
<path d="M140.664 65.4295H112.761C111.543 65.4281 110.375 64.9444 109.514 64.0846C108.653 63.2248 108.168 62.059 108.167 60.8431V47.6762C108.168 46.4603 108.653 45.2945 109.514 44.4347C110.375 43.5749 111.543 43.0912 112.761 43.0898H140.664C141.882 43.0912 143.05 43.5749 143.911 44.4347C144.772 45.2945 145.257 46.4603 145.258 47.6762V60.8431C145.257 62.059 144.772 63.2248 143.911 64.0846C143.05 64.9444 141.882 65.4281 140.664 65.4295Z" fill="#F2F2F2"/>
<path d="M31.776 61.9222C35.9548 61.9222 39.3423 58.5402 39.3423 54.3682C39.3423 50.1962 35.9548 46.8141 31.776 46.8141C27.5973 46.8141 24.2097 50.1962 24.2097 54.3682C24.2097 58.5402 27.5973 61.9222 31.776 61.9222Z" fill="white"/>
<path d="M31.0261 57.2499C30.8559 57.2502 30.6902 57.1952 30.554 57.0933L30.5455 57.087L28.7674 55.7278C28.6849 55.6648 28.6157 55.5862 28.5637 55.4966C28.5117 55.4069 28.4778 55.3078 28.4642 55.2051C28.4505 55.1024 28.4572 54.998 28.484 54.8978C28.5108 54.7977 28.557 54.7038 28.6202 54.6215C28.6833 54.5393 28.7621 54.4702 28.852 54.4184C28.9418 54.3665 29.0411 54.3328 29.144 54.3193C29.2469 54.3057 29.3515 54.3126 29.4517 54.3394C29.552 54.3662 29.646 54.4125 29.7283 54.4756L30.8801 55.3573L33.6018 51.8136C33.665 51.7314 33.7437 51.6624 33.8335 51.6106C33.9233 51.5587 34.0225 51.5251 34.1253 51.5115C34.2282 51.498 34.3327 51.5048 34.4329 51.5316C34.5332 51.5583 34.6271 51.6046 34.7094 51.6676L34.6925 51.6905L34.7099 51.6679C34.8759 51.7954 34.9846 51.9833 35.012 52.1906C35.0394 52.3979 34.9833 52.6076 34.8561 52.7737L31.6546 56.9421C31.5806 57.0381 31.4854 57.1159 31.3764 57.1692C31.2674 57.2226 31.1475 57.2502 31.0261 57.2499Z" fill="#6C63FF"/>
<path d="M79.3793 61.8137C83.5581 61.8137 86.9456 58.4317 86.9456 54.2597C86.9456 50.0877 83.5581 46.7057 79.3793 46.7057C75.2005 46.7057 71.813 50.0877 71.813 54.2597C71.813 58.4317 75.2005 61.8137 79.3793 61.8137Z" fill="white"/>
<path d="M78.6293 57.1413C78.4591 57.1417 78.2933 57.0867 78.1571 56.9848L78.1487 56.9784L76.3706 55.6192C76.2042 55.492 76.0954 55.3041 76.0679 55.0967C76.0404 54.8893 76.0965 54.6795 76.2239 54.5135C76.3514 54.3475 76.5397 54.2387 76.7474 54.2113C76.9551 54.1839 77.1652 54.2399 77.3315 54.3671L78.4832 55.2488L81.205 51.705C81.2681 51.6228 81.3468 51.5539 81.4367 51.502C81.5265 51.4502 81.6256 51.4166 81.7285 51.403C81.8313 51.3895 81.9359 51.3963 82.0361 51.423C82.1363 51.4498 82.2302 51.496 82.3126 51.5591L82.2956 51.582L82.313 51.5594C82.4791 51.6868 82.5877 51.8748 82.6151 52.0821C82.6425 52.2894 82.5865 52.4991 82.4592 52.6652L79.2578 56.8336C79.1837 56.9296 79.0885 57.0073 78.9795 57.0607C78.8705 57.1141 78.7507 57.1417 78.6293 57.1413Z" fill="#6C63FF"/>
<path d="M130.516 89.9061C130.765 89.6347 130.951 89.3122 131.061 88.9613C131.171 88.6105 131.203 88.2397 131.154 87.8752C131.105 87.5108 130.977 87.1614 130.778 86.8517C130.58 86.5421 130.315 86.2797 130.004 86.0831L125.78 63.5645L120.643 65.4663L126.41 87.0034C126.114 87.5473 126.028 88.1808 126.168 88.7838C126.309 89.3869 126.666 89.9176 127.172 90.2754C127.678 90.6332 128.298 90.7932 128.914 90.7251C129.531 90.6571 130.101 90.3656 130.516 89.9061Z" fill="#FFB6B6"/>
<path d="M89.5243 55.4038C89.537 55.5436 89.5388 55.6843 89.5294 55.8244L99.5179 63.4996L102.351 62.3383L104.665 66.3772L99.8503 68.9195C99.4613 69.1249 99.0161 69.1988 98.5816 69.1301C98.147 69.0613 97.7465 68.8538 97.4401 68.5384L87.456 58.2619C86.9275 58.3809 86.3753 58.3364 85.8727 58.1344C85.3701 57.9324 84.9411 57.5824 84.6426 57.131C84.3441 56.6796 84.1903 56.1482 84.2018 55.6074C84.2132 55.0667 84.3892 54.5422 84.7065 54.1037C85.0238 53.6653 85.4672 53.3337 85.9779 53.153C86.4885 52.9723 87.0422 52.9511 87.5652 53.0923C88.0882 53.2334 88.5558 53.5302 88.9057 53.9431C89.2557 54.356 89.4714 54.8655 89.5243 55.4038Z" fill="#FFB6B6"/>
<path d="M112.86 129.875H109.985L108.617 121.144L112.86 121.144L112.86 129.875Z" fill="#FFB6B6"/>
<path d="M113.593 132.658L104.322 132.657V132.54C104.322 132.067 104.416 131.599 104.597 131.161C104.778 130.724 105.044 130.327 105.379 129.993C105.714 129.658 106.112 129.393 106.55 129.212C106.988 129.031 107.457 128.937 107.931 128.938L113.593 128.938L113.593 132.658Z" fill="#2F2E41"/>
<path d="M123.648 129.875H120.773L119.405 121.144L123.649 121.144L123.648 129.875Z" fill="#FFB6B6"/>
<path d="M124.381 132.658L115.11 132.657V132.54C115.11 132.067 115.204 131.599 115.385 131.161C115.566 130.724 115.832 130.327 116.167 129.993C116.502 129.658 116.9 129.393 117.338 129.212C117.776 129.031 118.245 128.937 118.719 128.938L124.382 128.938L124.381 132.658Z" fill="#2F2E41"/>
<path d="M109.388 128.149C109.125 128.149 108.872 128.052 108.678 127.875C108.484 127.699 108.363 127.457 108.338 127.196L105.833 93.5512L105.951 93.5416L123.194 92.1266L123.198 92.249L124.569 127.102C124.574 127.244 124.551 127.385 124.5 127.517C124.45 127.65 124.373 127.77 124.274 127.872C124.176 127.974 124.058 128.056 123.927 128.111C123.797 128.166 123.656 128.195 123.514 128.195H120.133C119.881 128.196 119.637 128.107 119.445 127.942C119.254 127.778 119.128 127.551 119.09 127.302L114.499 99.1465C114.495 99.1174 114.479 99.0911 114.456 99.0728C114.433 99.0544 114.404 99.0454 114.375 99.0476C114.345 99.0497 114.318 99.0628 114.298 99.0843C114.278 99.1057 114.266 99.134 114.266 99.1634L114.058 126.962C114.056 127.231 113.951 127.488 113.765 127.682C113.579 127.877 113.327 127.993 113.058 128.007L109.444 128.148C109.425 128.149 109.406 128.149 109.388 128.149Z" fill="#2F2E41"/>
<path d="M112.331 51.0318C115.512 51.0318 118.091 48.4571 118.091 45.2809C118.091 42.1048 115.512 39.53 112.331 39.53C109.15 39.53 106.571 42.1048 106.571 45.2809C106.571 48.4571 109.15 51.0318 112.331 51.0318Z" fill="#FFB6B6"/>
<path d="M113.446 95.697C110.928 95.6895 108.423 95.3476 105.995 94.6803C105.762 94.6124 105.559 94.4662 105.42 94.2664C105.282 94.0665 105.217 93.8251 105.236 93.583C106.012 81.9474 106.194 72.9179 104.564 66.6703C103.869 64.0076 104.184 61.2032 105.429 58.9763C107.303 55.6249 110.747 53.5851 114.421 53.6556C114.597 53.6589 114.774 53.6651 114.953 53.6743C120.528 53.9609 124.873 58.9966 124.638 64.8998L123.516 93.0369C123.512 93.2422 123.447 93.4417 123.33 93.6102C123.212 93.7787 123.047 93.9087 122.856 93.9838C119.848 95.1137 116.66 95.694 113.446 95.697Z" fill="#3F3D56"/>
<path d="M105.511 68.8307L101.197 63.5519C101.074 63.4017 100.985 63.2269 100.936 63.0393C100.887 62.8517 100.879 62.6558 100.913 62.4649C100.947 62.274 101.021 62.0925 101.131 61.933C101.242 61.7734 101.385 61.6394 101.552 61.5402L107.397 58.0631C108.17 57.4402 109.159 57.1489 110.147 57.253C111.135 57.3572 112.041 57.8482 112.667 58.6186C113.293 59.389 113.588 60.3757 113.486 61.3624C113.384 62.3492 112.895 63.2553 112.125 63.8822L107.557 68.8867C107.426 69.0299 107.266 69.1434 107.087 69.2192C106.908 69.2951 106.715 69.3316 106.521 69.3263C106.327 69.3209 106.136 69.2739 105.962 69.1884C105.788 69.1029 105.634 68.9809 105.511 68.8307Z" fill="#3F3D56"/>
<path d="M119.085 68.1683C118.907 68.0891 118.749 67.9727 118.621 67.827C118.493 67.6813 118.398 67.5097 118.343 67.3239L116.4 60.8368C115.979 59.9385 115.931 58.91 116.268 57.9767C116.605 57.0434 117.299 56.2816 118.197 55.8584C119.096 55.4352 120.126 55.3852 121.062 55.7192C121.997 56.0533 122.762 56.7441 123.188 57.6403L126.945 63.304C127.052 63.4656 127.123 63.6484 127.153 63.84C127.183 64.0315 127.171 64.2272 127.119 64.4138C127.066 64.6005 126.974 64.7736 126.848 64.9214C126.723 65.0693 126.567 65.1883 126.391 65.2705L120.21 68.159C120.034 68.2413 119.843 68.2847 119.648 68.2863C119.454 68.2879 119.262 68.2477 119.085 68.1683Z" fill="#3F3D56"/>
<path d="M115.177 49.9997L110.907 49.024C110.467 48.9233 109.938 48.7313 109.877 48.2844C109.795 47.6837 110.66 47.2653 110.581 46.6644C110.503 46.0824 109.715 46.0074 109.152 45.8355C108.628 45.6521 108.197 45.2725 107.948 44.7769C107.7 44.2813 107.655 43.7087 107.822 43.1803C107.213 44.0363 105.823 44.1096 105.034 43.4161C104.245 42.7225 104.094 41.4642 104.568 40.5272C104.824 40.067 105.185 39.6736 105.622 39.379C106.059 39.0844 106.559 38.897 107.083 38.8319C108.135 38.7128 109.198 38.9107 110.137 39.4003C110.199 38.7369 111.029 38.468 111.697 38.462C113.083 38.4782 114.43 38.9254 115.55 39.7415C116.67 40.5576 117.507 41.702 117.945 43.0153C118.764 45.65 118.216 48.538 115.925 50.0796L115.177 49.9997Z" fill="#2F2E41"/>
</g>
<defs>
<clipPath id="clip0_855_2862">
<rect width="200.08" height="132.293" fill="white" transform="translate(0.279785 0.426636)"/>
</clipPath>
</defs>
</svg>
