<svg width="169" height="141" viewBox="0 0 169 141" fill="none" xmlns="http://www.w3.org/2000/svg">
<g clip-path="url(#clip0_855_2742)">
<path d="M79.3798 141C116.241 141 146.123 139.475 146.123 137.594C146.123 135.713 116.241 134.188 79.3798 134.188C42.5185 134.188 12.6365 135.713 12.6365 137.594C12.6365 139.475 42.5185 141 79.3798 141Z" fill="#F2F2F2"/>
<path d="M118.374 32.7238H117.616V11.9964C117.616 8.81478 116.349 5.76345 114.095 3.51368C111.84 1.26391 108.782 3.51278e-06 105.594 0H61.5877C58.3993 -6.02186e-06 55.3415 1.26389 53.087 3.51365C50.8325 5.76341 49.5659 8.81474 49.5659 11.9964V125.708C49.5659 128.89 50.8325 131.941 53.087 134.191C55.3415 136.441 58.3993 137.705 61.5876 137.705H105.594C108.782 137.705 111.84 136.441 114.095 134.191C116.349 131.941 117.616 128.89 117.616 125.708V47.4778H118.374L118.374 32.7238Z" fill="#3F3D56"/>
<path d="M115.057 12.0801V125.625C115.057 128.001 114.111 130.279 112.427 131.96C110.744 133.64 108.46 134.584 106.079 134.584H61.8614C59.4803 134.584 57.1967 133.64 55.513 131.96C53.8293 130.279 52.8833 128.001 52.8833 125.625V12.0801C52.8833 9.704 53.8293 7.42522 55.513 5.74505C57.1967 4.06488 59.4803 3.12096 61.8614 3.12091H67.2255C66.9619 3.76725 66.8616 4.46833 66.9332 5.16247C67.0049 5.85661 67.2464 6.52254 67.6365 7.10169C68.0266 7.68083 68.5533 8.15545 69.1704 8.48378C69.7874 8.8121 70.4759 8.98409 71.1751 8.9846H96.3859C97.0852 8.98408 97.7736 8.81209 98.3907 8.48376C99.0077 8.15543 99.5345 7.68082 99.9246 7.10168C100.315 6.52253 100.556 5.8566 100.628 5.16247C100.699 4.46833 100.599 3.76725 100.336 3.12091H106.079C108.46 3.12095 110.744 4.06488 112.427 5.74505C114.111 7.42522 115.057 9.704 115.057 12.0801Z" fill="white"/>
<path d="M100.812 61.04C100.519 61.1933 100.22 61.3383 99.9155 61.4752C99.6387 61.6001 99.3574 61.7174 99.0718 61.8271C98.9674 61.8669 98.8613 61.9066 98.7552 61.9463C97.9156 62.2502 97.0534 62.4874 96.1764 62.6559C95.7422 62.741 95.3023 62.8079 94.8567 62.8564C94.4889 62.8981 94.1172 62.9277 93.7418 62.9454C93.4744 62.9586 93.2071 62.9643 92.9378 62.9643C91.8716 62.9647 90.8076 62.8653 89.76 62.6672C89.4868 62.618 89.2196 62.5594 88.9522 62.495C87.6589 62.1858 86.407 61.7247 85.2225 61.1214C85.1163 61.0684 85.0101 61.0116 84.9039 60.9567C84.7466 60.8735 84.593 60.7864 84.4395 60.6956C84.5133 60.5935 84.593 60.4932 84.6745 60.3948C85.5618 59.2976 86.6708 58.3992 87.9292 57.7583C89.1877 57.1174 90.5674 56.7483 91.9783 56.6752C93.3893 56.602 94.7999 56.8263 96.1181 57.3335C97.4364 57.8408 98.6327 58.6195 99.6292 59.619C99.9751 59.9653 100.296 60.3359 100.589 60.7278C100.666 60.83 100.74 60.934 100.812 61.04Z" fill="#6C63FF"/>
<path d="M93.316 52.7284C97.9142 52.7284 101.642 49.0087 101.642 44.4201C101.642 39.8316 97.9142 36.1119 93.316 36.1119C88.7178 36.1119 84.9902 39.8316 84.9902 44.4201C84.9902 49.0087 88.7178 52.7284 93.316 52.7284Z" fill="#2F2E41"/>
<path d="M95.5306 52.7402C98.5335 51.1021 99.6371 47.3449 97.9956 44.3483C96.354 41.3517 92.5889 40.2504 89.586 41.8885C86.583 43.5266 85.4794 47.2837 87.121 50.2803C88.7625 53.277 92.5276 54.3783 95.5306 52.7402Z" fill="#A0616A"/>
<path d="M99.0695 43.4248C97.6535 44.3987 95.9728 44.9171 94.253 44.9102C94.8664 45.3347 95.5648 45.6214 96.3 45.7506C94.0135 46.24 91.6503 46.2533 89.3583 45.7895C88.8489 45.708 88.3573 45.5395 87.9052 45.2915C87.6799 45.1659 87.4836 44.9944 87.329 44.7882C87.1745 44.582 87.0652 44.3456 87.0082 44.0944C86.8559 43.2262 87.5339 42.4374 88.2384 41.9058C89.3171 41.1043 90.5609 40.5521 91.8797 40.2891C93.1985 40.0261 94.5594 40.0589 95.8639 40.3852C96.7158 40.6049 97.5691 40.9762 98.1224 41.6588C98.6757 42.3414 98.8396 43.3938 98.3124 44.0968L99.0695 43.4248Z" fill="#2F2E41"/>
<path d="M92.9376 28.9061C89.2159 28.9055 85.5961 30.1193 82.6299 32.3623C79.6637 34.6053 77.5138 37.7546 76.5078 41.3302C75.5017 44.9058 75.6948 48.7115 77.0576 52.1674C78.4204 55.6233 80.8781 58.5398 84.0562 60.4724L84.1662 60.5367C84.2572 60.5916 84.3482 60.6446 84.4392 60.6956C84.5928 60.7865 84.7464 60.8735 84.9037 60.9568C85.0099 61.0116 85.1161 61.0684 85.2223 61.1214C86.4068 61.7247 87.6587 62.1858 88.952 62.495C89.2194 62.5594 89.4866 62.618 89.7598 62.6672C90.8074 62.8653 91.8714 62.9647 92.9376 62.9643C93.2069 62.9643 93.4742 62.9586 93.7416 62.9454C94.117 62.9283 94.4887 62.8987 94.8565 62.8564C95.3021 62.8073 95.742 62.7404 96.1762 62.6559C97.0532 62.4874 97.9154 62.2502 98.7549 61.9463C98.8611 61.9066 98.9672 61.8669 99.0716 61.8271C99.3579 61.7174 99.6391 61.6001 99.9153 61.4752C100.219 61.339 100.518 61.1939 100.812 61.04C103.764 59.4974 106.204 57.1331 107.835 54.234C107.843 54.2189 107.853 54.2038 107.86 54.1886C108.731 52.6298 109.348 50.9432 109.69 49.1915C110.17 46.7256 110.097 44.1843 109.477 41.7497C108.857 39.3151 107.706 37.0473 106.105 35.1088C104.504 33.1703 102.493 31.609 100.217 30.5366C97.9407 29.4643 95.4549 28.9075 92.9376 28.9061ZM107.549 53.9673C107.534 53.9937 107.521 54.0202 107.506 54.0448C105.906 56.9011 103.501 59.2252 100.588 60.7278C100.298 60.8792 100.003 61.0211 99.703 61.1535C99.4546 61.2652 99.2005 61.3711 98.9445 61.4695C98.8364 61.5111 98.7265 61.5528 98.6165 61.5906C97.8912 61.855 97.1479 62.0674 96.3924 62.2264C95.8319 62.3455 95.2654 62.4345 94.6953 62.4932C94.3445 62.531 93.9881 62.5575 93.6297 62.5707C93.4002 62.5802 93.169 62.5859 92.9376 62.5859C91.9057 62.5871 90.8761 62.4914 89.8622 62.3002C89.2453 62.1866 88.6356 62.0375 88.0361 61.8536C87.1229 61.5721 86.2355 61.2132 85.3835 60.7808C85.2849 60.7297 85.1863 60.6786 85.0895 60.6256C84.9511 60.5518 84.8109 60.4762 84.6743 60.3948C84.5719 60.338 84.4695 60.2775 84.3691 60.2169C84.3103 60.1829 84.2515 60.1469 84.1927 60.111C81.4063 58.4034 79.1836 55.917 77.8003 52.9603C76.4171 50.0037 75.9341 46.7068 76.4115 43.4787C76.8888 40.2506 78.3054 37.2334 80.4854 34.8014C82.6655 32.3694 85.5131 30.6297 88.675 29.798C91.8369 28.9662 95.174 29.0792 98.2721 30.1228C101.37 31.1664 104.093 33.0947 106.103 35.6685C108.113 38.2423 109.322 41.3484 109.579 44.6013C109.836 47.8542 109.13 51.1109 107.549 53.9673Z" fill="#3F3D56"/>
<path d="M89.0998 36.2265C89.0102 35.2865 87.8562 34.7078 86.9538 34.9918C86.0513 35.2757 85.4588 36.1825 85.2798 37.1096C85.1936 37.5001 85.1855 37.9037 85.2559 38.2973C85.3264 38.6909 85.474 39.0668 85.6903 39.4033C86.1465 40.0584 86.9847 40.4673 87.7666 40.301C88.6591 40.1111 89.2774 39.2415 89.4543 38.3481C89.6313 37.4547 89.4556 36.5337 89.2802 35.64L89.0998 36.2265Z" fill="#2F2E41"/>
<path d="M101.8 37.5694C101.711 36.6294 100.557 36.0507 99.6544 36.3347C98.752 36.6186 98.1595 37.5253 97.9804 38.4525C97.8943 38.843 97.8862 39.2466 97.9566 39.6402C98.0271 40.0338 98.1747 40.4097 98.391 40.7462C98.8471 41.4013 99.6854 41.8102 100.467 41.6439C101.36 41.454 101.978 40.5844 102.155 39.691C102.332 38.7976 102.156 37.8766 101.981 36.9829L101.8 37.5694Z" fill="#2F2E41"/>
<path d="M63.441 52.7408C63.323 52.7407 63.2062 52.716 63.0983 52.6683C62.9903 52.6206 62.8935 52.5509 62.8141 52.4638L53.4051 42.2211C53.2984 42.1051 53.1686 42.0125 53.0242 41.949C52.8797 41.8856 52.7237 41.8528 52.5659 41.8526H2.84594C2.09141 41.8518 1.36802 41.5523 0.83449 41.0199C0.300957 40.4875 0.000847144 39.7656 0 39.0127V21.1203C0.000846643 20.3673 0.300957 19.6455 0.83449 19.1131C1.36802 18.5807 2.09141 18.2812 2.84594 18.2803H67.2618C68.0164 18.2812 68.7397 18.5807 69.2733 19.1131C69.8068 19.6455 70.1069 20.3673 70.1078 21.1203V39.0127C70.1069 39.7656 69.8068 40.4875 69.2733 41.0199C68.7397 41.5523 68.0164 41.8518 67.2618 41.8526H65.4356C65.1338 41.853 64.8443 41.9728 64.6309 42.1858C64.4174 42.3988 64.2974 42.6876 64.2971 42.9888V51.8881C64.2978 52.0599 64.2461 52.2278 64.1489 52.3696C64.0517 52.5115 63.9136 52.6204 63.7529 52.682C63.6535 52.7208 63.5477 52.7407 63.441 52.7408Z" fill="white"/>
<path d="M63.441 52.7408C63.323 52.7407 63.2062 52.716 63.0983 52.6683C62.9903 52.6206 62.8935 52.5509 62.8141 52.4638L53.4051 42.2211C53.2984 42.1051 53.1686 42.0125 53.0242 41.949C52.8797 41.8856 52.7237 41.8528 52.5659 41.8526H2.84594C2.09141 41.8518 1.36802 41.5523 0.83449 41.0199C0.300957 40.4875 0.000847144 39.7656 0 39.0127V21.1203C0.000846643 20.3673 0.300957 19.6455 0.83449 19.1131C1.36802 18.5807 2.09141 18.2812 2.84594 18.2803H67.2618C68.0164 18.2812 68.7397 18.5807 69.2733 19.1131C69.8068 19.6455 70.1069 20.3673 70.1078 21.1203V39.0127C70.1069 39.7656 69.8068 40.4875 69.2733 41.0199C68.7397 41.5523 68.0164 41.8518 67.2618 41.8526H65.4356C65.1338 41.853 64.8443 41.9728 64.6309 42.1858C64.4174 42.3988 64.2974 42.6876 64.2971 42.9888V51.8881C64.2978 52.0599 64.2461 52.2278 64.1489 52.3696C64.0517 52.5115 63.9136 52.6204 63.7529 52.682C63.6535 52.7208 63.5477 52.7407 63.441 52.7408ZM2.84594 18.6588C2.19195 18.6595 1.56496 18.9191 1.10252 19.3805C0.640082 19.842 0.379962 20.4677 0.379223 21.1203V39.0127C0.379963 39.6653 0.640085 40.2909 1.10252 40.7524C1.56496 41.2139 2.19195 41.4735 2.84594 41.4742H52.5659C52.7762 41.4744 52.9843 41.5182 53.1768 41.6027C53.3694 41.6873 53.5423 41.8107 53.6846 41.9653L63.0936 52.208C63.1582 52.2783 63.2426 52.3275 63.3357 52.3492C63.4288 52.3708 63.5262 52.3639 63.6153 52.3293C63.7044 52.2948 63.781 52.2341 63.835 52.1554C63.8889 52.0766 63.9178 51.9835 63.9178 51.8881V42.9888C63.9183 42.5873 64.0783 42.2023 64.3629 41.9183C64.6474 41.6344 65.0332 41.4746 65.4356 41.4742H67.2618C67.9158 41.4735 68.5428 41.2139 69.0052 40.7524C69.4677 40.2909 69.7278 39.6653 69.7285 39.0127V21.1203C69.7278 20.4677 69.4677 19.842 69.0052 19.3805C68.5428 18.9191 67.9158 18.6595 67.2618 18.6588H2.84594Z" fill="#3F3D56"/>
<path d="M6.98078 26.1732C8.35614 26.1732 9.47109 25.0606 9.47109 23.6881C9.47109 22.3157 8.35614 21.2031 6.98078 21.2031C5.60543 21.2031 4.49048 22.3157 4.49048 23.6881C4.49048 25.0606 5.60543 26.1732 6.98078 26.1732Z" fill="#6C63FF"/>
<path d="M64.3566 37.4388H5.75138C5.57683 37.439 5.40395 37.4049 5.24263 37.3384C5.08131 37.2719 4.9347 37.1743 4.8112 37.0512C4.6877 36.9281 4.58973 36.7819 4.52288 36.621C4.45604 36.4601 4.42163 36.2876 4.42163 36.1135C4.42163 35.9393 4.45604 35.7668 4.52288 35.6059C4.58973 35.445 4.6877 35.2988 4.8112 35.1757C4.9347 35.0526 5.08131 34.955 5.24263 34.8885C5.40395 34.822 5.57683 34.7879 5.75138 34.7881H64.3566C64.7085 34.7885 65.046 34.9283 65.2947 35.1768C65.5434 35.4253 65.6832 35.7622 65.6832 36.1135C65.6832 36.4647 65.5434 36.8016 65.2947 37.0501C65.046 37.2986 64.7085 37.4384 64.3566 37.4388Z" fill="#E6E6E6"/>
<path d="M45.2642 31.806H5.75138C5.57683 31.8062 5.40395 31.7721 5.24263 31.7056C5.08131 31.6391 4.9347 31.5415 4.8112 31.4184C4.6877 31.2953 4.58973 31.1491 4.52288 30.9882C4.45604 30.8273 4.42163 30.6548 4.42163 30.4806C4.42163 30.3065 4.45604 30.134 4.52288 29.9731C4.58973 29.8122 4.6877 29.666 4.8112 29.5429C4.9347 29.4198 5.08131 29.3222 5.24263 29.2557C5.40395 29.1892 5.57683 29.1551 5.75138 29.1553H45.2642C45.6165 29.1553 45.9543 29.2949 46.2034 29.5435C46.4525 29.792 46.5924 30.1291 46.5924 30.4806C46.5924 30.8322 46.4525 31.1693 46.2034 31.4178C45.9543 31.6664 45.6165 31.806 45.2642 31.806Z" fill="#E6E6E6"/>
<path d="M105.247 113.419C105.087 113.358 104.948 113.249 104.851 113.107C104.754 112.965 104.702 112.797 104.703 112.625V103.726C104.703 103.425 104.583 103.136 104.369 102.923C104.156 102.71 103.866 102.59 103.564 102.59H101.738C100.984 102.589 100.26 102.289 99.7268 101.757C99.1933 101.225 98.8932 100.503 98.8923 99.7498V81.8575C98.8932 81.1045 99.1933 80.3827 99.7268 79.8502C100.26 79.3178 100.984 79.0184 101.738 79.0175H166.154C166.909 79.0184 167.632 79.3178 168.166 79.8502C168.699 80.3827 168.999 81.1045 169 81.8575V99.7498C168.999 100.503 168.699 101.225 168.166 101.757C167.632 102.289 166.909 102.589 166.154 102.59H116.434C116.276 102.59 116.12 102.623 115.976 102.686C115.831 102.75 115.702 102.842 115.595 102.958L106.186 113.201C106.107 113.288 106.01 113.358 105.902 113.405C105.794 113.453 105.677 113.478 105.559 113.478C105.452 113.478 105.347 113.458 105.247 113.419Z" fill="white"/>
<path d="M105.247 113.419C105.087 113.358 104.948 113.249 104.851 113.107C104.754 112.965 104.702 112.797 104.703 112.625V103.726C104.703 103.425 104.583 103.136 104.369 102.923C104.156 102.71 103.866 102.59 103.564 102.59H101.738C100.984 102.589 100.26 102.289 99.7268 101.757C99.1933 101.225 98.8932 100.503 98.8923 99.7498V81.8575C98.8932 81.1045 99.1933 80.3827 99.7268 79.8502C100.26 79.3178 100.984 79.0184 101.738 79.0175H166.154C166.909 79.0184 167.632 79.3178 168.166 79.8502C168.699 80.3827 168.999 81.1045 169 81.8575V99.7498C168.999 100.503 168.699 101.225 168.166 101.757C167.632 102.289 166.909 102.589 166.154 102.59H116.434C116.276 102.59 116.12 102.623 115.976 102.686C115.831 102.75 115.702 102.842 115.595 102.958L106.186 113.201C106.107 113.288 106.01 113.358 105.902 113.405C105.794 113.453 105.677 113.478 105.559 113.478C105.452 113.478 105.347 113.458 105.247 113.419ZM101.738 79.3959C101.084 79.3967 100.457 79.6563 99.9948 80.1177C99.5324 80.5792 99.2723 81.2048 99.2715 81.8575V99.7499C99.2723 100.402 99.5324 101.028 99.9948 101.49C100.457 101.951 101.084 102.211 101.738 102.211H103.564C103.967 102.212 104.353 102.372 104.637 102.656C104.922 102.939 105.082 103.324 105.082 103.726V112.625C105.082 112.721 105.111 112.814 105.165 112.893C105.219 112.971 105.296 113.032 105.385 113.067C105.474 113.101 105.571 113.108 105.664 113.086C105.758 113.065 105.842 113.016 105.907 112.945L115.315 102.703C115.458 102.548 115.631 102.424 115.823 102.34C116.016 102.255 116.224 102.212 116.434 102.211H166.154C166.808 102.211 167.435 101.951 167.898 101.49C168.36 101.028 168.62 100.402 168.621 99.7498V81.8575C168.62 81.2048 168.36 80.5792 167.898 80.1177C167.435 79.6563 166.808 79.3967 166.154 79.3959H101.738Z" fill="#3F3D56"/>
<path d="M85.1693 118.96C82.5277 120.648 79.4672 121.568 76.3309 121.618C73.1945 121.668 70.1062 120.845 67.4121 119.242C67.886 118.361 68.4866 117.555 69.1945 116.848C70.2869 115.753 71.6164 114.922 73.0807 114.42C74.5451 113.917 76.1054 113.756 77.6418 113.949C79.1782 114.142 80.6498 114.684 81.9436 115.534C83.2373 116.383 84.3187 117.517 85.1048 118.848C85.1256 118.884 85.1484 118.922 85.1693 118.96Z" fill="#6C63FF"/>
<path d="M75.5493 109.912C80.1781 109.912 83.9305 106.167 83.9305 101.548C83.9305 96.9291 80.1781 93.1846 75.5493 93.1846C70.9206 93.1846 67.1682 96.9291 67.1682 101.548C67.1682 106.167 70.9206 109.912 75.5493 109.912Z" fill="#2F2E41"/>
<path d="M81.7856 107.447C83.4381 104.431 82.3271 100.649 79.3042 98.9995C76.2813 97.3506 72.4912 98.4592 70.8387 101.476C69.1863 104.492 70.2972 108.274 73.3201 109.923C76.343 111.572 80.1331 110.464 81.7856 107.447Z" fill="#FFB8B8"/>
<path d="M69.7578 100.546C71.1833 101.527 72.8751 102.048 74.6063 102.041C73.9888 102.469 73.2858 102.757 72.5457 102.887C74.8475 103.38 77.2264 103.393 79.5335 102.927C80.0464 102.844 80.5412 102.675 80.9964 102.425C81.2232 102.299 81.4208 102.126 81.5763 101.919C81.7319 101.711 81.8419 101.473 81.8993 101.22C82.0526 100.346 81.3701 99.5521 80.6609 99.017C79.575 98.2102 78.323 97.6543 76.9954 97.3896C75.6679 97.1248 74.2979 97.1579 72.9847 97.4863C72.1272 97.7075 71.2682 98.0812 70.7113 98.7684C70.1543 99.4556 69.9893 100.515 70.52 101.223L69.7578 100.546Z" fill="#2F2E41"/>
<path d="M76.0623 121.809C71.9577 121.808 67.9911 120.33 64.8902 117.646C61.7893 114.963 59.762 111.253 59.1801 107.199C58.5983 103.144 59.5009 99.0161 61.7224 95.5719C63.9439 92.1276 67.3353 89.5981 71.2746 88.4474C75.2139 87.2966 79.437 87.6017 83.1691 89.3067C86.9012 91.0118 89.8921 94.0024 91.5933 97.73C93.2944 101.458 93.5917 105.672 92.4306 109.601C91.2695 113.53 88.7279 116.909 85.2719 119.119C82.5236 120.878 79.327 121.811 76.0623 121.809ZM76.0623 88.1295C72.7617 88.1292 69.5352 89.1056 66.7907 90.9353C64.0462 92.7649 61.9071 95.3656 60.6439 98.4085C59.3806 101.451 59.0501 104.8 59.6939 108.03C60.3377 111.26 61.9271 114.228 64.261 116.557C66.5948 118.886 69.5684 120.472 72.8056 121.114C76.0428 121.757 79.3982 121.427 82.4475 120.166C85.4967 118.906 88.1029 116.771 89.9365 114.032C91.77 111.294 92.7485 108.074 92.7481 104.78C92.7431 100.366 90.9836 96.1334 87.8555 93.0119C84.7273 89.8904 80.4861 88.1345 76.0623 88.1295Z" fill="#3F3D56"/>
<path d="M106.906 86.7212C108.281 86.7212 109.396 85.6086 109.396 84.2361C109.396 82.8636 108.281 81.751 106.906 81.751C105.531 81.751 104.416 82.8636 104.416 84.2361C104.416 85.6086 105.531 86.7212 106.906 86.7212Z" fill="#6C63FF"/>
<path d="M164.282 97.9868H105.677C105.502 97.987 105.329 97.9529 105.168 97.8864C105.007 97.8198 104.86 97.7223 104.736 97.5992C104.613 97.4761 104.515 97.3299 104.448 97.169C104.381 97.0081 104.347 96.8356 104.347 96.6614C104.347 96.4872 104.381 96.3148 104.448 96.1539C104.515 95.993 104.613 95.8468 104.736 95.7237C104.86 95.6006 105.007 95.503 105.168 95.4365C105.329 95.37 105.502 95.3359 105.677 95.3361H164.282C164.634 95.3361 164.972 95.4757 165.221 95.7242C165.47 95.9728 165.61 96.3099 165.61 96.6614C165.61 97.0129 165.47 97.35 165.221 97.5986C164.972 97.8471 164.634 97.9868 164.282 97.9868Z" fill="#E6E6E6"/>
<path d="M145.19 92.354H105.677C105.502 92.3542 105.329 92.3201 105.168 92.2536C105.007 92.187 104.86 92.0894 104.736 91.9663C104.613 91.8433 104.515 91.6971 104.448 91.5362C104.381 91.3753 104.347 91.2028 104.347 91.0286C104.347 90.8544 104.381 90.682 104.448 90.5211C104.515 90.3601 104.613 90.214 104.736 90.0909C104.86 89.9678 105.007 89.8702 105.168 89.8037C105.329 89.7372 105.502 89.703 105.677 89.7032H145.19C145.541 89.7037 145.879 89.8435 146.128 90.092C146.376 90.3405 146.516 90.6774 146.516 91.0286C146.516 91.3798 146.376 91.7167 146.128 91.9652C145.879 92.2137 145.541 92.3536 145.19 92.354Z" fill="#E6E6E6"/>
<path d="M105.167 115.113C107.733 115.113 109.813 114.883 109.813 114.599C109.813 114.314 107.733 114.084 105.167 114.084C102.601 114.084 100.521 114.314 100.521 114.599C100.521 114.883 102.601 115.113 105.167 115.113Z" fill="#F2F2F2"/>
<path d="M63.6418 54.5652C66.2079 54.5652 68.2881 54.3348 68.2881 54.0506C68.2881 53.7664 66.2079 53.536 63.6418 53.536C61.0758 53.536 58.9956 53.7664 58.9956 54.0506C58.9956 54.3348 61.0758 54.5652 63.6418 54.5652Z" fill="#F2F2F2"/>
</g>
<defs>
<clipPath id="clip0_855_2742">
<rect width="169" height="141" fill="white"/>
</clipPath>
</defs>
</svg>
