<svg width="179" height="129" viewBox="0 0 179 129" fill="none" xmlns="http://www.w3.org/2000/svg">
<g clip-path="url(#clip0_855_2774)">
<path d="M88.258 128.455H81.3818V75.5471H86.974C87.2448 75.5471 87.5047 75.6543 87.6967 75.8453C87.8887 76.0363 87.9972 76.2955 87.9986 76.5663L88.258 128.455Z" fill="#CCCCCC"/>
<path d="M82.0244 128.735H8.18311V91.0555H82.0244V128.735Z" fill="white"/>
<path d="M52.9198 128.595H8.32324V91.1957H81.8842V99.638C81.8755 107.315 78.8212 114.675 73.3912 120.104C67.9612 125.533 60.599 128.586 52.9198 128.595Z" fill="#F2F2F2"/>
<path d="M87.1382 77.0499C87.1011 77.1201 87.0723 77.1944 87.0523 77.2712L84.5061 87.0832L81.7443 92.3125H8.46362V91.01L12.6357 87.0832L17.5027 77.7762C17.7175 77.3653 17.9997 76.9933 18.3374 76.6756C19.108 75.9507 20.1263 75.5471 21.1844 75.5471H86.2322C86.4088 75.5471 86.5824 75.5927 86.7362 75.6795C86.8899 75.7664 87.0186 75.8914 87.1098 76.0427C87.2009 76.1939 87.2514 76.3661 87.2564 76.5426C87.2614 76.719 87.2207 76.8938 87.1382 77.0499Z" fill="#F2F2F2"/>
<path d="M82.0244 128.735H8.18311V91.0555H82.0244V128.735ZM8.74365 128.175H81.4638V91.6159H8.74365V128.175Z" fill="#E6E6E6"/>
<path d="M85.8663 82.0693L84.5059 87.0832H12.6357L14.9581 82.9099L85.8663 82.0693Z" fill="#CCCCCC"/>
<path d="M22.6773 110.8H10.9062V111.451H22.6773V110.8Z" fill="white"/>
<path d="M22.6773 113.079H10.9062V113.731H22.6773V113.079Z" fill="white"/>
<path d="M22.6773 115.359H10.9062V116.01H22.6773V115.359Z" fill="white"/>
<path d="M15.4659 103.546C17.8043 103.546 19.6999 101.651 19.6999 99.313C19.6999 96.9753 17.8043 95.0801 15.4659 95.0801C13.1276 95.0801 11.2319 96.9753 11.2319 99.313C11.2319 101.651 13.1276 103.546 15.4659 103.546Z" fill="white"/>
<path d="M61.8713 84.2397H58.2754V56.5713H61.1998C61.3415 56.5713 61.4774 56.6274 61.5778 56.7272C61.6782 56.8271 61.7349 56.9627 61.7356 57.1043L61.8713 84.2397Z" fill="#CCCCCC"/>
<path d="M58.6114 84.3861H19.9958V64.6815H58.6114V84.3861Z" fill="white"/>
<path d="M43.391 84.3128H20.0691V64.7548H58.5381V69.1697C58.5335 73.1845 56.9362 77.0336 54.0966 79.8725C51.257 82.7114 47.4069 84.3083 43.391 84.3128Z" fill="#F2F2F2"/>
<path d="M61.2857 57.3572C61.2663 57.3939 61.2512 57.4327 61.2408 57.4729L59.9093 62.6042L58.4649 65.3388H20.1426V64.6577L22.3244 62.6042L24.8696 57.737C24.982 57.5222 25.1295 57.3276 25.3061 57.1615C25.7091 56.7824 26.2416 56.5713 26.795 56.5713H60.8119C60.9043 56.5713 60.9951 56.5951 61.0755 56.6406C61.1559 56.686 61.2232 56.7514 61.2709 56.8305C61.3185 56.9095 61.3449 56.9996 61.3475 57.0919C61.3501 57.1842 61.3288 57.2756 61.2857 57.3572Z" fill="#F2F2F2"/>
<path d="M58.6114 84.3861H19.9958V64.6815H58.6114V84.3861ZM20.289 84.0931H58.3182V64.9746H20.289V84.0931Z" fill="#E6E6E6"/>
<path d="M60.6203 59.9822L59.909 62.604H22.3242L23.5386 60.4215L60.6203 59.9822Z" fill="#CCCCCC"/>
<path d="M27.5756 75.007H21.4199V75.3476H27.5756V75.007Z" fill="white"/>
<path d="M27.5756 76.1989H21.4199V76.5395H27.5756V76.1989Z" fill="white"/>
<path d="M27.5756 77.3909H21.4199V77.7314H27.5756V77.3909Z" fill="white"/>
<path d="M23.8043 71.2134C25.0271 71.2134 26.0184 70.2223 26.0184 68.9998C26.0184 67.7773 25.0271 66.7862 23.8043 66.7862C22.5814 66.7862 21.5901 67.7773 21.5901 68.9998C21.5901 70.2223 22.5814 71.2134 23.8043 71.2134Z" fill="white"/>
<path d="M167.847 128.716L167.825 128.596C167.461 126.591 167.539 124.53 168.052 122.557C168.565 120.584 169.502 118.747 170.797 117.173C171.531 116.295 172.372 115.514 173.301 114.847L173.389 114.783L173.428 114.885C173.89 116.103 174.473 117.322 174.739 117.862L174.918 113.832L175.021 113.778C175.489 113.527 176.023 113.422 176.552 113.476C177.081 113.531 177.582 113.743 177.989 114.084C178.411 114.423 178.722 114.88 178.881 115.397C179.04 115.914 179.041 116.467 178.884 116.984C178.744 117.458 178.613 117.949 178.485 118.424C178.048 120.056 177.596 121.744 176.719 123.165C176.045 124.234 175.141 125.139 174.072 125.814C173.003 126.489 171.797 126.917 170.542 127.067L167.847 128.716Z" fill="#F2F2F2"/>
<path d="M179 128.667C179 128.71 178.992 128.754 178.975 128.794C178.958 128.835 178.934 128.872 178.903 128.903C178.872 128.934 178.835 128.958 178.794 128.975C178.754 128.992 178.71 129 178.666 129H0.333522C0.245067 129 0.160233 128.965 0.0976856 128.902C0.0351383 128.84 0 128.755 0 128.667C0 128.578 0.0351383 128.493 0.0976856 128.431C0.160233 128.368 0.245067 128.333 0.333522 128.333H178.666C178.71 128.333 178.754 128.342 178.794 128.358C178.835 128.375 178.872 128.4 178.903 128.431C178.934 128.461 178.958 128.498 178.975 128.539C178.992 128.579 179 128.623 179 128.667Z" fill="#CCCCCC"/>
<path d="M138.55 43.3534L133.445 42.6224C131.719 45.5084 131.106 53.1901 131.106 53.1901L126.11 65.0605C125.779 65.2852 125.513 65.593 125.339 65.953C125.165 66.313 125.089 66.7125 125.119 67.1112C125.148 67.5099 125.282 67.8939 125.507 68.2244C125.733 68.5548 126.041 68.8202 126.401 68.9938C126.761 69.1673 127.161 69.2429 127.56 69.2129C127.959 69.1829 128.342 69.0485 128.673 68.823C129.003 68.5976 129.268 68.2891 129.441 67.9287C129.614 67.5683 129.69 67.1686 129.659 66.77L137.861 52.9533L138.55 43.3534Z" fill="#FFB8B8"/>
<path d="M137.737 29.1858C138.527 29.3081 139.281 29.603 139.944 30.0495C140.607 30.496 141.164 31.0831 141.574 31.7691C141.984 32.4551 142.238 33.2231 142.318 34.0184C142.398 34.8137 142.301 35.6168 142.035 36.3705L140.952 39.44C140.952 39.44 140.363 48.6823 138.114 51.2912L131.213 50.6667C131.213 50.6667 132.475 46.0038 131.506 43.7478C130.913 42.3661 130.946 37.5941 131.531 33.7121C131.64 33.0071 131.888 32.3307 132.259 31.7215C132.631 31.1123 133.118 30.5823 133.695 30.1619C134.271 29.7414 134.925 29.4388 135.619 29.2713C136.313 29.1038 137.032 29.0748 137.737 29.1858Z" fill="#E6E6E6"/>
<path d="M154.607 125.085L151.532 125.085L150.069 113.228L154.607 113.228L154.607 125.085Z" fill="#FFB6B6"/>
<path d="M154.715 128.292L145.26 128.292V128.172C145.26 127.196 145.648 126.261 146.338 125.571C147.028 124.881 147.964 124.493 148.94 124.493L150.667 123.183L153.89 124.493L154.715 124.493L154.715 128.292Z" fill="#2F2E41"/>
<path d="M141.239 110.39L138.399 111.567L132.504 101.175L136.696 99.4374L141.239 110.39Z" fill="#FFB6B6"/>
<path d="M142.568 113.311L133.834 116.932L133.788 116.821C133.414 115.92 133.414 114.907 133.787 114.005C134.16 113.104 134.876 112.387 135.778 112.013L136.871 110.142L140.35 110.118L141.112 109.802L142.568 113.311Z" fill="#2F2E41"/>
<path d="M158.123 57.6353L136.301 59.9145L133.382 69.7432L123.274 85.9842L134.435 106.486L138.366 102.958L134.593 86.4033L145.854 74.2487L147.99 73.3628L149.685 118.466L155.954 118.569L158.698 68.8004C160.016 64.4039 159.62 60.7738 158.123 57.6353Z" fill="#2F2E41"/>
<path d="M150.122 26.52L146.541 22.4881L140.881 23.1168L137.258 28.1864C135.329 28.6296 133.644 29.7951 132.548 31.4428C131.453 33.0906 131.031 35.0955 131.369 37.0449C132.775 45.1394 137.553 52.9901 135.976 56.984C133.581 63.0466 133.434 65.5192 139.168 64.6692C144.901 63.8193 164.109 61.8598 160.385 58.1368C156.661 54.4138 155.843 48.1926 155.843 48.1926L155.694 33.9595C155.852 33.101 155.831 32.2191 155.632 31.3692C155.432 30.5193 155.059 29.7198 154.536 29.021C154.013 28.3223 153.351 27.7393 152.591 27.3089C151.831 26.8785 150.991 26.6099 150.122 26.52Z" fill="#E6E6E6"/>
<path d="M143.123 21.4563C146.593 21.4563 149.405 18.6444 149.405 15.1756C149.405 11.7068 146.593 8.89484 143.123 8.89484C139.653 8.89484 136.841 11.7068 136.841 15.1756C136.841 18.6444 139.653 21.4563 143.123 21.4563Z" fill="#FFB8B8"/>
<path d="M150.864 14.8026C150.583 16.0752 150.077 17.2873 149.37 18.3816C149.182 18.7548 148.901 19.0734 148.555 19.3068C148.379 19.4193 148.17 19.4668 147.963 19.441C147.756 19.4151 147.565 19.3176 147.423 19.1653L147.27 19.0408C147.57 18.8562 147.837 18.624 148.062 18.3533C148.174 18.2175 148.251 18.057 148.288 17.8853C148.325 17.7136 148.32 17.5355 148.274 17.3659C148.22 17.1987 148.103 17.059 147.948 16.9761C147.793 16.8933 147.612 16.8738 147.442 16.9217C147.075 17.066 146.851 17.5979 146.466 17.5159C146.155 17.448 146.09 17.0377 146.09 16.7152C146.101 15.029 145.286 12.6326 144.655 12.7062C144.017 12.741 143.379 12.6556 142.773 12.4544C142.166 12.2528 141.526 12.1711 140.888 12.2139C140.843 12.2196 140.798 12.228 140.75 12.2365C140.647 11.9162 140.507 11.6093 140.331 11.3227C140.351 11.6687 140.333 12.0158 140.28 12.3582C139.772 12.5673 139.248 12.733 138.712 12.8533C138.129 12.9354 136.847 14.6782 136.788 14.4999C136.685 14.1795 136.545 13.8727 136.369 13.5861C136.389 13.9321 136.372 14.2792 136.318 14.6216C136.315 14.6357 136.315 14.647 136.312 14.6612C136.029 14.2849 135.857 13.8266 135.953 14.1774C135.005 12.0328 135.373 10.4966 136.864 8.68867C137.155 8.29994 137.539 7.99134 137.982 7.79179C138.203 7.69447 138.446 7.65583 138.687 7.67962C138.928 7.70341 139.159 7.78881 139.357 7.9276C139.965 7.37005 140.712 6.98528 141.519 6.81316C142.326 6.64104 143.164 6.68783 143.947 6.94869C145.501 7.48908 146.698 7.80595 146.936 9.43559C148.221 9.22905 149.542 9.959 150.25 11.0482C150.954 12.1403 151.099 13.5267 150.864 14.8026Z" fill="#2F2E41"/>
<path d="M145.769 66.97H143.684V50.9261H145.38C145.462 50.9261 145.541 50.9587 145.599 51.0166C145.657 51.0745 145.69 51.1531 145.691 51.2352L145.769 66.97Z" fill="#3F3D56"/>
<path d="M143.879 67.055H121.487V55.629H143.879V67.055Z" fill="white"/>
<path d="M135.053 67.0126H121.53V55.6715H143.837V58.2316C143.834 60.5596 142.908 62.7916 141.261 64.4378C139.614 66.0839 137.382 67.0099 135.053 67.0126Z" fill="#6C63FF"/>
<path d="M145.43 51.3819C145.418 51.4032 145.41 51.4257 145.404 51.449L144.632 54.4244L143.794 56.0101H121.572V55.6152L122.837 54.4244L124.313 51.6021C124.378 51.4775 124.464 51.3647 124.566 51.2684C124.8 51.0486 125.109 50.9261 125.43 50.9261H145.155C145.209 50.9261 145.261 50.94 145.308 50.9663C145.354 50.9927 145.393 51.0306 145.421 51.0764C145.449 51.1223 145.464 51.1745 145.466 51.228C145.467 51.2815 145.455 51.3345 145.43 51.3819Z" fill="#3F3D56"/>
<path d="M143.879 67.055H121.487V55.629H143.879V67.055ZM121.657 66.8851H143.709V55.799H121.657V66.8851Z" fill="#3F3D56"/>
<path d="M145.044 52.9039L144.632 54.4245H122.838L123.542 53.1588L145.044 52.9039Z" fill="#6C63FF"/>
<path d="M125.882 61.6164H122.313V61.8139H125.882V61.6164Z" fill="white"/>
<path d="M125.882 62.3076H122.313V62.505H125.882V62.3076Z" fill="white"/>
<path d="M125.882 62.9987H122.313V63.1962H125.882V62.9987Z" fill="white"/>
<path d="M123.696 59.4166C124.405 59.4166 124.98 58.8419 124.98 58.133C124.98 57.4241 124.405 56.8494 123.696 56.8494C122.987 56.8494 122.412 57.4241 122.412 58.133C122.412 58.8419 122.987 59.4166 123.696 59.4166Z" fill="white"/>
<path d="M154.48 41.8865L149.376 41.1555C147.649 44.0415 147.036 51.7231 147.036 51.7231L142.04 63.5936C141.71 63.8182 141.444 64.1261 141.27 64.4861C141.096 64.8461 141.02 65.2455 141.049 65.6443C141.079 66.043 141.213 66.427 141.438 66.7574C141.663 67.0879 141.971 67.3533 142.331 67.5268C142.692 67.7004 143.091 67.776 143.49 67.746C143.889 67.716 144.273 67.5816 144.603 67.3561C144.934 67.1307 145.199 66.8222 145.372 66.4618C145.545 66.1014 145.62 65.7017 145.59 65.3031L153.792 51.4863L154.48 41.8865Z" fill="#FFB8B8"/>
<path d="M151.714 27.7189C152.504 27.8412 153.257 28.1361 153.921 28.5826C154.584 29.0291 155.14 29.6162 155.551 30.3022C155.961 30.9882 156.215 31.7561 156.295 32.5514C156.374 33.3467 156.278 34.1499 156.012 34.9036L154.929 37.9731C154.929 37.9731 156.293 47.2154 154.044 49.8243L147.144 49.1998C147.144 49.1998 148.406 44.5369 147.437 42.2808C146.844 40.8992 146.877 36.1271 147.461 32.2452C147.908 29.2809 148.751 27.2601 151.714 27.7189Z" fill="#E6E6E6"/>
<path d="M108.37 12.4267C105.876 13.6702 103.978 15.8532 103.094 18.4955C102.21 21.1378 102.412 24.023 103.656 26.5163C106.246 31.7083 115.605 40.5633 123.073 41.9012C119.861 32.1504 124.327 22.239 122.463 17.1392C120.471 11.6899 113.563 9.83732 108.37 12.4267Z" fill="#6C63FF"/>
<path d="M111.87 24.7751C113.763 24.7751 115.297 23.2412 115.297 21.349C115.297 19.4568 113.763 17.9229 111.87 17.9229C109.977 17.9229 108.443 19.4568 108.443 21.349C108.443 23.2412 109.977 24.7751 111.87 24.7751Z" fill="white"/>
<path d="M123.007 47.4004C124.247 47.4004 125.252 46.3957 125.252 45.1564C125.252 43.917 124.247 42.9124 123.007 42.9124C121.768 42.9124 120.763 43.917 120.763 45.1564C120.763 46.3957 121.768 47.4004 123.007 47.4004Z" fill="#6C63FF"/>
<path opacity="0.2" d="M112.915 17.7475C113.365 17.7319 113.813 17.805 114.235 17.9629C114.657 18.1207 115.043 18.36 115.372 18.6672C115.701 18.9745 115.967 19.3435 116.153 19.7533C116.339 20.163 116.443 20.6055 116.459 21.0554C116.474 21.5053 116.4 21.9538 116.242 22.3753C116.084 22.7968 115.844 23.1829 115.536 23.5117C115.229 23.8405 114.86 24.1054 114.449 24.2914C114.039 24.4774 113.597 24.5808 113.147 24.5957C113.909 24.3121 114.546 23.7664 114.943 23.0563C115.34 22.3462 115.472 21.518 115.314 20.7199C115.156 19.9219 114.719 19.2061 114.081 18.7007C113.443 18.1952 112.647 17.9332 111.833 17.9614C112.18 17.8322 112.545 17.76 112.915 17.7475Z" fill="#231F20"/>
<path opacity="0.2" d="M122.48 17.1412C124.345 22.241 119.878 32.1524 123.09 41.9032C122.386 41.7735 121.691 41.5918 121.013 41.3597C118.396 31.9336 122.504 22.5147 120.702 17.5874C119.09 13.1773 114.259 11.1234 109.722 11.8727C114.701 10.1749 120.654 12.1474 122.48 17.1412Z" fill="#231F20"/>
<path d="M17.2814 64.4568C14.6998 64.3949 12.1993 65.3607 10.33 67.1419C8.4607 68.9231 7.37571 71.3737 7.31372 73.9547C7.18463 79.3292 11.0123 90.6365 16.5486 94.9674C18.1441 85.5895 26.0982 79.4067 26.7817 74.422C27.5119 69.0957 22.6574 64.5859 17.2814 64.4568Z" fill="#D1D3D4"/>
<path d="M16.2814 76.4557C18.0352 76.4557 19.4569 75.0344 19.4569 73.2811C19.4569 71.5277 18.0352 70.1064 16.2814 70.1064C14.5277 70.1064 13.106 71.5277 13.106 73.2811C13.106 75.0344 14.5277 76.4557 16.2814 76.4557Z" fill="white"/>
<path d="M15.0838 99.6843C16.2325 99.6843 17.1637 98.7534 17.1637 97.605C17.1637 96.4566 16.2325 95.5256 15.0838 95.5256C13.9351 95.5256 13.0039 96.4566 13.0039 97.605C13.0039 98.7534 13.9351 99.6843 15.0838 99.6843Z" fill="#D1D3D4"/>
<path opacity="0.2" d="M18.6978 70.7838C19.4552 71.1521 20.0351 71.8061 20.3101 72.6019C20.5851 73.3977 20.5326 74.2701 20.1642 75.0272C19.9818 75.4021 19.7273 75.7374 19.4153 76.014C19.1033 76.2906 18.7398 76.503 18.3457 76.6391C17.5497 76.914 16.677 76.8616 15.9197 76.4933C16.6673 76.5914 17.4254 76.4203 18.0583 76.0107C18.6913 75.6011 19.1578 74.9796 19.3743 74.2576C19.5908 73.5355 19.5433 72.76 19.2401 72.0698C18.9369 71.3796 18.398 70.8198 17.7197 70.4906C18.0594 70.5349 18.3897 70.6339 18.6978 70.7838Z" fill="#231F20"/>
<path opacity="0.2" d="M26.7951 74.4311C26.1117 79.4158 18.1576 85.5986 16.5621 94.9766C16.041 94.5649 15.5512 94.1154 15.0964 93.6315C17.0385 84.7773 24.4854 78.8425 25.1457 74.0264C25.7367 69.7159 22.6698 65.9406 18.6291 64.5888C23.4433 65.3555 27.4644 69.5501 26.7951 74.4311Z" fill="#231F20"/>
<path d="M54.2214 23.0925C53.4958 23.1399 52.8174 23.4686 52.3305 24.0084C51.8436 24.5483 51.5867 25.2569 51.6143 25.9833C51.6223 26.1308 51.6424 26.2775 51.6746 26.4217L43.4353 31.6111L47.9904 33.6252L55.1162 28.3885C55.7042 28.2089 56.2161 27.8398 56.5721 27.3387C56.9282 26.8377 57.1083 26.2329 57.0844 25.6188C57.0674 25.2695 56.9818 24.9269 56.8324 24.6107C56.683 24.2944 56.4727 24.0107 56.2137 23.7757C55.9546 23.5407 55.6518 23.359 55.3225 23.241C54.9931 23.123 54.6438 23.0709 54.2944 23.0879C54.27 23.0891 54.2457 23.0906 54.2214 23.0925Z" fill="#FFB6B6"/>
<path d="M46.2763 29.2524L48.3183 33.4646L40.2444 38.6588C39.6699 39.0316 39.0097 39.2513 38.3263 39.2971C37.6429 39.3429 36.9592 39.2132 36.3402 38.9203C35.5875 38.5602 34.9723 37.9651 34.5873 37.225C34.2024 36.4848 34.0685 35.6396 34.2058 34.8168L36.8256 19.864C37.0015 18.8176 37.5718 17.8784 38.4192 17.2395C39.2665 16.6006 40.3265 16.3106 41.3812 16.4292C41.8949 16.4853 42.3925 16.6421 42.8457 16.8905C43.2988 17.1389 43.6985 17.4742 44.022 17.877C44.3456 18.2799 44.5865 18.7425 44.7312 19.2385C44.8759 19.7345 44.9215 20.2541 44.8653 20.7677C44.8609 20.8082 44.8558 20.8487 44.8501 20.8891C44.8303 21.0328 44.8028 21.1753 44.7676 21.3161L41.9076 31.9502L46.2763 29.2524Z" fill="#6C63FF"/>
<path d="M46.8501 35.7822H35.3035V47.3259H46.8501V35.7822Z" fill="#FFB8B8"/>
<path d="M74.2329 69.779L78.6427 68.296L81.0984 80.2963L78.1102 81.3011L74.2329 69.779Z" fill="#FFB6B6"/>
<path d="M66.7588 68.8569L71.133 67.2715L73.8673 79.2113L70.9034 80.2853L66.7588 68.8569Z" fill="#FFB6B6"/>
<path d="M35.7177 50.3416C33.4034 65.7663 64.2224 56.647 64.2224 56.647L73.8854 69.9737L79.5426 68.9454C79.5426 68.9454 76.9971 60.945 72.451 50.22C70.4322 45.4571 47.5081 46.6209 47.5081 46.6209L47.0321 42.8864L33.9177 42.6293L35.7177 50.3416Z" fill="#2F2E41"/>
<path d="M57.9797 57.681L65.1063 53.2437C70.3234 63.6589 71.8613 68.1695 71.8613 68.1695L66.9291 69.5562L57.9797 57.681Z" fill="#2F2E41"/>
<path d="M42.3139 17.0238L39.9898 14.0371L36.6745 13.8934L36.3437 16.7024L34.701 17.4597C33.0607 23.6896 32.8074 30.2034 33.9589 36.5417C34.179 36.749 34.3399 37.0112 34.4249 37.3013C34.5098 37.5914 34.5159 37.899 34.4423 38.1922L34.3358 38.6166L34.3456 38.6322C34.6952 39.1836 34.8138 39.8503 34.6758 40.4884L33.8913 41.882C33.6098 42.3832 33.4409 42.9396 33.3962 43.5127C33.3516 44.0857 33.4323 44.6616 33.6329 45.2003C33.8334 45.739 34.1489 46.2276 34.5574 46.632C34.966 47.0365 35.4577 47.3471 35.9985 47.5423C40.8206 49.2898 45.341 49.9407 48.6852 45.0371L49.7368 27.949L42.3139 17.0238Z" fill="#6C63FF"/>
<path d="M39.8793 14.8303C43.2646 14.8303 46.009 12.0866 46.009 8.70214C46.009 5.31765 43.2646 2.57397 39.8793 2.57397C36.4939 2.57397 33.7495 5.31765 33.7495 8.70214C33.7495 12.0866 36.4939 14.8303 39.8793 14.8303Z" fill="#FFB8B8"/>
<path d="M36.802 1.31473C34.2066 1.36458 32.1481 3.7714 32.2042 6.69051C30.2835 8.69409 29.8183 18.5489 31.4231 21.1706C34.3588 21.5113 36.1445 14.25 38.719 15.2997L39.0583 13.7151L39.8271 15.7787C40.4813 16.0803 41.1307 16.4113 41.7751 16.7717C42.2382 14.6481 42.1234 12.5839 40.8787 10.786C39.7729 9.18869 42.4639 7.2924 44.3883 7.56042L44.3601 6.09339L44.8435 7.55168C45.5937 8.10277 46.4235 7.90326 47.2744 7.50499C48.6543 0.335238 37.971 -1.62546 36.802 1.31473Z" fill="#2F2E41"/>
<path d="M76.752 83.3308L78.7167 83.0742L78.8251 81.174L79.9655 82.9111L85.1764 82.2306C85.4262 82.198 85.659 82.0865 85.8408 81.9122C86.0227 81.7379 86.1441 81.5101 86.1873 81.262C86.2305 81.0139 86.1932 80.7585 86.0809 80.5331C85.9686 80.3077 85.7871 80.124 85.5631 80.009L81.0264 77.6793L80.7815 75.8045L76.4387 76.6373L76.752 83.3308Z" fill="#2F2E41"/>
<path d="M71.5627 83.3479L73.345 82.4826L72.8461 80.6459L74.478 81.9326L79.2053 79.6378C79.4319 79.5278 79.6174 79.3483 79.7347 79.1254C79.852 78.9026 79.895 78.6481 79.8574 78.399C79.8198 78.15 79.7036 77.9196 79.5257 77.7413C79.3477 77.563 79.1175 77.4462 78.8685 77.4081L73.8274 76.6342L73.0014 74.9333L69.1458 77.0979L71.5627 83.3479Z" fill="#2F2E41"/>
<path d="M44.6562 42.4825H46.8418V25.6657H45.0643C44.9783 25.6657 44.8957 25.6998 44.8346 25.7605C44.7736 25.8212 44.7391 25.9036 44.7387 25.9897L44.6562 42.4825Z" fill="#CCCCCC"/>
<path d="M46.6375 30.5951H70.1079V42.5715H46.6375V30.5951Z" fill="white"/>
<path d="M46.6821 33.323V30.6396H70.0635V42.527H55.8885C53.4476 42.5242 51.1076 41.5537 49.3817 39.8282C47.6557 38.1027 46.6849 35.7632 46.6821 33.323Z" fill="#F2F2F2"/>
<path d="M45.0121 26.1434C45.0239 26.1658 45.033 26.1894 45.0394 26.2138L45.8487 29.3325L46.7265 30.9947H70.0188V30.5807L68.6927 29.3325L67.1457 26.3743C67.0774 26.2437 66.9877 26.1255 66.8804 26.0245C66.6354 25.7941 66.3118 25.6658 65.9755 25.6658H45.3C45.2439 25.6658 45.1887 25.6803 45.1399 25.7079C45.091 25.7355 45.0501 25.7752 45.0211 25.8233C44.9921 25.8714 44.9761 25.9261 44.9745 25.9822C44.9729 26.0383 44.9859 26.0938 45.0121 26.1434Z" fill="#F2F2F2"/>
<path d="M46.6375 30.5951H70.1079V42.5715H46.6375V30.5951ZM69.9297 42.3934H46.8156V30.7732H69.9297L69.9297 42.3934Z" fill="#E6E6E6"/>
<path d="M45.4163 27.7387L45.8487 29.3325H68.6927L67.9544 28.006L45.4163 27.7387Z" fill="#CCCCCC"/>
<path d="M69.2424 36.8709H65.501V37.0779H69.2424V36.8709Z" fill="white"/>
<path d="M69.2424 37.5954H65.501V37.8024H69.2424V37.5954Z" fill="white"/>
<path d="M69.2424 38.3198H65.501V38.5268H69.2424V38.3198Z" fill="white"/>
<path d="M67.793 34.5652C68.5363 34.5652 69.1388 33.9628 69.1388 33.2198C69.1388 32.4767 68.5363 31.8743 67.793 31.8743C67.0498 31.8743 66.4473 32.4767 66.4473 33.2198C66.4473 33.9628 67.0498 34.5652 67.793 34.5652Z" fill="white"/>
<path d="M56.9368 12.8906C58.5187 12.8526 60.0509 13.4444 61.1963 14.5358C62.3417 15.6272 63.0065 17.1288 63.0445 18.7103C63.1236 22.0035 60.7782 28.932 57.3858 31.5858C56.4082 25.8395 51.5344 22.051 51.1156 18.9967C50.6681 15.733 53.6428 12.9697 56.9368 12.8906Z" fill="#D1D3D4"/>
<path d="M57.5498 20.2428C58.6244 20.2428 59.4955 19.3719 59.4955 18.2976C59.4955 17.2232 58.6244 16.3523 57.5498 16.3523C56.4752 16.3523 55.604 17.2232 55.604 18.2976C55.604 19.3719 56.4752 20.2428 57.5498 20.2428Z" fill="white"/>
<path d="M58.2835 34.476C58.9873 34.476 59.5579 33.9056 59.5579 33.2019C59.5579 32.4982 58.9873 31.9278 58.2835 31.9278C57.5796 31.9278 57.009 32.4982 57.009 33.2019C57.009 33.9056 57.5796 34.476 58.2835 34.476Z" fill="#D1D3D4"/>
<path opacity="0.2" d="M56.0689 16.7673C55.8392 16.8791 55.6337 17.035 55.4642 17.2261C55.2946 17.4173 55.1645 17.6399 55.081 17.8814C54.9976 18.1228 54.9625 18.3783 54.9779 18.6333C54.9932 18.8883 55.0586 19.1378 55.1704 19.3675C55.2822 19.5972 55.4381 19.8027 55.6293 19.9721C55.8205 20.1416 56.0432 20.2718 56.2847 20.3552C56.5262 20.4386 56.7818 20.4736 57.0369 20.4583C57.2919 20.443 57.5415 20.3775 57.7712 20.2658C57.3132 20.3259 56.8486 20.2211 56.4608 19.9701C56.0729 19.7191 55.7871 19.3383 55.6544 18.8959C55.5218 18.4535 55.5509 17.9783 55.7367 17.5554C55.9224 17.1324 56.2527 16.7894 56.6683 16.5877C56.4601 16.6149 56.2577 16.6755 56.0689 16.7673Z" fill="#231F20"/>
<path opacity="0.2" d="M51.1075 19.0022C51.5263 22.0565 56.4001 25.845 57.3778 31.5913C57.6971 31.3391 57.9972 31.0636 58.2759 30.7671C57.0859 25.3418 52.5228 21.7052 52.1182 18.7542C51.7561 16.113 53.6353 13.7997 56.1112 12.9714C53.1614 13.4411 50.6975 16.0114 51.1075 19.0022Z" fill="#231F20"/>
<path d="M53.4707 29.0665C52.7455 29.0128 52.0281 29.2441 51.4709 29.7112C50.9138 30.1783 50.561 30.8443 50.4875 31.5675C50.4749 31.7148 50.4745 31.8628 50.4863 32.0101L41.6062 36.0058L45.8376 38.6325L53.6215 34.4355C54.2287 34.3392 54.7869 34.0447 55.2091 33.5979C55.6312 33.1512 55.8936 32.5772 55.9552 31.9657C56.0192 31.2623 55.8011 30.5623 55.3488 30.0196C54.8966 29.477 54.2472 29.1362 53.5436 29.0722C53.5193 29.0699 53.495 29.0681 53.4707 29.0665Z" fill="#FFB6B6"/>
<path d="M44.747 34.0642L46.1843 38.5189L37.4674 42.5424C36.8467 42.8318 36.1623 42.9578 35.4792 42.9083C34.7961 42.8587 34.137 42.6354 33.5646 42.2595C32.8692 41.7984 32.3426 41.1237 32.0641 40.3373C31.7856 39.5509 31.7704 38.6953 32.0207 37.8995L36.6914 23.455C37.0109 22.4432 37.706 21.5922 38.6339 21.0771C39.5618 20.562 40.6518 20.4219 41.6798 20.6857C42.1807 20.8126 42.6518 21.0369 43.066 21.3458C43.4802 21.6547 43.8295 22.0422 44.094 22.486C44.3584 22.9299 44.5329 23.4215 44.6073 23.9327C44.6817 24.444 44.6547 24.9649 44.5277 25.4657C44.5177 25.5053 44.5071 25.5447 44.4958 25.5839C44.4563 25.7235 44.4092 25.8608 44.3548 25.9952L40.0459 36.1295L44.747 34.0642Z" fill="#6C63FF"/>
</g>
<defs>
<clipPath id="clip0_855_2774">
<rect width="179" height="129" fill="white"/>
</clipPath>
</defs>
</svg>
