<svg width="22" height="22" viewBox="0 0 22 22" fill="none" xmlns="http://www.w3.org/2000/svg">
<path d="M20.1391 16.8025C20.1391 17.1325 20.0658 17.4717 19.9099 17.8017C19.7541 18.1317 19.5524 18.4434 19.2866 18.7367C18.8374 19.2317 18.3424 19.5892 17.7833 19.8184C17.2333 20.0475 16.6374 20.1667 15.9958 20.1667C15.0608 20.1667 14.0616 19.9467 13.0074 19.4975C11.9533 19.0484 10.8991 18.4434 9.85409 17.6825C8.79992 16.9125 7.80075 16.06 6.84742 15.1159C5.90325 14.1625 5.05075 13.1634 4.28992 12.1184C3.53825 11.0734 2.93325 10.0284 2.49325 8.99254C2.05325 7.94754 1.83325 6.94837 1.83325 5.99504C1.83325 5.37171 1.94325 4.77587 2.16325 4.22587C2.38325 3.66671 2.73159 3.15337 3.21742 2.69504C3.80409 2.11754 4.44575 1.83337 5.12409 1.83337C5.38075 1.83337 5.63742 1.88837 5.86659 1.99837C6.10492 2.10837 6.31575 2.27337 6.48075 2.51171L8.60742 5.50921C8.77242 5.73837 8.89159 5.94921 8.97409 6.15087C9.05659 6.34337 9.10242 6.53587 9.10242 6.71004C9.10242 6.93004 9.03825 7.15004 8.90992 7.36087C8.79075 7.57171 8.61659 7.79171 8.39659 8.01171L7.69992 8.73587C7.59909 8.83671 7.55325 8.95587 7.55325 9.10254C7.55325 9.17587 7.56242 9.24004 7.58075 9.31337C7.60825 9.38671 7.63575 9.44171 7.65409 9.49671C7.81909 9.79921 8.10325 10.1934 8.50659 10.67C8.91909 11.1467 9.35909 11.6325 9.83575 12.1184C10.3308 12.6042 10.8074 13.0534 11.2933 13.4659C11.7699 13.8692 12.1641 14.1442 12.4758 14.3092C12.5216 14.3275 12.5766 14.355 12.6408 14.3825C12.7141 14.41 12.7874 14.4192 12.8699 14.4192C13.0258 14.4192 13.1449 14.3642 13.2458 14.2634L13.9424 13.5759C14.1716 13.3467 14.3916 13.1725 14.6024 13.0625C14.8133 12.9342 15.0241 12.87 15.2533 12.87C15.4274 12.87 15.6108 12.9067 15.8124 12.9892C16.0141 13.0717 16.2249 13.1909 16.4541 13.3467L19.4883 15.5009C19.7266 15.6659 19.8916 15.8584 19.9924 16.0875C20.0841 16.3167 20.1391 16.5459 20.1391 16.8025Z" stroke="#929292" stroke-width="1.5" stroke-miterlimit="10"/>
</svg>
