<svg width="232" height="137" viewBox="0 0 232 137" fill="none" xmlns="http://www.w3.org/2000/svg">
<g clip-path="url(#clip0_725_4337)">
<rect width="231.626" height="136.442" rx="16" fill="#0E82FD"/>
<path d="M70.2247 98.054C27.534 47.6186 4.04531 107.117 -0.374023 136.598H229.226C234.198 125.543 234.889 88.7916 196.176 35.0098C147.784 -32.2175 123.588 161.098 70.2247 98.054Z" fill="white" fill-opacity="0.2"/>
<path d="M33.696 109.648V116.598H32.556V111.838L30.436 116.598H29.646L27.516 111.838V116.598H26.376V109.648H27.606L30.046 115.098L32.476 109.648H33.696ZM37.3243 109.648V114.078C37.3243 114.604 37.461 115.001 37.7343 115.268C38.0143 115.534 38.401 115.668 38.8943 115.668C39.3943 115.668 39.781 115.534 40.0543 115.268C40.3343 115.001 40.4743 114.604 40.4743 114.078V109.648H41.6143V114.058C41.6143 114.624 41.491 115.104 41.2443 115.498C40.9977 115.891 40.6677 116.184 40.2543 116.378C39.841 116.571 39.3843 116.668 38.8843 116.668C38.3843 116.668 37.9277 116.571 37.5143 116.378C37.1077 116.184 36.7843 115.891 36.5443 115.498C36.3043 115.104 36.1843 114.624 36.1843 114.058V109.648H37.3243ZM49.6486 109.648V116.598H48.5086V113.558H45.2386V116.598H44.0986V109.648H45.2386V112.628H48.5086V109.648H49.6486ZM56.3394 115.178H53.4294L52.9294 116.598H51.7394L54.2294 109.638H55.5494L58.0394 116.598H56.8394L56.3394 115.178ZM56.0194 114.248L54.8894 111.018L53.7494 114.248H56.0194ZM67.4421 109.648V116.598H66.3021V111.838L64.1821 116.598H63.3921L61.2621 111.838V116.598H60.1221V109.648H61.3521L63.7921 115.098L66.2221 109.648H67.4421ZM77.2604 109.648V116.598H76.1204V111.838L74.0004 116.598H73.2104L71.0804 111.838V116.598H69.9404V109.648H71.1704L73.6104 115.098L76.0404 109.648H77.2604ZM83.9488 115.178H81.0388L80.5388 116.598H79.3488L81.8388 109.638H83.1588L85.6488 116.598H84.4488L83.9488 115.178ZM83.6288 114.248L82.4988 111.018L81.3588 114.248H83.6288ZM90.0014 109.648C90.7414 109.648 91.3881 109.791 91.9414 110.078C92.5014 110.358 92.9314 110.764 93.2314 111.298C93.5381 111.824 93.6914 112.441 93.6914 113.148C93.6914 113.854 93.5381 114.468 93.2314 114.988C92.9314 115.508 92.5014 115.908 91.9414 116.188C91.3881 116.461 90.7414 116.598 90.0014 116.598H87.7314V109.648H90.0014ZM90.0014 115.668C90.8148 115.668 91.4381 115.448 91.8714 115.008C92.3048 114.568 92.5214 113.948 92.5214 113.148C92.5214 112.341 92.3048 111.711 91.8714 111.258C91.4381 110.804 90.8148 110.578 90.0014 110.578H88.8714V115.668H90.0014ZM104.969 109.648V116.598H103.829V113.558H100.559V116.598H99.4189V109.648H100.559V112.628H103.829V109.648H104.969ZM111.66 115.178H108.75L108.25 116.598H107.06L109.55 109.638H110.87L113.36 116.598H112.16L111.66 115.178ZM111.34 114.248L110.21 111.018L109.07 114.248H111.34ZM119.052 116.598L117.452 113.818H116.582V116.598H115.442V109.648H117.842C118.376 109.648 118.826 109.741 119.192 109.928C119.566 110.114 119.842 110.364 120.022 110.678C120.209 110.991 120.302 111.341 120.302 111.728C120.302 112.181 120.169 112.594 119.902 112.968C119.642 113.334 119.239 113.584 118.692 113.718L120.412 116.598H119.052ZM116.582 112.908H117.842C118.269 112.908 118.589 112.801 118.802 112.588C119.022 112.374 119.132 112.088 119.132 111.728C119.132 111.368 119.026 111.088 118.812 110.888C118.599 110.681 118.276 110.578 117.842 110.578H116.582V112.908ZM123.901 109.648V116.598H122.761V109.648H123.901ZM128.687 116.668C128.221 116.668 127.801 116.588 127.427 116.428C127.054 116.261 126.761 116.028 126.547 115.728C126.334 115.428 126.227 115.078 126.227 114.678H127.447C127.474 114.978 127.591 115.224 127.797 115.418C128.011 115.611 128.307 115.708 128.687 115.708C129.081 115.708 129.387 115.614 129.607 115.428C129.827 115.234 129.937 114.988 129.937 114.688C129.937 114.454 129.867 114.264 129.727 114.118C129.594 113.971 129.424 113.858 129.217 113.778C129.017 113.698 128.737 113.611 128.377 113.518C127.924 113.398 127.554 113.278 127.267 113.158C126.987 113.031 126.747 112.838 126.547 112.578C126.347 112.318 126.247 111.971 126.247 111.538C126.247 111.138 126.347 110.788 126.547 110.488C126.747 110.188 127.027 109.958 127.387 109.798C127.747 109.638 128.164 109.558 128.637 109.558C129.311 109.558 129.861 109.728 130.287 110.068C130.721 110.401 130.961 110.861 131.007 111.448H129.747C129.727 111.194 129.607 110.978 129.387 110.798C129.167 110.618 128.877 110.528 128.517 110.528C128.191 110.528 127.924 110.611 127.717 110.778C127.511 110.944 127.407 111.184 127.407 111.498C127.407 111.711 127.471 111.888 127.597 112.028C127.731 112.161 127.897 112.268 128.097 112.348C128.297 112.428 128.571 112.514 128.917 112.608C129.377 112.734 129.751 112.861 130.037 112.988C130.331 113.114 130.577 113.311 130.777 113.578C130.984 113.838 131.087 114.188 131.087 114.628C131.087 114.981 130.991 115.314 130.797 115.628C130.611 115.941 130.334 116.194 129.967 116.388C129.607 116.574 129.181 116.668 128.687 116.668Z" fill="white"/>
<path d="M48.106 91.6057C48.106 90.683 48.2606 89.963 48.57 89.4457C48.8846 88.923 49.4233 88.6617 50.186 88.6617C50.9486 88.6617 51.4846 88.923 51.794 89.4457C52.1086 89.963 52.266 90.683 52.266 91.6057C52.266 92.539 52.1086 93.2697 51.794 93.7977C51.4846 94.3203 50.9486 94.5817 50.186 94.5817C49.4233 94.5817 48.8846 94.3203 48.57 93.7977C48.2606 93.2697 48.106 92.539 48.106 91.6057ZM51.37 91.6057C51.37 91.1737 51.3406 90.8083 51.282 90.5097C51.2286 90.211 51.1166 89.9683 50.946 89.7817C50.7753 89.5897 50.522 89.4937 50.186 89.4937C49.85 89.4937 49.5966 89.5897 49.426 89.7817C49.2553 89.9683 49.1406 90.211 49.082 90.5097C49.0286 90.8083 49.002 91.1737 49.002 91.6057C49.002 92.0537 49.0286 92.4297 49.082 92.7337C49.1353 93.0377 49.2473 93.283 49.418 93.4697C49.594 93.6563 49.85 93.7497 50.186 93.7497C50.522 93.7497 50.7753 93.6563 50.946 93.4697C51.122 93.283 51.2366 93.0377 51.29 92.7337C51.3433 92.4297 51.37 92.0537 51.37 91.6057ZM53.215 90.2057C53.247 89.7097 53.4363 89.323 53.783 89.0457C54.135 88.7683 54.583 88.6297 55.127 88.6297C55.5003 88.6297 55.823 88.6963 56.095 88.8297C56.367 88.963 56.5723 89.1443 56.711 89.3737C56.8496 89.603 56.919 89.8617 56.919 90.1497C56.919 90.4803 56.831 90.763 56.655 90.9977C56.479 91.2323 56.2683 91.3897 56.023 91.4697V91.5017C56.3376 91.5977 56.583 91.7737 56.759 92.0297C56.935 92.2803 57.023 92.603 57.023 92.9977C57.023 93.3123 56.951 93.5923 56.807 93.8377C56.663 94.083 56.4496 94.2777 56.167 94.4217C55.8843 94.5603 55.5456 94.6297 55.151 94.6297C54.575 94.6297 54.1003 94.483 53.727 94.1897C53.359 93.891 53.1616 93.4643 53.135 92.9097H54.015C54.0363 93.1923 54.1456 93.4243 54.343 93.6057C54.5403 93.7817 54.807 93.8697 55.143 93.8697C55.4683 93.8697 55.719 93.7817 55.895 93.6057C56.071 93.4243 56.159 93.1923 56.159 92.9097C56.159 92.5363 56.039 92.2723 55.799 92.1177C55.5643 91.9577 55.2016 91.8777 54.711 91.8777H54.503V91.1257H54.719C55.151 91.1203 55.479 91.0483 55.703 90.9097C55.9323 90.771 56.047 90.5523 56.047 90.2537C56.047 89.9977 55.9643 89.795 55.799 89.6457C55.6336 89.491 55.399 89.4137 55.095 89.4137C54.7963 89.4137 54.5643 89.491 54.399 89.6457C54.2336 89.795 54.135 89.9817 54.103 90.2057H53.215ZM61.061 87.0457L58.885 95.9977H57.989L60.157 87.0457H61.061ZM62.5944 93.3577C63.1064 92.915 63.509 92.5523 63.8024 92.2697C64.101 91.9817 64.349 91.683 64.5464 91.3737C64.7437 91.0643 64.8424 90.755 64.8424 90.4457C64.8424 90.1257 64.765 89.875 64.6104 89.6937C64.461 89.5123 64.2237 89.4217 63.8984 89.4217C63.5837 89.4217 63.3384 89.523 63.1624 89.7257C62.9917 89.923 62.901 90.1897 62.8904 90.5257H62.0104C62.0264 89.9177 62.2077 89.4537 62.5544 89.1337C62.9064 88.8083 63.3517 88.6457 63.8904 88.6457C64.4717 88.6457 64.925 88.8057 65.2504 89.1257C65.581 89.4457 65.7464 89.8723 65.7464 90.4057C65.7464 90.7897 65.6477 91.1603 65.4504 91.5177C65.2584 91.8697 65.0264 92.187 64.7544 92.4697C64.4877 92.747 64.1464 93.0697 63.7304 93.4377L63.3704 93.7577H65.9064V94.5177H62.0184V93.8537L62.5944 93.3577ZM69.8435 90.1177C69.7849 89.8723 69.6782 89.6883 69.5235 89.5657C69.3689 89.443 69.1529 89.3817 68.8755 89.3817C68.4542 89.3817 68.1395 89.5443 67.9315 89.8697C67.7235 90.1897 67.6142 90.723 67.6035 91.4697C67.7422 91.235 67.9449 91.0537 68.2115 90.9257C68.4782 90.7977 68.7662 90.7337 69.0755 90.7337C69.4275 90.7337 69.7369 90.811 70.0035 90.9657C70.2755 91.115 70.4862 91.3337 70.6355 91.6217C70.7902 91.9097 70.8675 92.2537 70.8675 92.6537C70.8675 93.027 70.7929 93.3603 70.6435 93.6537C70.4995 93.947 70.2835 94.179 69.9955 94.3497C69.7075 94.515 69.3609 94.5977 68.9555 94.5977C68.4062 94.5977 67.9742 94.4777 67.6595 94.2377C67.3502 93.9923 67.1315 93.6483 67.0035 93.2057C66.8809 92.763 66.8195 92.211 66.8195 91.5497C66.8195 89.5977 67.5075 88.6217 68.8835 88.6217C69.4169 88.6217 69.8355 88.7657 70.1395 89.0537C70.4489 89.3417 70.6302 89.6963 70.6835 90.1177H69.8435ZM68.8755 91.5017C68.5502 91.5017 68.2729 91.6003 68.0435 91.7977C67.8195 91.9897 67.7075 92.2697 67.7075 92.6377C67.7075 93.0057 67.8115 93.299 68.0195 93.5177C68.2329 93.731 68.5289 93.8377 68.9075 93.8377C69.2435 93.8377 69.5075 93.7337 69.6995 93.5257C69.8969 93.3177 69.9955 93.0403 69.9955 92.6937C69.9955 92.331 69.8995 92.043 69.7075 91.8297C69.5209 91.611 69.2435 91.5017 68.8755 91.5017Z" fill="white"/>
<path d="M32.544 87.4157L30.966 91.5977H30.336L28.758 87.4157H29.34L30.654 91.0217L31.968 87.4157H32.544ZM35.6147 90.6677H33.7907L33.4547 91.5977H32.8787L34.3907 87.4397H35.0207L36.5267 91.5977H35.9507L35.6147 90.6677ZM35.4587 90.2237L34.7027 88.1117L33.9467 90.2237H35.4587ZM37.7316 91.1537H39.1956V91.5977H37.1856V87.4157H37.7316V91.1537ZM40.3215 87.4157V91.5977H39.7755V87.4157H40.3215ZM42.554 87.4157C43.01 87.4157 43.404 87.5017 43.736 87.6737C44.072 87.8417 44.328 88.0837 44.504 88.3997C44.684 88.7157 44.774 89.0877 44.774 89.5157C44.774 89.9437 44.684 90.3157 44.504 90.6317C44.328 90.9437 44.072 91.1837 43.736 91.3517C43.404 91.5157 43.01 91.5977 42.554 91.5977H41.252V87.4157H42.554ZM42.554 91.1477C43.094 91.1477 43.506 91.0057 43.79 90.7217C44.074 90.4337 44.216 90.0317 44.216 89.5157C44.216 88.9957 44.072 88.5897 43.784 88.2977C43.5 88.0057 43.09 87.8597 42.554 87.8597H41.798V91.1477H42.554ZM31.662 93.4157V93.8597H30.522V97.5977H29.976V93.8597H28.83V93.4157H31.662ZM35.5561 93.4157V97.5977H35.0101V95.7017H32.8801V97.5977H32.3341V93.4157H32.8801V95.2517H35.0101V93.4157H35.5561ZM38.6904 97.5977L37.6944 95.8877H37.0344V97.5977H36.4884V93.4157H37.8384C38.1544 93.4157 38.4204 93.4697 38.6364 93.5777C38.8564 93.6857 39.0204 93.8317 39.1284 94.0157C39.2364 94.1997 39.2904 94.4097 39.2904 94.6457C39.2904 94.9337 39.2064 95.1877 39.0384 95.4077C38.8744 95.6277 38.6264 95.7737 38.2944 95.8457L39.3444 97.5977H38.6904ZM37.0344 95.4497H37.8384C38.1344 95.4497 38.3564 95.3777 38.5044 95.2337C38.6524 95.0857 38.7264 94.8897 38.7264 94.6457C38.7264 94.3977 38.6524 94.2057 38.5044 94.0697C38.3604 93.9337 38.1384 93.8657 37.8384 93.8657H37.0344V95.4497ZM40.6728 93.4157V96.0617C40.6728 96.4337 40.7628 96.7097 40.9428 96.8897C41.1268 97.0697 41.3808 97.1597 41.7048 97.1597C42.0248 97.1597 42.2748 97.0697 42.4548 96.8897C42.6388 96.7097 42.7308 96.4337 42.7308 96.0617V93.4157H43.2768V96.0557C43.2768 96.4037 43.2068 96.6977 43.0668 96.9377C42.9268 97.1737 42.7368 97.3497 42.4968 97.4657C42.2608 97.5817 41.9948 97.6397 41.6988 97.6397C41.4028 97.6397 41.1348 97.5817 40.8948 97.4657C40.6588 97.3497 40.4708 97.1737 40.3308 96.9377C40.1948 96.6977 40.1268 96.4037 40.1268 96.0557V93.4157H40.6728Z" fill="white"/>
<path d="M42.2436 29.7786C42.2045 29.3945 42.3389 29.0557 42.6467 28.7622C43.2609 28.1796 43.9047 27.6013 44.5782 27.0273C45.2415 26.4598 45.4642 25.5211 44.6251 24.9902C43.9469 24.563 43.2398 24.5256 42.5037 24.878C40.9036 25.6477 39.9129 26.9086 39.5316 28.6608C39.3456 29.524 39.5683 30.2454 40.1996 30.8252C41.2474 31.7898 43.5937 31.151 44.768 30.6115C47.2386 29.4794 49.4271 28.0408 51.3335 26.2958C53.5861 24.2307 55.4097 21.0456 54.8589 18.1152C54.4698 16.0414 52.6837 14.3734 50.4639 13.8577C46.6292 12.9664 42.7499 14.751 39.6488 16.7838C38.4971 17.5376 37.5782 18.4669 36.8922 19.5718C36.1445 20.778 35.7062 22.4633 37.1524 23.374C38.4416 24.1853 40.3027 23.7257 41.5755 23.1129C43.6382 22.1159 45.5603 20.6442 47.8199 19.7358C49.3201 19.1315 51.282 18.8899 51.5375 20.9204C51.664 21.9203 51.3445 22.9726 50.5788 24.0774C48.913 26.4813 46.662 28.3371 43.8258 29.6448C43.4023 29.839 42.9428 29.9397 42.4475 29.9469C42.3966 29.9482 42.3471 29.9314 42.3091 29.9001C42.2712 29.8688 42.2477 29.8253 42.2436 29.7786Z" stroke="#0E82FD" stroke-width="0.858447"/>
<path d="M38.8729 37.0983C38.8729 36.9172 38.8342 36.7379 38.7589 36.5706C38.6836 36.4033 38.5733 36.2513 38.4342 36.1232C38.2952 35.9952 38.13 35.8936 37.9483 35.8243C37.7666 35.755 37.5718 35.7194 37.3751 35.7194C37.1784 35.7194 36.9837 35.755 36.8019 35.8243C36.6202 35.8936 36.4551 35.9952 36.316 36.1232C36.1769 36.2513 36.0666 36.4033 35.9913 36.5706C35.9161 36.7379 35.8773 36.9172 35.8773 37.0983C35.8773 37.464 36.0351 37.8147 36.316 38.0733C36.5969 38.3319 36.9779 38.4771 37.3751 38.4771C37.7724 38.4771 38.1533 38.3319 38.4342 38.0733C38.7151 37.8147 38.8729 37.464 38.8729 37.0983Z" stroke="#0E82FD" stroke-width="0.858447"/>
<path d="M63.9138 46.3275C63.2739 46.3426 62.5707 46.1117 62.5684 45.4514C62.5605 42.6202 62.5582 39.7919 62.5613 36.9665C62.5613 36.8327 62.4894 36.7766 62.3457 36.7982L60.4447 37.0874C60.3041 37.1089 60.233 37.1859 60.2314 37.3182C60.2267 40.0358 60.2275 42.6849 60.2338 45.2658C60.2384 47.3654 61.9519 48.0041 63.9279 47.7085C64.0435 47.6912 64.1005 47.6294 64.099 47.5229L64.092 46.485C64.092 46.3771 64.0326 46.3246 63.9138 46.3275Z" stroke="#0E82FD" stroke-width="0.858447"/>
<path d="M49.1021 40.7645L50.2905 40.7602C50.4624 40.7602 50.5484 40.6804 50.5484 40.5207V39.3295C50.5484 39.1972 50.4765 39.1324 50.3327 39.1353L49.1631 39.1504C49.1423 39.1507 49.1216 39.1472 49.1023 39.14C49.0829 39.1329 49.0654 39.1223 49.0505 39.1088C49.0357 39.0954 49.0239 39.0793 49.0159 39.0617C49.0078 39.044 49.0037 39.025 49.0037 39.0058L49.0248 36.9429C49.025 36.9227 49.0205 36.9027 49.0115 36.8843C49.0024 36.8659 48.9891 36.8495 48.9724 36.8362C48.9557 36.8228 48.9361 36.8129 48.9148 36.8072C48.8935 36.8014 48.871 36.7998 48.849 36.8026L46.7464 37.0961C46.7046 37.1023 46.6665 37.1219 46.639 37.1516C46.6116 37.1812 46.5964 37.2189 46.5964 37.2579C46.6058 39.6417 46.605 42.1182 46.5941 44.6876C46.5909 45.486 46.6792 46.0686 46.8589 46.4355C47.4801 47.7022 49.1162 47.9007 50.4898 47.687C50.5335 47.6813 50.5554 47.6576 50.5554 47.6158L50.5413 46.3686C50.541 46.3629 50.5395 46.3573 50.5369 46.3522C50.5343 46.3471 50.5305 46.3425 50.526 46.3387C50.5214 46.3349 50.5161 46.3319 50.5103 46.33C50.5044 46.3281 50.4983 46.3273 50.4921 46.3276C49.5202 46.3851 49.0303 46.0586 49.0224 45.3479C49.0037 43.8273 48.999 42.3283 49.0084 40.8508C49.0084 40.8279 49.0183 40.806 49.0358 40.7898C49.0534 40.7736 49.0773 40.7645 49.1021 40.7645Z" stroke="#0E82FD" stroke-width="0.858447"/>
<path d="M31.6113 42.0721C29.5931 41.9275 27.3546 42.4713 27.1014 44.5602C26.8928 46.3038 28.3414 47.7129 30.1908 47.8229C31.6488 47.9092 33.1771 47.5748 34.2811 46.6792C34.4139 46.5713 34.4811 46.4361 34.4827 46.2735C34.4936 44.7932 34.4889 43.3151 34.4686 41.8391C34.417 38.3303 30.1111 38.6022 27.8328 39.8322C27.7994 39.8507 27.7746 39.8798 27.7629 39.914C27.7513 39.9482 27.7536 39.9851 27.7695 40.0178L28.25 40.9759C28.2718 41.0196 28.3103 41.0542 28.3581 41.073C28.4058 41.0918 28.4592 41.0933 28.5078 41.0773C29.354 40.7968 30.2471 40.4429 31.1519 40.5573C31.591 40.6134 31.8722 40.8378 31.9957 41.2305C32.0285 41.3327 32.0605 41.4327 32.0918 41.5305C32.2152 41.9247 32.0551 42.1052 31.6113 42.0721Z" stroke="#0E82FD" stroke-width="0.858447"/>
<path d="M42.9375 40.9694C43.5922 40.6112 44.2892 40.4861 45.0283 40.594C45.2455 40.6256 45.3971 40.5487 45.483 40.3631L45.8721 39.5258C45.9706 39.3129 45.8971 39.182 45.6518 39.1331C44.0157 38.8065 42.5288 39.0928 41.1912 39.9919C40.8771 40.2034 40.413 40.4925 40.4106 40.8874C40.4106 43.1086 40.4106 45.332 40.4106 47.5575C40.4122 47.6596 40.4685 47.7107 40.5794 47.7107L42.6304 47.7129C42.6721 47.7129 42.712 47.6974 42.7414 47.6699C42.7709 47.6424 42.7875 47.605 42.7875 47.5661L42.7898 41.209C42.7898 41.1025 42.839 41.0227 42.9375 40.9694Z" stroke="#0E82FD" stroke-width="0.858447"/>
<path d="M53.9447 43.6777L58.5905 43.682C58.6151 43.6823 58.6396 43.6781 58.6624 43.6697C58.6853 43.6613 58.7061 43.6488 58.7238 43.633C58.7414 43.6171 58.7555 43.5983 58.7652 43.5774C58.7749 43.5566 58.78 43.5342 58.7804 43.5115C58.7874 42.0485 58.5249 40.1064 57.02 39.4245C55.0886 38.5484 52.8477 39.1159 51.9172 41.0256C50.9842 42.9375 51.085 45.4709 52.7751 47.0052C53.1532 47.349 53.5931 47.5777 54.0947 47.6914C55.7027 48.0553 57.2411 47.8122 58.71 46.962C58.8054 46.9059 58.8296 46.8304 58.7827 46.7354L58.2834 45.732C58.275 45.7144 58.2625 45.6986 58.2468 45.6858C58.2311 45.673 58.2125 45.6634 58.1923 45.6577C58.1722 45.652 58.1508 45.6503 58.1298 45.6527C58.1087 45.6551 58.0884 45.6615 58.0701 45.6716C57.0271 46.2326 54.962 46.8174 54.2049 45.6522C53.9095 45.199 53.7627 44.5962 53.7642 43.8438C53.7642 43.7331 53.8244 43.6777 53.9447 43.6777Z" stroke="#0E82FD" stroke-width="0.858447"/>
<path d="M38.533 39.3014C38.5329 39.2844 38.5288 39.2677 38.521 39.2523C38.5133 39.2369 38.502 39.2232 38.488 39.2122C38.474 39.2011 38.4576 39.193 38.4399 39.1883C38.4222 39.1835 38.4036 39.1824 38.3854 39.1849L36.3039 39.4481C36.2731 39.4523 36.2449 39.4666 36.2246 39.4884C36.2044 39.5103 36.1934 39.5381 36.1937 39.5668V47.5575C36.1937 47.589 36.2073 47.6192 36.2315 47.6414C36.2557 47.6637 36.2885 47.6762 36.3226 47.6762L38.4041 47.674C38.4383 47.674 38.4711 47.6615 38.4953 47.6392C38.5195 47.617 38.533 47.5868 38.533 47.5553V39.3014Z" stroke="#0E82FD" stroke-width="0.858447"/>
<path d="M32.0848 45.9154L32.0941 43.9819C32.0944 43.9281 32.0832 43.8747 32.0611 43.8249C32.039 43.775 32.0065 43.7296 31.9653 43.6914C31.9242 43.6531 31.8753 43.6227 31.8214 43.6018C31.7675 43.5809 31.7096 43.57 31.6511 43.5698L30.9784 43.5654C30.7921 43.5646 30.6075 43.597 30.4351 43.6608C30.2627 43.7247 30.1059 43.8187 29.9735 43.9375C29.8412 44.0563 29.736 44.1976 29.6638 44.3534C29.5917 44.5091 29.5541 44.6762 29.5532 44.8451V45.0263C29.5514 45.3674 29.699 45.6952 29.9637 45.9376C30.2283 46.18 30.5882 46.3172 30.9643 46.3189L31.637 46.3232C31.6955 46.3235 31.7535 46.3132 31.8077 46.2929C31.8618 46.2725 31.9111 46.2425 31.9527 46.2047C31.9942 46.1668 32.0273 46.1218 32.05 46.0721C32.0726 46.0225 32.0844 45.9692 32.0848 45.9154Z" stroke="#0E82FD" stroke-width="0.858447"/>
<path d="M54.0504 42.3311L56.2256 42.3225C56.2635 42.3225 56.2999 42.3086 56.3267 42.284C56.3535 42.2593 56.3686 42.2258 56.3686 42.1909V42.1305C56.367 41.7421 56.2382 41.3701 56.0106 41.0962C55.7829 40.8222 55.4749 40.6688 55.1544 40.6696H55.1122C54.9532 40.6699 54.796 40.7082 54.6494 40.7823C54.5028 40.8564 54.3698 40.9648 54.2579 41.1012C54.146 41.2377 54.0574 41.3996 53.9973 41.5777C53.9371 41.7558 53.9066 41.9465 53.9074 42.1391V42.1995C53.9074 42.2168 53.9111 42.2339 53.9183 42.2499C53.9254 42.2659 53.936 42.2804 53.9492 42.2926C53.9625 42.3048 53.9783 42.3145 53.9956 42.3211C54.013 42.3277 54.0316 42.3311 54.0504 42.3311Z" stroke="#0E82FD" stroke-width="0.858447"/>
<path d="M42.4475 29.9469C42.9428 29.9397 43.4023 29.839 43.8258 29.6448C46.662 28.3371 48.913 26.4813 50.5788 24.0774C51.3445 22.9726 51.664 21.9203 51.5375 20.9204C51.282 18.8899 49.3201 19.1315 47.8199 19.7358C45.5603 20.6442 43.6382 22.1159 41.5755 23.1129C40.3027 23.7257 38.4416 24.1853 37.1524 23.374C35.7062 22.4633 36.1445 20.778 36.8922 19.5718C37.5782 18.4669 38.4971 17.5376 39.6488 16.7838C42.7499 14.751 46.6292 12.9664 50.4639 13.8577C52.6837 14.3734 54.4698 16.0414 54.8589 18.1152C55.4097 21.0456 53.5861 24.2307 51.3335 26.2958C49.4271 28.0408 47.2386 29.4794 44.768 30.6115C43.5937 31.151 41.2474 31.7898 40.1996 30.8252C39.5683 30.2454 39.3456 29.524 39.5316 28.6608C39.9129 26.9086 40.9036 25.6477 42.5037 24.878C43.2398 24.5256 43.9469 24.563 44.6251 24.9902C45.4642 25.5211 45.2415 26.4598 44.5782 27.0273C43.9047 27.6013 43.2609 28.1796 42.6467 28.7622C42.3389 29.0557 42.2045 29.3945 42.2436 29.7786C42.2477 29.8253 42.2712 29.8688 42.3091 29.9001C42.3471 29.9314 42.3966 29.9482 42.4475 29.9469Z" fill="white"/>
<path d="M37.3751 38.477C38.2023 38.477 38.8729 37.8597 38.8729 37.0981C38.8729 36.3366 38.2023 35.7192 37.3751 35.7192C36.5479 35.7192 35.8773 36.3366 35.8773 37.0981C35.8773 37.8597 36.5479 38.477 37.3751 38.477Z" fill="white"/>
<path d="M62.5684 45.4514C62.5707 46.1117 63.2739 46.3426 63.9138 46.3275C64.0326 46.3246 64.092 46.3771 64.092 46.485L64.099 47.5229C64.1005 47.6294 64.0435 47.6912 63.9279 47.7085C61.9519 48.0041 60.2384 47.3654 60.2338 45.2658C60.2275 42.6849 60.2267 40.0358 60.2314 37.3182C60.233 37.1859 60.3041 37.1089 60.4447 37.0874L62.3457 36.7982C62.4894 36.7766 62.5613 36.8327 62.5613 36.9665C62.5582 39.7919 62.5605 42.6202 62.5684 45.4514Z" fill="white"/>
<path d="M49.1021 40.7644C49.0773 40.7644 49.0534 40.7735 49.0358 40.7897C49.0183 40.8059 49.0084 40.8278 49.0084 40.8507C48.999 42.3282 49.0037 43.8272 49.0224 45.3478C49.0303 46.0584 49.5202 46.385 50.4921 46.3275C50.4983 46.3272 50.5044 46.328 50.5103 46.3299C50.5161 46.3318 50.5214 46.3347 50.526 46.3385C50.5305 46.3424 50.5343 46.347 50.5369 46.3521C50.5395 46.3572 50.541 46.3628 50.5413 46.3685L50.5554 47.6157C50.5554 47.6574 50.5335 47.6812 50.4898 47.6869C49.1162 47.9006 47.4801 47.702 46.8589 46.4353C46.6792 46.0685 46.5909 45.4859 46.5941 44.6874C46.605 42.1181 46.6058 39.6416 46.5964 37.2578C46.5964 37.2188 46.6116 37.1811 46.639 37.1515C46.6665 37.1218 46.7046 37.1021 46.7464 37.096L48.849 36.8025C48.871 36.7997 48.8935 36.8013 48.9148 36.807C48.9361 36.8128 48.9557 36.8227 48.9724 36.836C48.9891 36.8493 49.0024 36.8658 49.0115 36.8842C49.0205 36.9026 49.025 36.9226 49.0248 36.9428L49.0037 39.0057C49.0037 39.0249 49.0078 39.0439 49.0159 39.0615C49.0239 39.0792 49.0357 39.0953 49.0505 39.1087C49.0654 39.1222 49.0829 39.1328 49.1023 39.1399C49.1216 39.147 49.1423 39.1506 49.1631 39.1503L50.3327 39.1352C50.4765 39.1323 50.5484 39.197 50.5484 39.3294V40.5206C50.5484 40.6802 50.4624 40.7601 50.2905 40.7601L49.1021 40.7644Z" fill="white"/>
<path d="M31.6113 42.0721C32.0551 42.1052 32.2152 41.9247 32.0918 41.5305C32.0605 41.4327 32.0285 41.3327 31.9957 41.2305C31.8722 40.8378 31.591 40.6134 31.1519 40.5573C30.2471 40.4429 29.354 40.7968 28.5078 41.0773C28.4592 41.0933 28.4058 41.0918 28.3581 41.073C28.3103 41.0542 28.2718 41.0196 28.25 40.9759L27.7695 40.0178C27.7536 39.9851 27.7513 39.9482 27.7629 39.914C27.7746 39.8798 27.7994 39.8507 27.8328 39.8322C30.1111 38.6022 34.417 38.3303 34.4686 41.8391C34.4889 43.3151 34.4936 44.7932 34.4827 46.2735C34.4811 46.4361 34.4139 46.5713 34.2811 46.6792C33.1771 47.5748 31.6488 47.9092 30.1908 47.8229C28.3414 47.7129 26.8928 46.3038 27.1014 44.5602C27.3546 42.4713 29.5931 41.9275 31.6113 42.0721ZM32.0848 45.9153L32.0941 43.9819C32.0944 43.928 32.0832 43.8746 32.0611 43.8248C32.039 43.7749 32.0065 43.7296 31.9654 43.6913C31.9242 43.653 31.8753 43.6226 31.8214 43.6017C31.7675 43.5809 31.7096 43.57 31.6511 43.5697L30.9784 43.5654C30.7922 43.5645 30.6076 43.5969 30.4351 43.6608C30.2627 43.7246 30.1059 43.8186 29.9735 43.9375C29.8412 44.0563 29.736 44.1976 29.6639 44.3533C29.5917 44.509 29.5542 44.6761 29.5533 44.845V45.0263C29.5514 45.3674 29.699 45.6952 29.9637 45.9376C30.2283 46.18 30.5882 46.3171 30.9643 46.3189L31.6371 46.3232C31.6955 46.3235 31.7535 46.3131 31.8077 46.2928C31.8618 46.2724 31.9111 46.2425 31.9527 46.2046C31.9942 46.1667 32.0273 46.1217 32.05 46.0721C32.0726 46.0224 32.0845 45.9692 32.0848 45.9153Z" fill="white"/>
<path d="M42.7898 41.209L42.7875 47.5661C42.7875 47.605 42.7709 47.6424 42.7414 47.6699C42.712 47.6974 42.6721 47.7129 42.6304 47.7129L40.5794 47.7107C40.4685 47.7107 40.4122 47.6596 40.4106 47.5575C40.4106 45.332 40.4106 43.1086 40.4106 40.8874C40.413 40.4925 40.8771 40.2034 41.1912 39.9919C42.5288 39.0928 44.0157 38.8065 45.6518 39.1331C45.8971 39.182 45.9706 39.3129 45.8721 39.5258L45.483 40.3631C45.3971 40.5487 45.2455 40.6256 45.0283 40.594C44.2892 40.4861 43.5922 40.6112 42.9375 40.9694C42.839 41.0227 42.7898 41.1025 42.7898 41.209Z" fill="white"/>
<path d="M53.7643 43.8437C53.7628 44.5961 53.9097 45.1989 54.205 45.652C54.9621 46.8173 57.0272 46.2325 58.0702 45.6715C58.0885 45.6614 58.1088 45.6549 58.1299 45.6525C58.151 45.6502 58.1723 45.6519 58.1925 45.6576C58.2126 45.6633 58.2312 45.6729 58.2469 45.6857C58.2626 45.6985 58.2751 45.7142 58.2836 45.7319L58.7828 46.7353C58.8297 46.8302 58.8055 46.9058 58.7102 46.9619C57.2413 47.8121 55.7028 48.0552 54.0948 47.6912C53.5932 47.5776 53.1533 47.3489 52.7752 47.005C51.0852 45.4708 50.9844 42.9374 51.9173 41.0255C52.8478 39.1158 55.0887 38.5482 57.0201 39.4244C58.525 40.1062 58.7875 42.0484 58.7805 43.5114C58.7802 43.5341 58.775 43.5565 58.7653 43.5773C58.7556 43.5981 58.7415 43.617 58.7239 43.6328C58.7063 43.6487 58.6854 43.6612 58.6626 43.6696C58.6397 43.678 58.6152 43.6822 58.5906 43.6819L53.9448 43.6776C53.8245 43.6776 53.7643 43.7329 53.7643 43.8437ZM54.0503 42.331L56.2255 42.3224C56.2635 42.3224 56.2998 42.3085 56.3266 42.2838C56.3534 42.2592 56.3685 42.2257 56.3685 42.1908V42.1303C56.3669 41.742 56.2382 41.37 56.0105 41.0961C55.7828 40.8221 55.4749 40.6687 55.1543 40.6695H55.1121C54.9532 40.6698 54.7959 40.7081 54.6494 40.7822C54.5028 40.8563 54.3697 40.9647 54.2578 41.1011C54.1459 41.2376 54.0574 41.3995 53.9972 41.5776C53.9371 41.7557 53.9065 41.9464 53.9073 42.139V42.1994C53.9073 42.2167 53.911 42.2338 53.9182 42.2498C53.9254 42.2657 53.9359 42.2803 53.9492 42.2925C53.9625 42.3047 53.9782 42.3144 53.9956 42.321C54.0129 42.3276 54.0315 42.331 54.0503 42.331Z" fill="white"/>
<path d="M38.533 39.3014V47.5553C38.533 47.5868 38.5195 47.617 38.4953 47.6392C38.4711 47.6615 38.4383 47.674 38.4041 47.674L36.3226 47.6762C36.2885 47.6762 36.2557 47.6637 36.2315 47.6414C36.2073 47.6192 36.1937 47.589 36.1937 47.5575V39.5668C36.1934 39.5381 36.2044 39.5103 36.2246 39.4884C36.2449 39.4666 36.2731 39.4523 36.3039 39.4481L38.3854 39.1849C38.4036 39.1824 38.4222 39.1835 38.4399 39.1883C38.4576 39.193 38.474 39.2011 38.488 39.2122C38.502 39.2232 38.5133 39.2369 38.521 39.2523C38.5288 39.2677 38.5329 39.2844 38.533 39.3014Z" fill="white"/>
<path d="M54.0502 42.331C54.0315 42.331 54.0129 42.3276 53.9955 42.321C53.9782 42.3144 53.9624 42.3047 53.9491 42.2925C53.9358 42.2802 53.9253 42.2657 53.9181 42.2498C53.9109 42.2338 53.9072 42.2167 53.9072 42.1994V42.139C53.9065 41.9464 53.937 41.7557 53.9972 41.5776C54.0573 41.3995 54.1459 41.2376 54.2577 41.1011C54.3696 40.9646 54.5027 40.8563 54.6493 40.7822C54.7959 40.7081 54.9531 40.6698 55.1121 40.6694H55.1542C55.4748 40.6687 55.7828 40.8221 56.0104 41.0961C56.2381 41.37 56.3669 41.742 56.3684 42.1303V42.1908C56.3684 42.2257 56.3534 42.2591 56.3266 42.2838C56.2997 42.3085 56.2634 42.3224 56.2254 42.3224L54.0502 42.331Z" fill="#0E82FD"/>
<path d="M32.0848 45.9154C32.0844 45.9692 32.0726 46.0225 32.05 46.0721C32.0273 46.1218 31.9942 46.1668 31.9527 46.2047C31.9111 46.2425 31.8618 46.2725 31.8077 46.2929C31.7535 46.3132 31.6955 46.3235 31.637 46.3232L30.9643 46.3189C30.5882 46.3172 30.2283 46.18 29.9637 45.9376C29.699 45.6952 29.5514 45.3674 29.5532 45.0263V44.8451C29.5541 44.6762 29.5917 44.5091 29.6638 44.3534C29.736 44.1976 29.8412 44.0563 29.9735 43.9375C30.1059 43.8187 30.2627 43.7247 30.4351 43.6608C30.6075 43.597 30.7921 43.5646 30.9784 43.5654L31.6511 43.5698C31.7096 43.57 31.7675 43.5809 31.8214 43.6018C31.8753 43.6227 31.9242 43.6531 31.9653 43.6914C32.0065 43.7296 32.039 43.775 32.0611 43.8249C32.0832 43.8747 32.0944 43.9281 32.0941 43.9819L32.0848 45.9154Z" fill="#0E82FD"/>
<ellipse cx="190.433" cy="113.162" rx="9.45412" ry="8.76235" fill="#E33A24"/>
<ellipse cx="203.939" cy="113.162" rx="9.45412" ry="8.76235" fill="#F8CB2E" fill-opacity="0.8"/>
<path d="M30.712 68.9577C30.616 69.0163 30.52 69.067 30.424 69.1097C30.3333 69.147 30.2373 69.1737 30.136 69.1897C30.344 69.2217 30.536 69.2963 30.712 69.4137L31.984 70.1577L31.52 70.9577L30.248 70.2137C30.152 70.155 30.0613 70.0937 29.976 70.0297C29.896 69.9657 29.8267 69.8963 29.768 69.8217C29.8373 69.9977 29.872 70.2003 29.872 70.4297V71.9017H28.928V70.4377C28.928 70.331 28.9333 70.227 28.944 70.1257C28.96 70.0243 28.984 69.9283 29.016 69.8377C28.9573 69.9123 28.888 69.979 28.808 70.0377C28.728 70.0963 28.6427 70.155 28.552 70.2137L27.288 70.9497L26.816 70.1497L28.088 69.4137C28.2907 69.2963 28.4827 69.2217 28.664 69.1897C28.4773 69.1577 28.2853 69.0803 28.088 68.9577L26.816 68.2137L27.28 67.4137L28.552 68.1657C28.648 68.2243 28.736 68.2857 28.816 68.3497C28.896 68.4083 28.968 68.475 29.032 68.5497C28.9627 68.3737 28.928 68.1737 28.928 67.9497V66.4697H29.872V67.9337C29.872 68.0457 29.864 68.1523 29.848 68.2537C29.8373 68.355 29.8133 68.451 29.776 68.5417C29.84 68.467 29.912 68.4003 29.992 68.3417C30.072 68.283 30.1573 68.2243 30.248 68.1657L31.512 67.4297L31.984 68.2297L30.712 68.9577ZM38.6289 68.9577C38.5329 69.0163 38.4369 69.067 38.3409 69.1097C38.2502 69.147 38.1542 69.1737 38.0529 69.1897C38.2609 69.2217 38.4529 69.2963 38.6289 69.4137L39.9009 70.1577L39.4369 70.9577L38.1649 70.2137C38.0689 70.155 37.9782 70.0937 37.8929 70.0297C37.8129 69.9657 37.7435 69.8963 37.6849 69.8217C37.7542 69.9977 37.7889 70.2003 37.7889 70.4297V71.9017H36.8449V70.4377C36.8449 70.331 36.8502 70.227 36.8609 70.1257C36.8769 70.0243 36.9009 69.9283 36.9329 69.8377C36.8742 69.9123 36.8049 69.979 36.7249 70.0377C36.6449 70.0963 36.5595 70.155 36.4689 70.2137L35.2049 70.9497L34.7329 70.1497L36.0049 69.4137C36.2075 69.2963 36.3995 69.2217 36.5809 69.1897C36.3942 69.1577 36.2022 69.0803 36.0049 68.9577L34.7329 68.2137L35.1969 67.4137L36.4689 68.1657C36.5649 68.2243 36.6529 68.2857 36.7329 68.3497C36.8129 68.4083 36.8849 68.475 36.9489 68.5497C36.8795 68.3737 36.8449 68.1737 36.8449 67.9497V66.4697H37.7889V67.9337C37.7889 68.0457 37.7809 68.1523 37.7649 68.2537C37.7542 68.355 37.7302 68.451 37.6929 68.5417C37.7569 68.467 37.8289 68.4003 37.9089 68.3417C37.9889 68.283 38.0742 68.2243 38.1649 68.1657L39.4289 67.4297L39.9009 68.2297L38.6289 68.9577ZM46.5458 68.9577C46.4498 69.0163 46.3538 69.067 46.2578 69.1097C46.1671 69.147 46.0711 69.1737 45.9697 69.1897C46.1778 69.2217 46.3698 69.2963 46.5458 69.4137L47.8177 70.1577L47.3538 70.9577L46.0817 70.2137C45.9857 70.155 45.8951 70.0937 45.8097 70.0297C45.7297 69.9657 45.6604 69.8963 45.6017 69.8217C45.6711 69.9977 45.7057 70.2003 45.7057 70.4297V71.9017H44.7617V70.4377C44.7617 70.331 44.7671 70.227 44.7778 70.1257C44.7937 70.0243 44.8177 69.9283 44.8497 69.8377C44.7911 69.9123 44.7217 69.979 44.6417 70.0377C44.5617 70.0963 44.4764 70.155 44.3857 70.2137L43.1217 70.9497L42.6497 70.1497L43.9217 69.4137C44.1244 69.2963 44.3164 69.2217 44.4977 69.1897C44.3111 69.1577 44.1191 69.0803 43.9217 68.9577L42.6497 68.2137L43.1137 67.4137L44.3857 68.1657C44.4817 68.2243 44.5697 68.2857 44.6497 68.3497C44.7297 68.4083 44.8017 68.475 44.8657 68.5497C44.7964 68.3737 44.7617 68.1737 44.7617 67.9497V66.4697H45.7057V67.9337C45.7057 68.0457 45.6978 68.1523 45.6818 68.2537C45.6711 68.355 45.6471 68.451 45.6098 68.5417C45.6738 68.467 45.7457 68.4003 45.8257 68.3417C45.9057 68.283 45.9911 68.2243 46.0817 68.1657L47.3457 67.4297L47.8177 68.2297L46.5458 68.9577ZM54.4626 68.9577C54.3666 69.0163 54.2706 69.067 54.1746 69.1097C54.084 69.147 53.988 69.1737 53.8866 69.1897C54.0946 69.2217 54.2866 69.2963 54.4626 69.4137L55.7346 70.1577L55.2706 70.9577L53.9986 70.2137C53.9026 70.155 53.812 70.0937 53.7266 70.0297C53.6466 69.9657 53.5773 69.8963 53.5186 69.8217C53.588 69.9977 53.6226 70.2003 53.6226 70.4297V71.9017H52.6786V70.4377C52.6786 70.331 52.684 70.227 52.6946 70.1257C52.7106 70.0243 52.7346 69.9283 52.7666 69.8377C52.708 69.9123 52.6386 69.979 52.5586 70.0377C52.4786 70.0963 52.3933 70.155 52.3026 70.2137L51.0386 70.9497L50.5666 70.1497L51.8386 69.4137C52.0413 69.2963 52.2333 69.2217 52.4146 69.1897C52.228 69.1577 52.036 69.0803 51.8386 68.9577L50.5666 68.2137L51.0306 67.4137L52.3026 68.1657C52.3986 68.2243 52.4866 68.2857 52.5666 68.3497C52.6466 68.4083 52.7186 68.475 52.7826 68.5497C52.7133 68.3737 52.6786 68.1737 52.6786 67.9497V66.4697H53.6226V67.9337C53.6226 68.0457 53.6146 68.1523 53.5986 68.2537C53.588 68.355 53.564 68.451 53.5266 68.5417C53.5906 68.467 53.6626 68.4003 53.7426 68.3417C53.8226 68.283 53.908 68.2243 53.9986 68.1657L55.2626 67.4297L55.7346 68.2297L54.4626 68.9577ZM77.4114 68.9577C77.3154 69.0163 77.2194 69.067 77.1234 69.1097C77.0327 69.147 76.9367 69.1737 76.8354 69.1897C77.0434 69.2217 77.2354 69.2963 77.4114 69.4137L78.6834 70.1577L78.2194 70.9577L76.9474 70.2137C76.8514 70.155 76.7607 70.0937 76.6754 70.0297C76.5954 69.9657 76.526 69.8963 76.4674 69.8217C76.5367 69.9977 76.5714 70.2003 76.5714 70.4297V71.9017H75.6274V70.4377C75.6274 70.331 75.6327 70.227 75.6434 70.1257C75.6594 70.0243 75.6834 69.9283 75.7154 69.8377C75.6567 69.9123 75.5874 69.979 75.5074 70.0377C75.4274 70.0963 75.342 70.155 75.2514 70.2137L73.9874 70.9497L73.5154 70.1497L74.7874 69.4137C74.99 69.2963 75.182 69.2217 75.3634 69.1897C75.1767 69.1577 74.9847 69.0803 74.7874 68.9577L73.5154 68.2137L73.9794 67.4137L75.2514 68.1657C75.3474 68.2243 75.4354 68.2857 75.5154 68.3497C75.5954 68.4083 75.6674 68.475 75.7314 68.5497C75.662 68.3737 75.6274 68.1737 75.6274 67.9497V66.4697H76.5714V67.9337C76.5714 68.0457 76.5634 68.1523 76.5474 68.2537C76.5367 68.355 76.5127 68.451 76.4754 68.5417C76.5394 68.467 76.6114 68.4003 76.6914 68.3417C76.7714 68.283 76.8567 68.2243 76.9474 68.1657L78.2114 67.4297L78.6834 68.2297L77.4114 68.9577ZM85.3282 68.9577C85.2322 69.0163 85.1362 69.067 85.0402 69.1097C84.9496 69.147 84.8536 69.1737 84.7522 69.1897C84.9602 69.2217 85.1522 69.2963 85.3282 69.4137L86.6002 70.1577L86.1362 70.9577L84.8642 70.2137C84.7682 70.155 84.6776 70.0937 84.5922 70.0297C84.5122 69.9657 84.4429 69.8963 84.3842 69.8217C84.4536 69.9977 84.4882 70.2003 84.4882 70.4297V71.9017H83.5442V70.4377C83.5442 70.331 83.5496 70.227 83.5602 70.1257C83.5762 70.0243 83.6002 69.9283 83.6322 69.8377C83.5736 69.9123 83.5042 69.979 83.4242 70.0377C83.3442 70.0963 83.2589 70.155 83.1682 70.2137L81.9042 70.9497L81.4322 70.1497L82.7042 69.4137C82.9069 69.2963 83.0989 69.2217 83.2802 69.1897C83.0936 69.1577 82.9016 69.0803 82.7042 68.9577L81.4322 68.2137L81.8962 67.4137L83.1682 68.1657C83.2642 68.2243 83.3522 68.2857 83.4322 68.3497C83.5122 68.4083 83.5842 68.475 83.6482 68.5497C83.5789 68.3737 83.5442 68.1737 83.5442 67.9497V66.4697H84.4882V67.9337C84.4882 68.0457 84.4802 68.1523 84.4642 68.2537C84.4536 68.355 84.4296 68.451 84.3922 68.5417C84.4562 68.467 84.5282 68.4003 84.6082 68.3417C84.6882 68.283 84.7736 68.2243 84.8642 68.1657L86.1282 67.4297L86.6002 68.2297L85.3282 68.9577ZM93.2451 68.9577C93.1491 69.0163 93.0531 69.067 92.9571 69.1097C92.8665 69.147 92.7705 69.1737 92.6691 69.1897C92.8771 69.2217 93.0691 69.2963 93.2451 69.4137L94.5171 70.1577L94.0531 70.9577L92.7811 70.2137C92.6851 70.155 92.5945 70.0937 92.5091 70.0297C92.4291 69.9657 92.3598 69.8963 92.3011 69.8217C92.3705 69.9977 92.4051 70.2003 92.4051 70.4297V71.9017H91.4611V70.4377C91.4611 70.331 91.4665 70.227 91.4771 70.1257C91.4931 70.0243 91.5171 69.9283 91.5491 69.8377C91.4905 69.9123 91.4211 69.979 91.3411 70.0377C91.2611 70.0963 91.1758 70.155 91.0851 70.2137L89.8211 70.9497L89.3491 70.1497L90.6211 69.4137C90.8238 69.2963 91.0158 69.2217 91.1971 69.1897C91.0105 69.1577 90.8185 69.0803 90.6211 68.9577L89.3491 68.2137L89.8131 67.4137L91.0851 68.1657C91.1811 68.2243 91.2691 68.2857 91.3491 68.3497C91.4291 68.4083 91.5011 68.475 91.5651 68.5497C91.4958 68.3737 91.4611 68.1737 91.4611 67.9497V66.4697H92.4051V67.9337C92.4051 68.0457 92.3971 68.1523 92.3811 68.2537C92.3705 68.355 92.3465 68.451 92.3091 68.5417C92.3731 68.467 92.4451 68.4003 92.5251 68.3417C92.6051 68.283 92.6905 68.2243 92.7811 68.1657L94.0451 67.4297L94.5171 68.2297L93.2451 68.9577ZM101.162 68.9577C101.066 69.0163 100.97 69.067 100.874 69.1097C100.783 69.147 100.687 69.1737 100.586 69.1897C100.794 69.2217 100.986 69.2963 101.162 69.4137L102.434 70.1577L101.97 70.9577L100.698 70.2137C100.602 70.155 100.511 70.0937 100.426 70.0297C100.346 69.9657 100.277 69.8963 100.218 69.8217C100.287 69.9977 100.322 70.2003 100.322 70.4297V71.9017H99.378V70.4377C99.378 70.331 99.3833 70.227 99.394 70.1257C99.41 70.0243 99.434 69.9283 99.466 69.8377C99.4073 69.9123 99.338 69.979 99.258 70.0377C99.178 70.0963 99.0927 70.155 99.002 70.2137L97.738 70.9497L97.266 70.1497L98.538 69.4137C98.7407 69.2963 98.9327 69.2217 99.114 69.1897C98.9273 69.1577 98.7353 69.0803 98.538 68.9577L97.266 68.2137L97.73 67.4137L99.002 68.1657C99.098 68.2243 99.186 68.2857 99.266 68.3497C99.346 68.4083 99.418 68.475 99.482 68.5497C99.4127 68.3737 99.378 68.1737 99.378 67.9497V66.4697H100.322V67.9337C100.322 68.0457 100.314 68.1523 100.298 68.2537C100.287 68.355 100.263 68.451 100.226 68.5417C100.29 68.467 100.362 68.4003 100.442 68.3417C100.522 68.283 100.607 68.2243 100.698 68.1657L101.962 67.4297L102.434 68.2297L101.162 68.9577ZM124.111 68.9577C124.015 69.0163 123.919 69.067 123.823 69.1097C123.732 69.147 123.636 69.1737 123.535 69.1897C123.743 69.2217 123.935 69.2963 124.111 69.4137L125.383 70.1577L124.919 70.9577L123.647 70.2137C123.551 70.155 123.46 70.0937 123.375 70.0297C123.295 69.9657 123.225 69.8963 123.167 69.8217C123.236 69.9977 123.271 70.2003 123.271 70.4297V71.9017H122.327V70.4377C122.327 70.331 122.332 70.227 122.343 70.1257C122.359 70.0243 122.383 69.9283 122.415 69.8377C122.356 69.9123 122.287 69.979 122.207 70.0377C122.127 70.0963 122.041 70.155 121.951 70.2137L120.687 70.9497L120.215 70.1497L121.487 69.4137C121.689 69.2963 121.881 69.2217 122.063 69.1897C121.876 69.1577 121.684 69.0803 121.487 68.9577L120.215 68.2137L120.679 67.4137L121.951 68.1657C122.047 68.2243 122.135 68.2857 122.215 68.3497C122.295 68.4083 122.367 68.475 122.431 68.5497C122.361 68.3737 122.327 68.1737 122.327 67.9497V66.4697H123.271V67.9337C123.271 68.0457 123.263 68.1523 123.247 68.2537C123.236 68.355 123.212 68.451 123.175 68.5417C123.239 68.467 123.311 68.4003 123.391 68.3417C123.471 68.283 123.556 68.2243 123.647 68.1657L124.911 67.4297L125.383 68.2297L124.111 68.9577ZM132.028 68.9577C131.932 69.0163 131.836 69.067 131.74 69.1097C131.649 69.147 131.553 69.1737 131.452 69.1897C131.66 69.2217 131.852 69.2963 132.028 69.4137L133.3 70.1577L132.836 70.9577L131.564 70.2137C131.468 70.155 131.377 70.0937 131.292 70.0297C131.212 69.9657 131.142 69.8963 131.084 69.8217C131.153 69.9977 131.188 70.2003 131.188 70.4297V71.9017H130.244V70.4377C130.244 70.331 130.249 70.227 130.26 70.1257C130.276 70.0243 130.3 69.9283 130.332 69.8377C130.273 69.9123 130.204 69.979 130.124 70.0377C130.044 70.0963 129.958 70.155 129.868 70.2137L128.604 70.9497L128.132 70.1497L129.404 69.4137C129.606 69.2963 129.798 69.2217 129.98 69.1897C129.793 69.1577 129.601 69.0803 129.404 68.9577L128.132 68.2137L128.596 67.4137L129.868 68.1657C129.964 68.2243 130.052 68.2857 130.132 68.3497C130.212 68.4083 130.284 68.475 130.348 68.5497C130.278 68.3737 130.244 68.1737 130.244 67.9497V66.4697H131.188V67.9337C131.188 68.0457 131.18 68.1523 131.164 68.2537C131.153 68.355 131.129 68.451 131.092 68.5417C131.156 68.467 131.228 68.4003 131.308 68.3417C131.388 68.283 131.473 68.2243 131.564 68.1657L132.828 67.4297L133.3 68.2297L132.028 68.9577ZM139.944 68.9577C139.848 69.0163 139.752 69.067 139.656 69.1097C139.566 69.147 139.47 69.1737 139.368 69.1897C139.576 69.2217 139.768 69.2963 139.944 69.4137L141.216 70.1577L140.752 70.9577L139.48 70.2137C139.384 70.155 139.294 70.0937 139.208 70.0297C139.128 69.9657 139.059 69.8963 139 69.8217C139.07 69.9977 139.104 70.2003 139.104 70.4297V71.9017H138.16V70.4377C138.16 70.331 138.166 70.227 138.176 70.1257C138.192 70.0243 138.216 69.9283 138.248 69.8377C138.19 69.9123 138.12 69.979 138.04 70.0377C137.96 70.0963 137.875 70.155 137.784 70.2137L136.52 70.9497L136.048 70.1497L137.32 69.4137C137.523 69.2963 137.715 69.2217 137.896 69.1897C137.71 69.1577 137.518 69.0803 137.32 68.9577L136.048 68.2137L136.512 67.4137L137.784 68.1657C137.88 68.2243 137.968 68.2857 138.048 68.3497C138.128 68.4083 138.2 68.475 138.264 68.5497C138.195 68.3737 138.16 68.1737 138.16 67.9497V66.4697H139.104V67.9337C139.104 68.0457 139.096 68.1523 139.08 68.2537C139.07 68.355 139.046 68.451 139.008 68.5417C139.072 68.467 139.144 68.4003 139.224 68.3417C139.304 68.283 139.39 68.2243 139.48 68.1657L140.744 67.4297L141.216 68.2297L139.944 68.9577ZM147.861 68.9577C147.765 69.0163 147.669 69.067 147.573 69.1097C147.483 69.147 147.387 69.1737 147.285 69.1897C147.493 69.2217 147.685 69.2963 147.861 69.4137L149.133 70.1577L148.669 70.9577L147.397 70.2137C147.301 70.155 147.211 70.0937 147.125 70.0297C147.045 69.9657 146.976 69.8963 146.917 69.8217C146.987 69.9977 147.021 70.2003 147.021 70.4297V71.9017H146.077V70.4377C146.077 70.331 146.083 70.227 146.093 70.1257C146.109 70.0243 146.133 69.9283 146.165 69.8377C146.107 69.9123 146.037 69.979 145.957 70.0377C145.877 70.0963 145.792 70.155 145.701 70.2137L144.437 70.9497L143.965 70.1497L145.237 69.4137C145.44 69.2963 145.632 69.2217 145.813 69.1897C145.627 69.1577 145.435 69.0803 145.237 68.9577L143.965 68.2137L144.429 67.4137L145.701 68.1657C145.797 68.2243 145.885 68.2857 145.965 68.3497C146.045 68.4083 146.117 68.475 146.181 68.5497C146.112 68.3737 146.077 68.1737 146.077 67.9497V66.4697H147.021V67.9337C147.021 68.0457 147.013 68.1523 146.997 68.2537C146.987 68.355 146.963 68.451 146.925 68.5417C146.989 68.467 147.061 68.4003 147.141 68.3417C147.221 68.283 147.307 68.2243 147.397 68.1657L148.661 67.4297L149.133 68.2297L147.861 68.9577Z" fill="#FDFDFD"/>
<path d="M172.88 69.8137C172.88 70.8217 172.771 71.699 172.552 72.4457C172.339 73.187 172.04 73.8003 171.656 74.2857C171.277 74.771 170.827 75.1337 170.304 75.3737C169.787 75.6083 169.227 75.7257 168.624 75.7257C168.021 75.7257 167.461 75.6083 166.944 75.3737C166.432 75.1337 165.987 74.771 165.608 74.2857C165.229 73.8003 164.933 73.187 164.72 72.4457C164.507 71.699 164.4 70.8217 164.4 69.8137C164.4 68.8003 164.507 67.923 164.72 67.1817C164.933 66.4403 165.229 65.827 165.608 65.3417C165.987 64.8563 166.432 64.4963 166.944 64.2617C167.461 64.0217 168.021 63.9017 168.624 63.9017C169.227 63.9017 169.787 64.0217 170.304 64.2617C170.827 64.4963 171.277 64.8563 171.656 65.3417C172.04 65.827 172.339 66.4403 172.552 67.1817C172.771 67.923 172.88 68.8003 172.88 69.8137ZM170.84 69.8137C170.84 68.9763 170.779 68.283 170.656 67.7337C170.533 67.1843 170.368 66.747 170.16 66.4217C169.957 66.0963 169.723 65.8697 169.456 65.7417C169.189 65.6083 168.912 65.5417 168.624 65.5417C168.341 65.5417 168.067 65.6083 167.8 65.7417C167.539 65.8697 167.307 66.0963 167.104 66.4217C166.901 66.747 166.739 67.1843 166.616 67.7337C166.499 68.283 166.44 68.9763 166.44 69.8137C166.44 70.651 166.499 71.3443 166.616 71.8937C166.739 72.443 166.901 72.8803 167.104 73.2057C167.307 73.531 167.539 73.7603 167.8 73.8937C168.067 74.0217 168.341 74.0857 168.624 74.0857C168.912 74.0857 169.189 74.0217 169.456 73.8937C169.723 73.7603 169.957 73.531 170.16 73.2057C170.368 72.8803 170.533 72.443 170.656 71.8937C170.779 71.3443 170.84 70.651 170.84 69.8137ZM175.265 67.2537C175.345 66.699 175.5 66.2137 175.729 65.7977C175.959 65.3763 176.244 65.027 176.585 64.7497C176.932 64.467 177.327 64.2563 177.769 64.1177C178.217 63.9737 178.697 63.9017 179.209 63.9017C179.743 63.9017 180.223 63.979 180.649 64.1337C181.081 64.283 181.449 64.4937 181.753 64.7657C182.057 65.0323 182.289 65.347 182.449 65.7097C182.615 66.0723 182.697 66.4643 182.697 66.8857C182.697 67.2537 182.655 67.579 182.569 67.8617C182.489 68.139 182.372 68.3817 182.217 68.5897C182.063 68.7977 181.871 68.9737 181.641 69.1177C181.412 69.2617 181.153 69.3817 180.865 69.4777C181.559 69.6963 182.076 70.0297 182.417 70.4777C182.759 70.9257 182.929 71.4883 182.929 72.1657C182.929 72.7417 182.823 73.251 182.609 73.6937C182.396 74.1363 182.108 74.5097 181.745 74.8137C181.383 75.1123 180.961 75.339 180.481 75.4937C180.007 75.6483 179.503 75.7257 178.969 75.7257C178.388 75.7257 177.881 75.659 177.449 75.5257C177.017 75.3923 176.641 75.195 176.321 74.9337C176.001 74.6723 175.729 74.3523 175.505 73.9737C175.281 73.595 175.089 73.1577 174.929 72.6617L175.801 72.3017C176.031 72.2057 176.244 72.1817 176.441 72.2297C176.644 72.2723 176.791 72.379 176.881 72.5497C176.977 72.7363 177.081 72.9203 177.193 73.1017C177.311 73.283 177.449 73.4457 177.609 73.5897C177.769 73.7283 177.956 73.843 178.169 73.9337C178.388 74.019 178.647 74.0617 178.945 74.0617C179.281 74.0617 179.575 74.0083 179.825 73.9017C180.076 73.7897 180.284 73.6457 180.449 73.4697C180.62 73.2937 180.745 73.099 180.825 72.8857C180.911 72.667 180.953 72.4483 180.953 72.2297C180.953 71.9523 180.924 71.7017 180.865 71.4777C180.807 71.2483 180.684 71.0537 180.497 70.8937C180.311 70.7337 180.041 70.6083 179.689 70.5177C179.343 70.427 178.876 70.3817 178.289 70.3817V68.9737C178.775 68.9683 179.177 68.923 179.497 68.8377C179.817 68.7523 180.071 68.635 180.257 68.4857C180.449 68.331 180.583 68.147 180.657 67.9337C180.732 67.7203 180.769 67.4857 180.769 67.2297C180.769 66.6857 180.617 66.2723 180.313 65.9897C180.009 65.707 179.604 65.5657 179.097 65.5657C178.863 65.5657 178.647 65.6003 178.449 65.6697C178.252 65.7337 178.073 65.827 177.913 65.9497C177.759 66.067 177.628 66.2057 177.521 66.3657C177.415 66.5257 177.335 66.7017 177.281 66.8937C177.191 67.139 177.071 67.3017 176.921 67.3817C176.777 67.4617 176.572 67.4803 176.305 67.4377L175.265 67.2537ZM192.651 73.7577C192.864 73.7577 193.032 73.819 193.155 73.9417C193.283 74.059 193.347 74.2163 193.347 74.4137V75.5977H185.41V74.9417C185.41 74.8083 185.437 74.6697 185.49 74.5257C185.549 74.3763 185.64 74.243 185.762 74.1257L189.274 70.6057C189.568 70.307 189.829 70.0217 190.058 69.7497C190.293 69.4777 190.488 69.2083 190.642 68.9417C190.797 68.675 190.915 68.4057 190.995 68.1337C191.08 67.8563 191.122 67.5657 191.122 67.2617C191.122 66.9843 191.082 66.7417 191.003 66.5337C190.923 66.3203 190.808 66.1417 190.659 65.9977C190.515 65.8537 190.339 65.747 190.13 65.6777C189.928 65.603 189.698 65.5657 189.443 65.5657C189.208 65.5657 188.989 65.6003 188.786 65.6697C188.589 65.7337 188.413 65.827 188.258 65.9497C188.104 66.067 187.973 66.2057 187.866 66.3657C187.76 66.5257 187.68 66.7017 187.626 66.8937C187.536 67.139 187.418 67.3017 187.274 67.3817C187.13 67.4617 186.922 67.4803 186.65 67.4377L185.61 67.2537C185.69 66.699 185.845 66.2137 186.074 65.7977C186.304 65.3763 186.589 65.027 186.93 64.7497C187.277 64.467 187.672 64.2563 188.115 64.1177C188.562 63.9737 189.043 63.9017 189.555 63.9017C190.088 63.9017 190.576 63.9817 191.018 64.1417C191.461 64.2963 191.84 64.5177 192.155 64.8057C192.469 65.0937 192.715 65.4403 192.891 65.8457C193.067 66.251 193.155 66.7017 193.155 67.1977C193.155 67.6243 193.091 68.019 192.963 68.3817C192.84 68.7443 192.672 69.091 192.458 69.4217C192.251 69.7523 192.005 70.0723 191.723 70.3817C191.44 70.691 191.144 71.0057 190.834 71.3257L188.227 73.9897C188.477 73.915 188.725 73.859 188.97 73.8217C189.221 73.779 189.458 73.7577 189.682 73.7577H192.651ZM197.844 67.5017C197.844 68.147 198.009 68.6403 198.34 68.9817C198.676 69.3177 199.15 69.4857 199.764 69.4857C200.084 69.4857 200.369 69.435 200.62 69.3337C200.87 69.2323 201.081 69.0937 201.252 68.9177C201.422 68.7417 201.55 68.5337 201.636 68.2937C201.726 68.0537 201.772 67.795 201.772 67.5177C201.772 67.203 201.724 66.923 201.628 66.6777C201.532 66.427 201.396 66.2163 201.22 66.0457C201.044 65.875 200.833 65.7443 200.588 65.6537C200.348 65.563 200.084 65.5177 199.796 65.5177C199.497 65.5177 199.228 65.5683 198.988 65.6697C198.748 65.7657 198.542 65.9017 198.372 66.0777C198.201 66.2537 198.07 66.4643 197.98 66.7097C197.889 66.9497 197.844 67.2137 197.844 67.5017ZM200.468 71.1097C200.558 70.9977 200.644 70.8883 200.724 70.7817C200.804 70.675 200.881 70.5683 200.956 70.4617C200.689 70.6323 200.396 70.763 200.076 70.8537C199.756 70.939 199.42 70.9817 199.068 70.9817C198.668 70.9817 198.276 70.9123 197.892 70.7737C197.508 70.635 197.166 70.427 196.868 70.1497C196.569 69.867 196.326 69.5203 196.14 69.1097C195.958 68.6937 195.868 68.2083 195.868 67.6537C195.868 67.1363 195.964 66.651 196.156 66.1977C196.348 65.7443 196.617 65.347 196.964 65.0057C197.31 64.6643 197.726 64.395 198.212 64.1977C198.697 64.0003 199.233 63.9017 199.82 63.9017C200.412 63.9017 200.942 63.995 201.412 64.1817C201.886 64.3683 202.289 64.6297 202.62 64.9657C202.956 65.3017 203.212 65.7043 203.388 66.1737C203.569 66.643 203.66 67.1577 203.66 67.7177C203.66 68.075 203.628 68.4137 203.564 68.7337C203.505 69.0537 203.42 69.363 203.308 69.6617C203.196 69.955 203.06 70.243 202.9 70.5257C202.74 70.8083 202.561 71.0883 202.364 71.3657L199.716 75.1417C199.625 75.2697 199.489 75.379 199.308 75.4697C199.126 75.555 198.921 75.5977 198.692 75.5977H196.876L200.468 71.1097Z" fill="#FDFDFD"/>
</g>
<defs>
<clipPath id="clip0_725_4337">
<rect width="231.626" height="136.442" rx="16" fill="white"/>
</clipPath>
</defs>
</svg>
