<svg width="32" height="32" viewBox="0 0 32 32" fill="none" xmlns="http://www.w3.org/2000/svg">
<path d="M16.0268 3.87988C11.6135 3.87988 8.02678 7.46655 8.02678 11.8799V15.7332C8.02678 16.5465 7.68012 17.7865 7.26678 18.4799L5.73345 21.0265C4.78678 22.5999 5.44012 24.3465 7.17345 24.9332C12.9201 26.8532 19.1201 26.8532 24.8668 24.9332C26.4801 24.3999 27.1868 22.4932 26.3068 21.0265L24.7734 18.4799C24.3734 17.7865 24.0268 16.5465 24.0268 15.7332V11.8799C24.0268 7.47988 20.4268 3.87988 16.0268 3.87988Z" stroke="#929292" stroke-width="2" stroke-miterlimit="10" stroke-linecap="round"/>
<path d="M18.4934 4.26667C18.0801 4.14667 17.6534 4.05334 17.2134 4C15.9334 3.84 14.7067 3.93334 13.5601 4.26667C13.9467 3.28 14.9067 2.58667 16.0267 2.58667C17.1467 2.58667 18.1067 3.28 18.4934 4.26667Z" stroke="#929292" stroke-width="2" stroke-miterlimit="10" stroke-linecap="round" stroke-linejoin="round"/>
<path d="M20.0266 25.4133C20.0266 27.6133 18.2266 29.4133 16.0266 29.4133C14.9333 29.4133 13.9199 28.96 13.1999 28.24C12.4799 27.52 12.0266 26.5067 12.0266 25.4133" stroke="#929292" stroke-width="2" stroke-miterlimit="10"/>
</svg>
