<svg width="25" height="49" viewBox="0 0 25 49" fill="none" xmlns="http://www.w3.org/2000/svg">
<path d="M14.0977 1.71855L16.2128 5.94882C16.5013 6.52567 17.2704 7.10252 17.9114 7.19867L21.7411 7.83961C24.1927 8.25622 24.7695 10.0188 23.0069 11.7815L20.0265 14.7619C19.5298 15.2586 19.2413 16.2361 19.4016 16.9411L20.2509 20.6426C20.9239 23.5589 19.3695 24.6966 16.7897 23.1744L13.2004 21.0432C12.5434 20.6586 11.4859 20.6586 10.8289 21.0432L7.23953 23.1744C4.65971 24.6966 3.1054 23.5589 3.7784 20.6426L4.6277 16.9411C4.78794 16.2521 4.49949 15.2746 4.00275 14.7619L1.02236 11.7815C-0.740253 10.0188 -0.163433 8.2402 2.2882 7.83961L6.1179 7.19867C6.75885 7.0865 7.52799 6.52567 7.81641 5.94882L9.93156 1.71855C11.0692 -0.572849 12.96 -0.572849 14.0977 1.71855Z" fill="#FFD93B"/>
<path d="M8.49405 45.8501V44.7365L11.9394 41.1669C12.3073 40.7791 12.6105 40.4393 12.8492 40.1477C13.0911 39.8527 13.2718 39.5726 13.3911 39.3075C13.5104 39.0423 13.57 38.7606 13.57 38.4623C13.57 38.1242 13.4905 37.8326 13.3314 37.5873C13.1723 37.3387 12.9552 37.1482 12.6801 37.0156C12.405 36.8797 12.0951 36.8117 11.7504 36.8117C11.3859 36.8117 11.0677 36.8863 10.7959 37.0355C10.5241 37.1846 10.3153 37.3951 10.1695 37.6669C10.0236 37.9386 9.95073 38.2568 9.95073 38.6214H8.48411C8.48411 38.0016 8.62663 37.4597 8.91167 36.9957C9.1967 36.5317 9.5878 36.1721 10.085 35.9169C10.5821 35.6583 11.1472 35.5291 11.7803 35.5291C12.42 35.5291 12.9834 35.6567 13.4706 35.9119C13.9611 36.1638 14.344 36.5085 14.6191 36.946C14.8941 37.3802 15.0317 37.8707 15.0317 38.4176C15.0317 38.7954 14.9604 39.165 14.8179 39.5262C14.6787 39.8875 14.4351 40.2902 14.0871 40.7343C13.7391 41.1751 13.2552 41.7104 12.6354 42.3402L10.6119 44.4581V44.5326H15.1958V45.8501H8.49405Z" fill="#070707"/>
</svg>
