<svg width="25" height="49" viewBox="0 0 25 49" fill="none" xmlns="http://www.w3.org/2000/svg">
<path d="M14.0977 1.71855L16.2128 5.94882C16.5013 6.52567 17.2704 7.10252 17.9114 7.19867L21.7411 7.83961C24.1927 8.25622 24.7695 10.0188 23.0069 11.7815L20.0265 14.7619C19.5298 15.2586 19.2413 16.2361 19.4016 16.9411L20.2509 20.6426C20.9239 23.5589 19.3695 24.6966 16.7897 23.1744L13.2004 21.0432C12.5434 20.6586 11.4859 20.6586 10.8289 21.0432L7.23953 23.1744C4.65971 24.6966 3.1054 23.5589 3.7784 20.6426L4.6277 16.9411C4.78794 16.2521 4.49949 15.2746 4.00275 14.7619L1.02236 11.7815C-0.740253 10.0188 -0.163433 8.2402 2.2882 7.83961L6.1179 7.19867C6.75885 7.0865 7.52799 6.52567 7.81641 5.94882L9.93156 1.71855C11.0692 -0.572849 12.96 -0.572849 14.0977 1.71855Z" fill="#FFD93B"/>
<path d="M11.5388 45.9893C10.856 45.9893 10.2462 45.8716 9.70925 45.6363C9.17563 45.401 8.75305 45.0745 8.4415 44.6569C8.13326 44.236 7.96754 43.7488 7.94434 43.1953H9.50542C9.5253 43.4969 9.62639 43.7587 9.80868 43.9808C9.99429 44.1995 10.2362 44.3686 10.5345 44.4879C10.8328 44.6072 11.1643 44.6669 11.5289 44.6669C11.9299 44.6669 12.2845 44.5973 12.5928 44.4581C12.9043 44.3188 13.1479 44.125 13.3236 43.8764C13.4993 43.6245 13.5871 43.3345 13.5871 43.0063C13.5871 42.665 13.4993 42.365 13.3236 42.1065C13.1512 41.8447 12.8977 41.6392 12.5629 41.49C12.2315 41.3409 11.8305 41.2663 11.3598 41.2663H10.4997V40.0134H11.3598C11.7377 40.0134 12.0691 39.9455 12.3541 39.8096C12.6425 39.6737 12.8679 39.4848 13.0303 39.2429C13.1927 38.9976 13.2739 38.7109 13.2739 38.3828C13.2739 38.0679 13.2026 37.7945 13.0601 37.5625C12.9209 37.3271 12.722 37.1432 12.4635 37.0106C12.2083 36.878 11.9067 36.8117 11.5587 36.8117C11.2272 36.8117 10.9173 36.8731 10.629 36.9957C10.344 37.115 10.1119 37.2874 9.93297 37.5127C9.754 37.7348 9.65788 38.0016 9.64462 38.3132H8.15811C8.17469 37.763 8.33709 37.2791 8.64533 36.8615C8.95688 36.4438 9.36787 36.1174 9.87828 35.8821C10.3887 35.6467 10.9555 35.5291 11.5786 35.5291C12.2315 35.5291 12.795 35.6567 13.2689 35.9119C13.7462 36.1638 14.1141 36.5002 14.3726 36.9211C14.6344 37.342 14.7637 37.8027 14.7604 38.3032C14.7637 38.8733 14.6046 39.3572 14.2831 39.7549C13.9649 40.1527 13.5407 40.4195 13.0104 40.5554V40.6349C13.6865 40.7376 14.2102 41.0061 14.5814 41.4403C14.9559 41.8745 15.1415 42.4131 15.1382 43.0561C15.1415 43.6162 14.9858 44.1183 14.6709 44.5625C14.3593 45.0066 13.9334 45.3563 13.3932 45.6115C12.853 45.8634 12.2348 45.9893 11.5388 45.9893Z" fill="#070707"/>
</svg>
