<svg width="26" height="50" viewBox="0 0 26 50" fill="none" xmlns="http://www.w3.org/2000/svg">
<path d="M15.0949 2.72146L17.2099 6.95151C17.4983 7.54035 18.2674 8.10516 18.9163 8.21331L22.7498 8.85022C25.2013 9.2588 25.7781 11.0373 24.0116 12.7919L21.0314 15.7721C20.5266 16.2768 20.2502 17.2502 20.4065 17.9472L21.2597 21.6365C21.9326 24.5567 20.3824 25.6863 17.7987 24.1601L14.2056 22.0331C13.5567 21.6485 12.4871 21.6485 11.8262 22.0331L8.23306 24.1601C5.66138 25.6863 4.09915 24.5447 4.77211 21.6365L5.62533 17.9472C5.78155 17.2502 5.50516 16.2768 5.00044 15.7721L2.02018 12.7919C0.265669 11.0373 0.830477 9.2588 3.28198 8.85022L7.11546 8.21331C7.75237 8.10516 8.52147 7.54035 8.80988 6.95151L10.9249 2.72146C12.0786 0.42618 13.9532 0.42618 15.0949 2.72146Z" stroke="#FFD93B" stroke-linecap="round" stroke-linejoin="round"/>
<path d="M12.8588 46.979C12.2356 46.979 11.6755 46.8597 11.1784 46.6211C10.6845 46.3791 10.2901 46.0477 9.99512 45.6268C9.70014 45.2058 9.5427 44.7253 9.52282 44.185H11.0143C11.0508 44.6225 11.2446 44.9821 11.596 45.2638C11.9473 45.5456 12.3682 45.6864 12.8588 45.6864C13.2499 45.6864 13.5962 45.5969 13.8978 45.418C14.2027 45.2357 14.4414 44.9854 14.6137 44.6673C14.7894 44.3491 14.8772 43.9862 14.8772 43.5785C14.8772 43.1642 14.7877 42.7946 14.6088 42.4698C14.4298 42.145 14.1829 41.8898 13.868 41.7042C13.5564 41.5186 13.1985 41.4241 12.7941 41.4208C12.4859 41.4208 12.176 41.4738 11.8644 41.5799C11.5529 41.686 11.301 41.8252 11.1088 41.9975L9.70179 41.7887L10.2735 36.658H15.8715V37.9755H11.5512L11.2281 40.8242H11.2877C11.4866 40.632 11.7501 40.4712 12.0782 40.342C12.4097 40.2127 12.7643 40.1481 13.1421 40.1481C13.7619 40.1481 14.3138 40.2956 14.7977 40.5906C15.2849 40.8855 15.6677 41.2882 15.9461 41.7987C16.2278 42.3058 16.367 42.8891 16.3637 43.5487C16.367 44.2082 16.2179 44.7965 15.9163 45.3136C15.618 45.8306 15.2037 46.2383 14.6734 46.5366C14.1464 46.8316 13.5415 46.979 12.8588 46.979Z" fill="#070707"/>
</svg>
