<svg width="26" height="50" viewBox="0 0 26 50" fill="none" xmlns="http://www.w3.org/2000/svg">
<path d="M15.0949 2.72146L17.2099 6.95151C17.4983 7.54035 18.2674 8.10516 18.9163 8.21331L22.7498 8.85022C25.2013 9.2588 25.7781 11.0373 24.0116 12.7919L21.0314 15.7721C20.5266 16.2768 20.2502 17.2502 20.4065 17.9472L21.2597 21.6365C21.9326 24.5567 20.3824 25.6863 17.7987 24.1601L14.2056 22.0331C13.5567 21.6485 12.4871 21.6485 11.8262 22.0331L8.23306 24.1601C5.66138 25.6863 4.09915 24.5447 4.77211 21.6365L5.62533 17.9472C5.78155 17.2502 5.50516 16.2768 5.00044 15.7721L2.02018 12.7919C0.265669 11.0373 0.830477 9.2588 3.28198 8.85022L7.11546 8.21331C7.75237 8.10516 8.52147 7.54035 8.80988 6.95151L10.9249 2.72146C12.0786 0.42618 13.9532 0.42618 15.0949 2.72146Z" stroke="#FFD93B" stroke-linecap="round" stroke-linejoin="round"/>
<path d="M8.78418 44.8512V43.6083L13.184 36.658H14.1634V38.4876H13.542L10.395 43.4691V43.5487H16.4255V44.8512H8.78418ZM13.6116 46.8398V44.4734L13.6215 43.9066V36.658H15.0782V46.8398H13.6116Z" fill="#070707"/>
</svg>
