<svg width="25" height="49" viewBox="0 0 25 49" fill="none" xmlns="http://www.w3.org/2000/svg">
<path d="M14.0977 1.71855L16.2128 5.94882C16.5013 6.52567 17.2704 7.10252 17.9114 7.19867L21.7411 7.83961C24.1927 8.25622 24.7695 10.0188 23.0069 11.7815L20.0265 14.7619C19.5298 15.2586 19.2413 16.2361 19.4016 16.9411L20.2509 20.6426C20.9239 23.5589 19.3695 24.6966 16.7897 23.1744L13.2004 21.0432C12.5434 20.6586 11.4859 20.6586 10.8289 21.0432L7.23953 23.1744C4.65971 24.6966 3.1054 23.5589 3.7784 20.6426L4.6277 16.9411C4.78794 16.2521 4.49949 15.2746 4.00275 14.7619L1.02236 11.7815C-0.740253 10.0188 -0.163433 8.2402 2.2882 7.83961L6.1179 7.19867C6.75885 7.0865 7.52799 6.52567 7.81641 5.94882L9.93156 1.71855C11.0692 -0.572849 12.96 -0.572849 14.0977 1.71855Z" fill="#FFD93B"/>
<path d="M13.357 35.6683V45.8501H11.8158V37.2095H11.7561L9.32005 38.8004V37.3288L11.8605 35.6683H13.357Z" fill="#070707"/>
</svg>
