<svg width="252" height="252" viewBox="0 0 252 252" fill="none" xmlns="http://www.w3.org/2000/svg">
<g filter="url(#filter0_d_749_3325)">
<path d="M126 231C183.99 231 231 183.99 231 126C231 68.0101 183.99 21 126 21C68.0101 21 21 68.0101 21 126C21 183.99 68.0101 231 126 231Z" fill="#566B92"/>
</g>
<path d="M111.09 163.59C108.99 163.59 106.995 162.75 105.525 161.28L75.8101 131.565C72.7651 128.52 72.7651 123.48 75.8101 120.435C78.8551 117.39 83.8951 117.39 86.9401 120.435L111.09 144.585L165.06 90.615C168.105 87.57 173.145 87.57 176.19 90.615C179.235 93.66 179.235 98.7 176.19 101.745L116.655 161.28C115.185 162.75 113.19 163.59 111.09 163.59Z" fill="#FDFDFD"/>
<defs>
<filter id="filter0_d_749_3325" x="9" y="13" width="234" height="234" filterUnits="userSpaceOnUse" color-interpolation-filters="sRGB">
<feFlood flood-opacity="0" result="BackgroundImageFix"/>
<feColorMatrix in="SourceAlpha" type="matrix" values="0 0 0 0 0 0 0 0 0 0 0 0 0 0 0 0 0 0 127 0" result="hardAlpha"/>
<feOffset dy="4"/>
<feGaussianBlur stdDeviation="6"/>
<feComposite in2="hardAlpha" operator="out"/>
<feColorMatrix type="matrix" values="0 0 0 0 0.337255 0 0 0 0 0.419608 0 0 0 0 0.572549 0 0 0 0.33 0"/>
<feBlend mode="normal" in2="BackgroundImageFix" result="effect1_dropShadow_749_3325"/>
<feBlend mode="normal" in="SourceGraphic" in2="effect1_dropShadow_749_3325" result="shape"/>
</filter>
</defs>
</svg>
