<svg width="65" height="65" viewBox="0 0 65 65" fill="none" xmlns="http://www.w3.org/2000/svg">
<circle cx="32.5" cy="32.5" r="32.5" fill="#929292" fill-opacity="0.55"/>
<path d="M20.5642 37.1845V42.6199C20.5642 43.3911 21.0784 43.942 21.8619 43.942H27.3217C28.5582 43.942 28.9377 42.6076 28.1052 41.7752L26.3179 39.9879L32.4878 33.8179L38.6577 40.0001L36.8827 41.7752C36.0502 42.6076 36.4297 43.942 37.6662 43.942H43.126C43.8973 43.942 44.4237 43.3911 44.4237 42.6199V37.1845C44.4237 35.9358 43.0771 35.5808 42.2569 36.401L40.4696 38.1883L34.2996 32.0061L40.4696 25.8362L42.2569 27.6113C43.0771 28.4437 44.4237 28.0765 44.4237 26.8278V21.3924C44.4237 20.6334 43.8973 20.0825 43.126 20.0825H37.6662C36.4297 20.0825 36.0502 21.4046 36.8827 22.2493L38.67 24.0244L32.4878 30.2066L26.3179 24.0244L28.1052 22.2493C28.9377 21.4046 28.5582 20.0825 27.3217 20.0825H21.8619C21.0784 20.0825 20.5642 20.6334 20.5642 21.3924V26.8278C20.5642 28.0765 21.8986 28.4437 22.731 27.6113L24.5183 25.824L30.6883 32.0061L24.5061 38.1883L22.731 36.401C21.8986 35.5808 20.5642 35.9358 20.5642 37.1845Z" fill="#FDFDFD"/>
</svg>
