<svg width="66" height="66" viewBox="0 0 66 66" fill="none" xmlns="http://www.w3.org/2000/svg">
<ellipse cx="32.7163" cy="32.715" rx="32.7163" ry="32.715" fill="#929292" fill-opacity="0.55"/>
<path d="M22.8161 41.9261H34.989C37.4884 41.9261 38.9233 40.526 38.9233 38.073V26.7105C38.9233 24.2575 37.581 22.8574 35.0816 22.8574H22.8161C20.4092 22.8574 18.8818 24.2575 18.8818 26.7105V38.154C18.8818 40.5954 20.3282 41.9261 22.8161 41.9261ZM40.6242 36.1175L44.5816 39.5194C45.056 39.9359 45.5652 40.202 46.0512 40.202C46.9884 40.202 47.6249 39.5309 47.6249 38.5127V26.3287C47.6249 25.3104 46.9884 24.6393 46.0512 24.6393C45.5536 24.6393 45.056 24.9055 44.5816 25.322L40.6242 28.7238V36.1175Z" fill="#FDFDFD"/>
</svg>
